<svg width="1236" height="150" viewBox="0 0 1236 150" fill="none" xmlns="http://www.w3.org/2000/svg">
<path d="M15.4412 57.5694C15.4412 27.1342 42.3207 3.70865 72.4703 7.86848L95.2408 11.0102C100.011 11.6683 104.836 11.834 109.64 11.5045L277.385 0H644.721H959.36L1153.1 11.6819C1156.61 11.8936 1160.13 11.8176 1163.63 11.4545L1165.99 11.2094C1214.14 6.21271 1249.73 55.073 1230.21 99.3662C1220.13 122.239 1197.5 137 1172.5 137H914.083L672.519 150L412.622 144.5L314.988 137H30.3018C20.9486 137 12.1431 132.589 6.54201 125.099C0.0430136 116.407 -1.19153 104.86 3.32299 94.9913L10.8942 78.44C13.8904 71.8902 15.4412 64.772 15.4412 57.5694Z" fill="white"/>
</svg>
