<svg width="1253" height="156" viewBox="0 0 1253 156" fill="f1f1f1" xmlns="http://www.w3.org/2000/svg">
<path d="M15.4412 68.4609C15.4412 33.931 43.9756 6.22996 78.4903 7.25318L122.041 8.54429L277.385 5.38404H644.721H959.36L1153.82 0.5L1229.58 3.57888C1248.7 4.35599 1259.34 26.0285 1248.27 41.6337C1245.37 45.7127 1243.82 50.5911 1243.82 55.5933V68.3311C1243.82 76.4964 1242.25 84.5864 1239.22 92.1656L1237.12 97.4041C1222.93 132.799 1188.63 156 1150.5 156H914.083L720.005 140.413L413.695 145.585L314.988 156H32.5382C21.8429 156 11.8409 150.707 5.82599 141.863C-0.305043 132.849 -1.47604 121.35 2.71196 111.285L10.7425 91.9846C13.8443 84.5298 15.4412 76.5352 15.4412 68.4609Z" fill="white"/>
</svg>
