<svg width="504" height="400" viewBox="0 0 504 400" fill="none" xmlns="http://www.w3.org/2000/svg">
<path d="M459.102 357C457.398 357.011 453.386 358.084 451.907 358.921C450.439 359.781 447.503 362.705 446.64 364.167C445.8 365.64 444.723 369.636 444.712 371.333C444.723 373.03 445.8 377.027 446.64 378.5C447.503 379.962 450.439 382.886 451.907 383.746C453.386 384.583 457.398 385.655 459.102 385.667C460.806 385.655 464.818 384.583 466.297 383.746C467.765 382.886 470.701 379.962 471.564 378.5C472.405 377.027 473.481 373.03 473.492 371.333C473.481 369.636 472.405 365.64 471.564 364.167C470.701 362.705 467.765 359.781 466.297 358.921C464.818 358.084 460.806 357.011 459.102 357Z" stroke="#494951" stroke-width="27" stroke-linecap="round" stroke-linejoin="round"/>
<path d="M126.943 357.052C125.245 357.201 121.337 358.594 119.932 359.551C118.539 360.526 115.851 363.679 115.114 365.21C114.395 366.747 113.652 370.817 113.779 372.509C113.928 374.2 115.333 378.093 116.294 379.492C117.273 380.879 120.439 383.557 121.97 384.291C123.518 385.007 127.605 385.747 129.303 385.621C131.001 385.472 134.91 384.073 136.314 383.115C137.707 382.141 140.395 378.987 141.132 377.462C141.851 375.92 142.594 371.849 142.462 370.158C142.312 368.467 140.913 364.574 139.952 363.175C138.973 361.787 135.808 359.11 134.271 358.376C132.728 357.659 128.641 356.92 126.943 357.052Z" stroke="#494951" stroke-width="27" stroke-linecap="round" stroke-linejoin="round"/>
<path d="M466.654 125.528L99.3423 113.333" stroke="#E8E8F0" stroke-width="25" stroke-linecap="round" stroke-linejoin="round"/>
<path d="M466.654 158.546L113.733 170.667" stroke="#E8E8F0" stroke-width="25" stroke-linecap="round" stroke-linejoin="round"/>
<path d="M466.654 188.692L128.123 213.667" stroke="#E8E8F0" stroke-width="25" stroke-linecap="round" stroke-linejoin="round"/>
<path d="M478.454 87.9692L480.325 89.2134" stroke="#E8E8F0" stroke-width="25" stroke-linecap="round" stroke-linejoin="round"/>
<path d="M471.443 123.642L483.318 126.084" stroke="#E8E8F0" stroke-width="25" stroke-linecap="round" stroke-linejoin="round"/>
<path d="M415.931 84.6665L430.321 228" stroke="#E8E8F0" stroke-width="25" stroke-linecap="round" stroke-linejoin="round"/>
<path d="M358.369 84.6665L372.76 242.333" stroke="#E8E8F0" stroke-width="25" stroke-linecap="round" stroke-linejoin="round"/>
<path d="M300.808 70.3335L315.198 242.333" stroke="#E8E8F0" stroke-width="25" stroke-linecap="round" stroke-linejoin="round"/>
<path d="M243.246 70.3335L272.027 242.333" stroke="#E8E8F0" stroke-width="25" stroke-linecap="round" stroke-linejoin="round"/>
<path d="M174.351 69.1865L214.465 242.333" stroke="#E8E8F0" stroke-width="25" stroke-linecap="round" stroke-linejoin="round"/>
<path d="M272.027 256.667L270.83 257.463L228.856 285.333L228.153 285.511L171.294 299.667" stroke="white" stroke-width="25" stroke-linecap="round" stroke-linejoin="round"/>
<path d="M174.052 298.978L142.514 256.667" stroke="white" stroke-width="25" stroke-linecap="round" stroke-linejoin="round"/>
<path d="M228.856 285.333L459.102 342.667V343.383V371.333" stroke="white" stroke-width="25" stroke-linecap="round" stroke-linejoin="round"/>
<path d="M185.685 299.667L128.123 357V357.717V371.333" stroke="white" stroke-width="25" stroke-linecap="round" stroke-linejoin="round"/>
<path d="M458.037 232.495L142.513 256.667L142.312 255.967L88.1638 67.1973" stroke="white" stroke-width="31.2" stroke-linecap="round" stroke-linejoin="round"/>
<path d="M478.293 88.5308L480.325 89.213" stroke="white" stroke-width="31.2" stroke-linecap="round" stroke-linejoin="round"/>
<path d="M478.949 87.7568L480.325 89.2131" stroke="white" stroke-width="31.2" stroke-linecap="round" stroke-linejoin="round"/>
<path d="M84.9521 56.0002L27.3906 27.3335" stroke="#D6D6E8" stroke-width="25" stroke-linecap="round" stroke-linejoin="round"/>
<path d="M41.7808 13L13 41.6667" stroke="white" stroke-width="25" stroke-linecap="round" stroke-linejoin="round"/>
<path d="M459.102 228L487.883 84.6667L84.9519 56" stroke="white" stroke-width="32" stroke-linecap="round" stroke-linejoin="round"/>
</svg>
