<svg width="1440" height="1024" viewBox="0 0 1440 1024" fill="none" xmlns="http://www.w3.org/2000/svg">
<g clip-path="url(#clip0_678_1202)">
<rect width="1440" height="1024" fill="#D2D4DA"/>
<rect x="1" width="1439" height="431" fill="url(#paint0_linear_678_1202)"/>
<rect x="321" width="3" height="104" fill="#9D9DA9"/>
<rect x="634" y="-9" width="3" height="136" fill="#9D9DA9"/>
<rect x="1148" y="1" width="3" height="136" fill="#9D9DA9"/>
<rect x="865" width="3" height="136" fill="#9D9DA9"/>
<g filter="url(#filter0_d_678_1202)">
<path d="M957.5 0.739014L813.5 167H895.5L1109 0.739014H957.5Z" fill="#EDECF1"/>
</g>
<path d="M958 0.739014L814 167V149.5L958 -16V0.739014Z" fill="#F9F9F9"/>
<g filter="url(#filter1_d_678_1202)">
<path d="M534.5 0.739014L678.5 167H596.5L383 0.739014H534.5Z" fill="#EDECF1"/>
</g>
<path d="M534.5 0.739014L678.5 167V149.5L534.5 -16V0.739014Z" fill="#F9F9F9"/>
<g filter="url(#filter2_d_678_1202)">
<path d="M1354.5 0L1082 166.261H1175.5L1506 0H1354.5Z" fill="#EDECF1"/>
</g>
<path d="M1354.5 0L1082 166.261V151L1354.5 -20V0Z" fill="#F7F7FA"/>
<g filter="url(#filter3_d_678_1202)">
<path d="M133.5 0L406 166.261H312.5L-18 0H133.5Z" fill="#EDECF1"/>
</g>
<path d="M133.5 0L406 166.261V151L133.5 -20V0Z" fill="#F7F7FA"/>
<rect x="1" y="431" width="1439" height="156" fill="#E5E5EF"/>
<rect x="29" y="456" width="1300" height="120" fill="#F0F0F0" fill-opacity="0.42"/>
<g filter="url(#filter4_f_678_1202)">
<g filter="url(#filter5_d_678_1202)">
<rect x="66" y="570" width="1300" height="5" fill="#F0F0F0" fill-opacity="0.65" shape-rendering="crispEdges"/>
</g>
<g filter="url(#filter6_d_678_1202)">
<rect x="66" y="553" width="1300" height="5" fill="#F0F0F0" fill-opacity="0.65" shape-rendering="crispEdges"/>
</g>
<g filter="url(#filter7_d_678_1202)">
<rect x="66" y="533" width="1300" height="5" fill="#F0F0F0" fill-opacity="0.65" shape-rendering="crispEdges"/>
</g>
<g filter="url(#filter8_d_678_1202)">
<rect x="66" y="516" width="1300" height="5" fill="#F0F0F0" fill-opacity="0.65" shape-rendering="crispEdges"/>
</g>
<g filter="url(#filter9_d_678_1202)">
<rect x="66" y="494" width="1300" height="5" fill="#F0F0F0" fill-opacity="0.65" shape-rendering="crispEdges"/>
</g>
<g filter="url(#filter10_d_678_1202)">
<rect x="66" y="477" width="1300" height="5" fill="#F0F0F0" fill-opacity="0.65" shape-rendering="crispEdges"/>
</g>
<g filter="url(#filter11_d_678_1202)">
<rect x="66" y="456" width="1300" height="5" fill="#F0F0F0" fill-opacity="0.65" shape-rendering="crispEdges"/>
</g>
</g>
<rect x="1" y="588" width="1439" height="436" fill="url(#paint1_linear_678_1202)"/>
<g opacity="0.3" filter="url(#filter12_f_678_1202)">
<path d="M1211.62 1071.18H1276V563.717H1211.62V1071.18Z" fill="url(#paint2_linear_678_1202)"/>
<path d="M1210.57 563.717L1128 675.558V994.807L1210.57 1071.18V563.717Z" fill="#DFDEE6"/>
<path d="M818.119 1071.18H882V563.717H818.119V1071.18Z" fill="url(#paint3_linear_678_1202)"/>
<path d="M817.289 1071.18L770 969.35V646.763L817.289 563.717V1071.18Z" fill="#DFDEE6"/>
<path d="M541 1071.18H622.022V563.717H541V1071.18Z" fill="#EBF3F5"/>
<path d="M622.022 1071.18L682 969.35V646.763L622.022 563.717V1071.18Z" fill="#DFDEE6"/>
<path d="M139 1083.29H226.624V575.836H139V1083.29Z" fill="#EEF2F3"/>
<path d="M226.624 1083.29L339 971.453V652.205L226.624 575.836V1083.29Z" fill="#DFDEE6"/>
<path d="M329 1309H483V388H329V1309Z" fill="#F4F4F4"/>
<path d="M955 1309H1109V388H955V1309Z" fill="#F4F4F4"/>
<path d="M0 1309L197.5 1106.02V526.604L0 388V1309Z" fill="#DFDEE6"/>
<path d="M1439.5 1309L1242 1106.02V526.604L1439.5 388V1309Z" fill="#DFDEE6"/>
<path d="M483 1309L597 1124.19V538.723L483 388V1309Z" fill="#DFDEE6"/>
<path d="M955 1309L841 1124.19V538.723L955 388V1309Z" fill="#DFDEE6"/>
</g>
<path d="M1211.62 365H1276V700H1211.62V365Z" fill="url(#paint4_linear_678_1202)"/>
<path d="M1210.57 700L1128 626.168V415.415L1210.57 365V700Z" fill="#DFDEE6"/>
<path d="M818.119 365H882V700H818.119V365Z" fill="url(#paint5_linear_678_1202)"/>
<path d="M817.289 365L770 432.22V645.177L817.289 700V365Z" fill="#DFDEE6"/>
<path d="M541 365H622.022V700H541V365Z" fill="#EBF3F5"/>
<path d="M622.022 365L682 432.22V645.177L622.022 700V365Z" fill="#DFDEE6"/>
<path d="M139 357H226.624V692H139V357Z" fill="#EEF2F3"/>
<path d="M226.624 357L339 430.832V641.585L226.624 692V357Z" fill="#DFDEE6"/>
<rect x="329" y="208" width="154" height="608" fill="#F4F4F4"/>
<rect x="955" y="208" width="154" height="608" fill="#F4F4F4"/>
<path d="M0 208L197.5 342V724.5L0 816L0 208Z" fill="#DFDEE6"/>
<path d="M1439.5 208L1242 342V724.5L1439.5 816V208Z" fill="#DFDEE6"/>
<path d="M483 208L597 330V716.5L483 816V208Z" fill="#DFDEE6"/>
<path d="M955 208L841 330V716.5L955 816V208Z" fill="#DFDEE6"/>
<g opacity="0.1" filter="url(#filter13_f_678_1202)">
<path d="M267.266 855.909C271.634 861.838 279.981 863.102 285.909 858.734C291.838 854.366 293.102 846.019 288.734 840.091C284.366 834.162 276.019 832.898 270.091 837.266C264.162 841.634 262.898 849.981 267.266 855.909ZM108.483 976.013L279.483 850.013L276.517 845.987L105.517 971.987L108.483 976.013Z" fill="#D65D6C"/>
<path d="M107 974H729" stroke="#DA5061" stroke-width="5"/>
<path d="M729 974H1302" stroke="#8362E2" stroke-width="5"/>
<path d="M1179.71 857.134C1184.76 851.769 1184.5 843.331 1179.13 838.286C1173.77 833.242 1165.33 833.502 1160.29 838.866C1155.24 844.231 1155.5 852.669 1160.87 857.714C1166.23 862.758 1174.67 862.498 1179.71 857.134ZM1305.71 972.179L1171.71 846.179L1168.29 849.821L1302.29 975.821L1305.71 972.179Z" fill="#8362E2"/>
<path d="M728.947 861.333C736.311 861.362 742.304 855.417 742.333 848.053C742.362 840.689 736.417 834.696 729.053 834.667C721.689 834.638 715.696 840.583 715.667 847.947C715.638 855.311 721.583 861.304 728.947 861.333ZM731 974.013L731.5 848.01L726.5 847.99L726 973.993L731 974.013Z" fill="#57B5D2"/>
<path d="M728.5 987.332C735.864 987.332 741.833 981.362 741.833 973.998C741.833 966.634 735.864 960.665 728.5 960.665C721.136 960.665 715.167 966.634 715.167 973.998C715.167 981.362 721.136 987.332 728.5 987.332ZM731 1110V973.998H726V1110H731Z" fill="black"/>
</g>
<path d="M259.266 769.909C263.634 775.838 271.981 777.102 277.909 772.734C283.838 768.366 285.102 760.019 280.734 754.091C276.366 748.162 268.019 746.898 262.091 751.266C256.162 755.634 254.898 763.981 259.266 769.909ZM100.483 890.013L271.483 764.013L268.517 759.987L97.517 885.987L100.483 890.013Z" fill="#D65D6C"/>
<path d="M99 888H721" stroke="#DA5061" stroke-width="5"/>
<path d="M721 888H1294" stroke="#8362E2" stroke-width="5"/>
<path d="M1171.71 771.134C1176.76 765.769 1176.5 757.331 1171.13 752.286C1165.77 747.242 1157.33 747.502 1152.29 752.866C1147.24 758.231 1147.5 766.669 1152.87 771.714C1158.23 776.758 1166.67 776.498 1171.71 771.134ZM1297.71 886.179L1163.71 760.179L1160.29 763.821L1294.29 889.821L1297.71 886.179Z" fill="#8362E2"/>
<path d="M720.947 775.333C728.311 775.362 734.304 769.417 734.333 762.053C734.362 754.689 728.417 748.696 721.053 748.667C713.689 748.638 707.696 754.583 707.667 761.947C707.638 769.311 713.583 775.304 720.947 775.333ZM723 888.013L723.5 762.01L718.5 761.99L718 887.993L723 888.013Z" fill="#57B5D2"/>
<path d="M720.5 901.332C727.864 901.332 733.833 895.362 733.833 887.998C733.833 880.634 727.864 874.665 720.5 874.665C713.136 874.665 707.167 880.634 707.167 887.998C707.167 895.362 713.136 901.332 720.5 901.332ZM723 1024V887.998H718V1024H723Z" fill="black"/>
</g>
<defs>
<filter id="filter0_d_678_1202" x="790.9" y="-21.861" width="340.7" height="211.461" filterUnits="userSpaceOnUse" color-interpolation-filters="sRGB">
<feFlood flood-opacity="0" result="BackgroundImageFix"/>
<feColorMatrix in="SourceAlpha" type="matrix" values="0 0 0 0 0 0 0 0 0 0 0 0 0 0 0 0 0 0 127 0" result="hardAlpha"/>
<feOffset/>
<feGaussianBlur stdDeviation="11.3"/>
<feComposite in2="hardAlpha" operator="out"/>
<feColorMatrix type="matrix" values="0 0 0 0 1 0 0 0 0 1 0 0 0 0 1 0 0 0 1 0"/>
<feBlend mode="normal" in2="BackgroundImageFix" result="effect1_dropShadow_678_1202"/>
<feBlend mode="normal" in="SourceGraphic" in2="effect1_dropShadow_678_1202" result="shape"/>
</filter>
<filter id="filter1_d_678_1202" x="358.8" y="-21.461" width="343.9" height="214.661" filterUnits="userSpaceOnUse" color-interpolation-filters="sRGB">
<feFlood flood-opacity="0" result="BackgroundImageFix"/>
<feColorMatrix in="SourceAlpha" type="matrix" values="0 0 0 0 0 0 0 0 0 0 0 0 0 0 0 0 0 0 127 0" result="hardAlpha"/>
<feOffset dy="2"/>
<feGaussianBlur stdDeviation="12.1"/>
<feComposite in2="hardAlpha" operator="out"/>
<feColorMatrix type="matrix" values="0 0 0 0 1 0 0 0 0 1 0 0 0 0 1 0 0 0 1 0"/>
<feBlend mode="normal" in2="BackgroundImageFix" result="effect1_dropShadow_678_1202"/>
<feBlend mode="normal" in="SourceGraphic" in2="effect1_dropShadow_678_1202" result="shape"/>
</filter>
<filter id="filter2_d_678_1202" x="1059.3" y="-22.7" width="469.4" height="211.661" filterUnits="userSpaceOnUse" color-interpolation-filters="sRGB">
<feFlood flood-opacity="0" result="BackgroundImageFix"/>
<feColorMatrix in="SourceAlpha" type="matrix" values="0 0 0 0 0 0 0 0 0 0 0 0 0 0 0 0 0 0 127 0" result="hardAlpha"/>
<feOffset/>
<feGaussianBlur stdDeviation="11.35"/>
<feComposite in2="hardAlpha" operator="out"/>
<feColorMatrix type="matrix" values="0 0 0 0 1 0 0 0 0 1 0 0 0 0 1 0 0 0 1 0"/>
<feBlend mode="normal" in2="BackgroundImageFix" result="effect1_dropShadow_678_1202"/>
<feBlend mode="normal" in="SourceGraphic" in2="effect1_dropShadow_678_1202" result="shape"/>
</filter>
<filter id="filter3_d_678_1202" x="-36.8" y="-19.8" width="467.6" height="209.861" filterUnits="userSpaceOnUse" color-interpolation-filters="sRGB">
<feFlood flood-opacity="0" result="BackgroundImageFix"/>
<feColorMatrix in="SourceAlpha" type="matrix" values="0 0 0 0 0 0 0 0 0 0 0 0 0 0 0 0 0 0 127 0" result="hardAlpha"/>
<feOffset dx="3" dy="2"/>
<feGaussianBlur stdDeviation="10.9"/>
<feComposite in2="hardAlpha" operator="out"/>
<feColorMatrix type="matrix" values="0 0 0 0 1 0 0 0 0 1 0 0 0 0 1 0 0 0 1 0"/>
<feBlend mode="normal" in2="BackgroundImageFix" result="effect1_dropShadow_678_1202"/>
<feBlend mode="normal" in="SourceGraphic" in2="effect1_dropShadow_678_1202" result="shape"/>
</filter>
<filter id="filter4_f_678_1202" x="64" y="454" width="1304" height="123" filterUnits="userSpaceOnUse" color-interpolation-filters="sRGB">
<feFlood flood-opacity="0" result="BackgroundImageFix"/>
<feBlend mode="normal" in="SourceGraphic" in2="BackgroundImageFix" result="shape"/>
<feGaussianBlur stdDeviation="1" result="effect1_foregroundBlur_678_1202"/>
</filter>
<filter id="filter5_d_678_1202" x="62" y="570" width="1308" height="13" filterUnits="userSpaceOnUse" color-interpolation-filters="sRGB">
<feFlood flood-opacity="0" result="BackgroundImageFix"/>
<feColorMatrix in="SourceAlpha" type="matrix" values="0 0 0 0 0 0 0 0 0 0 0 0 0 0 0 0 0 0 127 0" result="hardAlpha"/>
<feOffset dy="4"/>
<feGaussianBlur stdDeviation="2"/>
<feComposite in2="hardAlpha" operator="out"/>
<feColorMatrix type="matrix" values="0 0 0 0 0 0 0 0 0 0 0 0 0 0 0 0 0 0 0.05 0"/>
<feBlend mode="normal" in2="BackgroundImageFix" result="effect1_dropShadow_678_1202"/>
<feBlend mode="normal" in="SourceGraphic" in2="effect1_dropShadow_678_1202" result="shape"/>
</filter>
<filter id="filter6_d_678_1202" x="62" y="553" width="1308" height="13" filterUnits="userSpaceOnUse" color-interpolation-filters="sRGB">
<feFlood flood-opacity="0" result="BackgroundImageFix"/>
<feColorMatrix in="SourceAlpha" type="matrix" values="0 0 0 0 0 0 0 0 0 0 0 0 0 0 0 0 0 0 127 0" result="hardAlpha"/>
<feOffset dy="4"/>
<feGaussianBlur stdDeviation="2"/>
<feComposite in2="hardAlpha" operator="out"/>
<feColorMatrix type="matrix" values="0 0 0 0 0 0 0 0 0 0 0 0 0 0 0 0 0 0 0.05 0"/>
<feBlend mode="normal" in2="BackgroundImageFix" result="effect1_dropShadow_678_1202"/>
<feBlend mode="normal" in="SourceGraphic" in2="effect1_dropShadow_678_1202" result="shape"/>
</filter>
<filter id="filter7_d_678_1202" x="62" y="533" width="1308" height="13" filterUnits="userSpaceOnUse" color-interpolation-filters="sRGB">
<feFlood flood-opacity="0" result="BackgroundImageFix"/>
<feColorMatrix in="SourceAlpha" type="matrix" values="0 0 0 0 0 0 0 0 0 0 0 0 0 0 0 0 0 0 127 0" result="hardAlpha"/>
<feOffset dy="4"/>
<feGaussianBlur stdDeviation="2"/>
<feComposite in2="hardAlpha" operator="out"/>
<feColorMatrix type="matrix" values="0 0 0 0 0 0 0 0 0 0 0 0 0 0 0 0 0 0 0.05 0"/>
<feBlend mode="normal" in2="BackgroundImageFix" result="effect1_dropShadow_678_1202"/>
<feBlend mode="normal" in="SourceGraphic" in2="effect1_dropShadow_678_1202" result="shape"/>
</filter>
<filter id="filter8_d_678_1202" x="62" y="516" width="1308" height="13" filterUnits="userSpaceOnUse" color-interpolation-filters="sRGB">
<feFlood flood-opacity="0" result="BackgroundImageFix"/>
<feColorMatrix in="SourceAlpha" type="matrix" values="0 0 0 0 0 0 0 0 0 0 0 0 0 0 0 0 0 0 127 0" result="hardAlpha"/>
<feOffset dy="4"/>
<feGaussianBlur stdDeviation="2"/>
<feComposite in2="hardAlpha" operator="out"/>
<feColorMatrix type="matrix" values="0 0 0 0 0 0 0 0 0 0 0 0 0 0 0 0 0 0 0.05 0"/>
<feBlend mode="normal" in2="BackgroundImageFix" result="effect1_dropShadow_678_1202"/>
<feBlend mode="normal" in="SourceGraphic" in2="effect1_dropShadow_678_1202" result="shape"/>
</filter>
<filter id="filter9_d_678_1202" x="62" y="494" width="1308" height="13" filterUnits="userSpaceOnUse" color-interpolation-filters="sRGB">
<feFlood flood-opacity="0" result="BackgroundImageFix"/>
<feColorMatrix in="SourceAlpha" type="matrix" values="0 0 0 0 0 0 0 0 0 0 0 0 0 0 0 0 0 0 127 0" result="hardAlpha"/>
<feOffset dy="4"/>
<feGaussianBlur stdDeviation="2"/>
<feComposite in2="hardAlpha" operator="out"/>
<feColorMatrix type="matrix" values="0 0 0 0 0 0 0 0 0 0 0 0 0 0 0 0 0 0 0.05 0"/>
<feBlend mode="normal" in2="BackgroundImageFix" result="effect1_dropShadow_678_1202"/>
<feBlend mode="normal" in="SourceGraphic" in2="effect1_dropShadow_678_1202" result="shape"/>
</filter>
<filter id="filter10_d_678_1202" x="62" y="477" width="1308" height="13" filterUnits="userSpaceOnUse" color-interpolation-filters="sRGB">
<feFlood flood-opacity="0" result="BackgroundImageFix"/>
<feColorMatrix in="SourceAlpha" type="matrix" values="0 0 0 0 0 0 0 0 0 0 0 0 0 0 0 0 0 0 127 0" result="hardAlpha"/>
<feOffset dy="4"/>
<feGaussianBlur stdDeviation="2"/>
<feComposite in2="hardAlpha" operator="out"/>
<feColorMatrix type="matrix" values="0 0 0 0 0 0 0 0 0 0 0 0 0 0 0 0 0 0 0.05 0"/>
<feBlend mode="normal" in2="BackgroundImageFix" result="effect1_dropShadow_678_1202"/>
<feBlend mode="normal" in="SourceGraphic" in2="effect1_dropShadow_678_1202" result="shape"/>
</filter>
<filter id="filter11_d_678_1202" x="62" y="456" width="1308" height="13" filterUnits="userSpaceOnUse" color-interpolation-filters="sRGB">
<feFlood flood-opacity="0" result="BackgroundImageFix"/>
<feColorMatrix in="SourceAlpha" type="matrix" values="0 0 0 0 0 0 0 0 0 0 0 0 0 0 0 0 0 0 127 0" result="hardAlpha"/>
<feOffset dy="4"/>
<feGaussianBlur stdDeviation="2"/>
<feComposite in2="hardAlpha" operator="out"/>
<feColorMatrix type="matrix" values="0 0 0 0 0 0 0 0 0 0 0 0 0 0 0 0 0 0 0.05 0"/>
<feBlend mode="normal" in2="BackgroundImageFix" result="effect1_dropShadow_678_1202"/>
<feBlend mode="normal" in="SourceGraphic" in2="effect1_dropShadow_678_1202" result="shape"/>
</filter>
<filter id="filter12_f_678_1202" x="-4" y="384" width="1447.5" height="929" filterUnits="userSpaceOnUse" color-interpolation-filters="sRGB">
<feFlood flood-opacity="0" result="BackgroundImageFix"/>
<feBlend mode="normal" in="SourceGraphic" in2="BackgroundImageFix" result="shape"/>
<feGaussianBlur stdDeviation="2" result="effect1_foregroundBlur_678_1202"/>
</filter>
<filter id="filter13_f_678_1202" x="98.6171" y="827.766" width="1214" height="289.136" filterUnits="userSpaceOnUse" color-interpolation-filters="sRGB">
<feFlood flood-opacity="0" result="BackgroundImageFix"/>
<feBlend mode="normal" in="SourceGraphic" in2="BackgroundImageFix" result="shape"/>
<feGaussianBlur stdDeviation="3.45" result="effect1_foregroundBlur_678_1202"/>
</filter>
<linearGradient id="paint0_linear_678_1202" x1="721" y1="-102.5" x2="891" y2="577" gradientUnits="userSpaceOnUse">
<stop stop-color="#C7C3CC"/>
<stop offset="0.635417" stop-color="#EAEDEE" stop-opacity="0.76"/>
<stop offset="1" stop-color="#E2E0E7" stop-opacity="0.76"/>
</linearGradient>
<linearGradient id="paint1_linear_678_1202" x1="864" y1="588" x2="581.91" y2="1091.82" gradientUnits="userSpaceOnUse">
<stop stop-color="#D3DEE4"/>
<stop offset="0.300427" stop-color="#EFEFF3" stop-opacity="0.687787"/>
<stop offset="0.630208" stop-color="#FBFBFB" stop-opacity="0.71"/>
<stop offset="1" stop-color="#8F93B5" stop-opacity="0.44"/>
</linearGradient>
<linearGradient id="paint2_linear_678_1202" x1="719.75" y1="388" x2="719.75" y2="1309" gradientUnits="userSpaceOnUse">
<stop stop-color="#EEF0F0"/>
<stop offset="0.0416667" stop-color="#E5EEF0"/>
<stop offset="1" stop-color="#DAEDF3"/>
</linearGradient>
<linearGradient id="paint3_linear_678_1202" x1="719.75" y1="388" x2="719.75" y2="1309" gradientUnits="userSpaceOnUse">
<stop stop-color="#EEF0F0"/>
<stop offset="0.151042" stop-color="#E5EEF0"/>
<stop offset="1" stop-color="#EBF5F9"/>
</linearGradient>
<linearGradient id="paint4_linear_678_1202" x1="1202" y1="365" x2="1202" y2="700" gradientUnits="userSpaceOnUse">
<stop stop-color="#EEF0F0"/>
<stop offset="0.0416667" stop-color="#E5EEF0"/>
<stop offset="1" stop-color="#DAEDF3"/>
</linearGradient>
<linearGradient id="paint5_linear_678_1202" x1="826" y1="365" x2="826" y2="700" gradientUnits="userSpaceOnUse">
<stop stop-color="#EEF0F0"/>
<stop offset="0.151042" stop-color="#E5EEF0"/>
<stop offset="1" stop-color="#EBF5F9"/>
</linearGradient>
<clipPath id="clip0_678_1202">
<rect width="1440" height="1024" fill="white"/>
</clipPath>
</defs>
</svg>