<?xml version="1.0" encoding="UTF-8" standalone="no"?>
<!DOCTYPE svg PUBLIC "-//W3C//DTD SVG 1.1//EN" "http://www.w3.org/Graphics/SVG/1.1/DTD/svg11.dtd">
<svg xmlns="http://www.w3.org/2000/svg" version="1.1" viewBox="0.00 0.00 192.00 200.00">
<path fill="#aaaaaa" d="
  M 60.04 75.24
  Q 43.04 81.25 24.97 82.13
  Q 22.25 82.27 23.45 79.83
  L 59.93 5.86
  A 1.64 1.64 0.0 0 1 61.78 4.99
  Q 78.88 8.98 94.66 16.34
  C 95.37 16.67 96.26 16.83 97.34 17.36
  Q 114.35 25.74 130.72 34.45
  A 2.32 2.31 -72.8 0 1 131.93 36.76
  L 129.92 54.10
  A 1.58 1.55 80.8 0 1 129.04 55.34
  L 120.78 59.23
  A 0.72 0.72 0.0 0 0 121.01 60.59
  Q 121.98 60.70 122.09 61.68
  Q 122.16 62.28 122.56 62.73
  Q 137.22 79.27 152.62 95.13
  Q 163.40 106.23 166.95 111.29
  C 174.81 122.51 175.36 134.06 174.63 147.51
  C 174.59 148.20 174.88 148.89 175.38 149.25
  A 1.26 1.25 48.3 0 1 175.26 151.37
  Q 149.16 165.85 123.41 181.36
  C 115.26 186.27 106.04 191.13 97.46 196.21
  Q 95.65 197.28 94.80 195.32
  C 91.37 187.46 87.91 180.23 85.35 171.98
  A 0.56 0.55 68.6 0 0 84.58 171.64
  L 83.93 171.94
  A 0.36 0.36 0.0 0 1 83.46 171.43
  L 84.31 169.97
  A 1.08 1.08 0.0 0 0 84.41 169.15
  Q 82.63 162.67 80.86 156.23
  Q 80.67 155.51 79.27 155.90
  A 0.14 0.14 0.0 0 1 79.11 155.69
  C 79.69 154.72 80.14 153.93 79.83 152.74
  Q 77.04 142.16 74.24 131.58
  Q 74.19 131.38 73.54 130.03
  C 73.13 129.18 73.43 128.46 73.18 127.65
  Q 68.18 111.06 64.13 94.21
  Q 64.10 94.06 63.53 92.50
  C 63.15 91.43 63.36 90.48 63.16 89.51
  Q 61.99 83.64 61.16 77.72
  Q 61.09 77.23 60.74 76.87
  Q 60.31 76.44 60.59 75.86
  Q 61.05 74.88 60.04 75.24
  Z
  M 59.74 13.65
  C 52.03 29.89 46.75 40.79 39.04 55.50
  Q 38.98 55.62 39.09 55.69
  L 39.10 55.70
  Q 39.21 55.76 39.32 55.59
  Q 53.74 33.80 66.99 11.27
  Q 68.13 9.32 65.96 9.94
  L 63.20 10.72
  Q 60.81 11.40 59.74 13.65
  Z
  M 57.64 32.40
  C 61.87 25.42 67.11 18.15 71.76 11.03
  Q 72.34 10.14 71.28 10.03
  L 70.95 10.00
  Q 70.02 9.90 69.56 10.72
  L 57.18 32.58
  Q 57.09 32.73 57.26 32.69
  Q 57.50 32.63 57.64 32.40
  Z
  M 74.58 15.52
  Q 75.22 13.13 77.47 11.97
  Q 78.23 11.57 77.39 11.38
  L 74.55 10.74
  Q 73.85 10.58 73.48 11.18
  L 71.57 14.22
  Q 71.19 14.82 71.83 15.14
  L 73.54 15.99
  A 0.74 0.74 0.0 0 0 74.58 15.52
  Z
  M 76.55 17.96
  L 81.74 13.36
  A 0.18 0.18 0.0 0 0 81.76 13.11
  L 81.73 13.07
  A 2.79 2.71 -41.5 0 0 77.84 12.89
  L 76.55 14.03
  A 2.79 2.71 -41.5 0 0 76.26 17.91
  L 76.29 17.94
  A 0.18 0.18 0.0 0 0 76.55 17.96
  Z
  M 86.48 15.13
  A 0.32 0.32 0.0 0 0 86.37 14.59
  L 83.33 13.48
  A 0.32 0.32 0.0 0 0 83.01 13.54
  L 78.30 17.74
  A 0.32 0.32 0.0 0 0 78.38 18.27
  L 81.45 19.59
  A 0.32 0.32 0.0 0 0 81.79 19.53
  L 86.48 15.13
  Z
  M 87.40 21.11
  A 0.27 0.27 0.0 0 1 86.98 21.00
  L 86.73 20.40
  A 0.27 0.27 0.0 0 1 86.81 20.09
  L 90.60 16.85
  A 0.27 0.27 0.0 0 0 90.53 16.39
  L 88.47 15.54
  A 0.27 0.27 0.0 0 0 88.20 15.58
  L 82.95 19.81
  A 0.27 0.27 0.0 0 0 83.02 20.27
  L 89.91 23.06
  A 0.27 0.27 0.0 0 0 90.22 22.98
  L 93.88 18.17
  A 0.27 0.27 0.0 0 0 93.78 17.77
  L 92.40 17.09
  A 0.27 0.27 0.0 0 0 92.11 17.12
  L 87.40 21.11
  Z
  M 91.95 23.04
  A 0.54 0.54 0.0 0 0 92.12 23.88
  L 93.54 24.57
  A 0.54 0.54 0.0 0 0 94.19 24.43
  L 97.59 20.34
  A 0.54 0.54 0.0 0 0 97.39 19.50
  L 96.04 18.92
  A 0.54 0.54 0.0 0 0 95.42 19.06
  L 91.95 23.04
  Z
  M 95.51 24.71
  A 0.36 0.36 0.0 0 0 95.65 25.29
  L 98.55 26.37
  A 0.36 0.36 0.0 0 0 98.94 26.28
  L 102.35 22.59
  A 0.36 0.36 0.0 0 0 102.25 22.03
  L 99.50 20.67
  A 0.36 0.36 0.0 0 0 99.08 20.75
  L 95.51 24.71
  Z
  M 103.39 60.61
  C 100.78 55.22 96.81 50.01 93.65 44.88
  A 1.54 1.54 0.0 0 1 94.59 42.58
  Q 101.93 40.76 109.29 38.63
  Q 111.45 38.01 112.76 36.87
  A 1.18 1.18 0.0 0 0 112.37 34.87
  Q 94.76 28.97 78.21 22.19
  C 74.29 20.59 71.22 20.31 69.32 24.57
  Q 61.85 41.30 53.39 56.89
  Q 52.90 57.79 53.84 57.37
  Q 62.63 53.40 70.34 49.90
  Q 71.53 49.36 72.43 49.59
  A 1.06 1.05 -61.6 0 1 72.94 51.32
  C 72.41 51.90 72.14 52.73 72.41 53.58
  C 82.86 85.44 90.97 117.98 101.86 149.69
  A 0.41 0.39 -25.7 0 0 102.46 149.89
  C 118.50 139.24 136.19 134.60 156.56 125.54
  A 0.40 0.40 0.0 0 0 156.70 124.91
  C 138.74 104.36 120.63 83.79 104.48 61.75
  Q 104.28 61.48 104.01 61.31
  Q 103.60 61.05 103.39 60.61
  Z
  M 100.35 26.43
  A 0.38 0.38 0.0 0 0 100.47 27.06
  L 102.97 28.09
  A 0.38 0.38 0.0 0 0 103.37 28.02
  L 106.68 25.00
  A 0.38 0.38 0.0 0 0 106.62 24.39
  L 104.32 23.08
  A 0.38 0.38 0.0 0 0 103.88 23.13
  L 100.35 26.43
  Z
  M 40.56 76.77
  A 0.31 0.30 -64.4 0 1 40.43 76.39
  Q 42.88 70.61 46.04 65.18
  Q 50.51 57.51 52.07 54.22
  Q 59.19 39.20 65.39 24.35
  Q 66.09 22.68 65.10 24.19
  C 53.72 41.67 43.36 58.74 35.56 78.33
  A 0.13 0.13 0.0 0 0 35.71 78.51
  L 46.04 76.21
  Q 46.23 76.16 46.29 75.97
  Q 48.52 68.27 53.10 61.69
  Q 53.26 61.46 53.02 61.31
  L 51.70 60.52
  A 0.44 0.43 -56.1 0 0 51.12 60.64
  Q 45.46 68.18 41.43 76.69
  A 0.46 0.46 0.0 0 1 40.79 76.90
  L 40.56 76.77
  Z
  M 105.14 28.12
  A 0.45 0.45 0.0 0 0 105.24 28.90
  L 108.10 30.06
  A 0.45 0.45 0.0 0 0 108.56 29.99
  L 111.34 27.67
  A 0.45 0.45 0.0 0 0 111.27 26.93
  L 108.89 25.67
  A 0.45 0.45 0.0 0 0 108.41 25.71
  L 105.14 28.12
  Z
  M 110.47 30.43
  A 0.34 0.34 0.0 0 0 110.57 30.97
  L 112.62 31.91
  A 0.34 0.34 0.0 0 0 113.03 31.81
  L 114.94 29.40
  A 0.34 0.34 0.0 0 0 114.82 28.88
  L 113.03 28.00
  A 0.34 0.34 0.0 0 0 112.63 28.08
  L 110.47 30.43
  Z
  M 119.64 34.70
  A 0.27 0.27 0.0 0 1 119.81 34.95
  L 119.80 36.00
  A 0.27 0.27 0.0 0 0 120.26 36.19
  L 122.53 33.81
  A 0.27 0.27 0.0 0 0 122.47 33.39
  L 116.55 29.97
  A 0.27 0.27 0.0 0 0 116.20 30.04
  L 114.53 32.21
  A 0.27 0.27 0.0 0 0 114.64 32.62
  L 119.64 34.70
  Z
  M 128.46 38.93
  A 0.51 0.50 33.5 0 1 128.62 39.70
  L 109.59 62.65
  Q 109.53 62.73 109.59 62.81
  L 111.58 65.34
  A 0.20 0.19 40.7 0 0 111.90 65.32
  C 117.70 55.81 122.17 49.90 127.93 44.66
  Q 128.32 44.31 128.41 43.79
  L 129.45 37.99
  A 0.81 0.80 -70.1 0 0 129.06 37.15
  L 125.26 34.96
  Q 124.74 34.66 124.37 35.14
  L 106.66 58.54
  Q 106.45 58.82 106.66 59.09
  L 108.73 61.73
  Q 109.04 62.13 109.31 61.70
  C 114.90 52.79 119.80 45.27 127.43 38.83
  A 0.63 0.62 -51.4 0 1 128.12 38.75
  L 128.46 38.93
  Z
  M 112.92 41.29
  Q 112.93 42.55 111.98 43.51
  Q 107.36 48.22 103.54 53.28
  Q 102.94 54.07 103.52 54.88
  L 104.98 56.91
  Q 105.52 57.66 106.03 56.89
  L 118.62 37.88
  Q 118.88 37.50 118.47 37.71
  L 112.80 40.61
  A 0.18 0.07 -24.2 0 0 112.67 40.74
  Q 112.72 40.88 112.81 40.98
  Q 112.91 41.12 112.92 41.29
  Z
  M 111.06 41.28
  C 106.21 43.11 101.22 43.09 99.48 48.63
  A 1.07 1.06 -54.4 0 0 99.63 49.57
  L 101.89 52.71
  Q 102.19 53.12 102.49 52.72
  L 111.19 41.45
  Q 111.43 41.14 111.06 41.28
  Z
  M 34.64 78.01
  C 38.56 65.34 44.64 53.18 51.61 41.90
  Q 51.71 41.74 51.55 41.64
  L 51.55 41.63
  Q 51.39 41.53 51.28 41.69
  C 43.32 53.34 34.64 64.66 31.43 78.61
  A 0.50 0.50 0.0 0 0 32.02 79.21
  L 33.76 78.82
  Q 34.44 78.67 34.64 78.01
  Z
  M 98.85 47.40
  L 99.79 45.46
  Q 100.07 44.88 99.45 45.02
  L 97.48 45.45
  A 0.55 0.55 0.0 0 0 97.16 46.31
  L 98.02 47.48
  Q 98.50 48.13 98.85 47.40
  Z
  M 127.68 48.46
  A 0.32 0.32 0.0 0 0 127.12 48.19
  L 122.46 53.80
  A 0.32 0.32 0.0 0 0 122.82 54.31
  L 126.72 52.81
  A 0.32 0.32 0.0 0 0 126.92 52.57
  L 127.68 48.46
  Z
  M 56.34 73.01
  Q 56.23 72.66 56.25 72.39
  Q 56.27 72.10 56.53 71.79
  C 60.83 66.86 63.99 61.25 67.38 55.94
  Q 68.06 54.88 66.91 55.40
  L 62.77 57.28
  Q 62.42 57.44 62.48 57.82
  Q 62.52 58.08 62.54 58.33
  Q 62.57 58.73 62.34 59.13
  Q 58.12 66.63 53.02 73.78
  A 0.25 0.24 -74.8 0 0 53.24 74.17
  Q 54.81 74.03 56.20 73.33
  A 0.27 0.26 -21.6 0 0 56.34 73.01
  Z
  M 61.77 71.58
  Q 62.68 72.36 63.06 71.54
  Q 66.91 63.23 70.55 58.39
  Q 71.14 57.61 70.89 56.66
  L 70.71 55.95
  Q 70.44 54.94 69.86 55.81
  C 66.14 61.43 61.82 68.56 56.52 72.86
  Q 56.41 72.95 56.43 73.00
  Q 56.48 73.13 56.53 73.26
  A 0.13 0.13 0.0 0 0 56.70 73.33
  L 61.21 71.50
  A 0.55 0.53 -35.9 0 1 61.77 71.58
  Z
  M 48.00 75.75
  L 49.87 75.22
  Q 51.04 74.90 51.63 73.84
  C 54.61 68.51 57.43 63.33 61.27 58.52
  Q 61.76 57.90 61.00 58.15
  C 58.54 58.96 56.71 59.60 55.14 61.84
  Q 51.26 67.39 47.40 75.03
  Q 46.87 76.07 48.00 75.75
  Z
  M 62.83 73.92
  A 0.31 0.31 0.0 0 0 62.79 74.14
  L 64.01 80.10
  A 0.31 0.31 0.0 0 0 64.57 80.20
  L 73.31 66.44
  A 0.31 0.31 0.0 0 0 73.35 66.20
  L 71.76 60.08
  A 0.31 0.31 0.0 0 0 71.19 60.00
  L 62.83 73.92
  Z
  M 117.02 68.70
  A 0.25 0.25 0.0 0 1 116.63 68.71
  L 116.29 68.32
  A 0.25 0.25 0.0 0 1 116.27 68.04
  L 119.35 62.68
  A 0.25 0.25 0.0 0 0 119.34 62.41
  L 117.65 60.04
  A 0.25 0.25 0.0 0 0 117.25 60.03
  L 112.41 66.02
  A 0.25 0.25 0.0 0 0 112.41 66.34
  L 118.92 74.42
  A 0.25 0.25 0.0 0 0 119.33 74.39
  L 123.21 67.58
  A 0.25 0.25 0.0 0 0 123.19 67.30
  L 120.67 64.24
  A 0.25 0.25 0.0 0 0 120.28 64.25
  L 117.02 68.70
  Z
  M 30.15 78.91
  C 30.78 74.35 31.82 70.26 33.72 66.07
  Q 33.79 65.93 33.65 65.86
  L 33.64 65.86
  Q 33.54 65.80 33.47 65.93
  L 25.69 79.72
  Q 25.39 80.26 26.00 80.16
  L 29.45 79.63
  A 0.84 0.84 0.0 0 0 30.15 78.91
  Z
  M 64.64 82.69
  A 0.30 0.30 0.0 0 0 64.60 82.93
  L 65.37 86.57
  A 0.30 0.30 0.0 0 0 65.91 86.67
  L 74.89 72.91
  A 0.30 0.30 0.0 0 0 74.94 72.69
  L 74.38 69.66
  A 0.30 0.30 0.0 0 0 73.84 69.54
  L 64.64 82.69
  Z
  M 120.03 75.25
  A 0.32 0.32 0.0 0 0 120.05 75.62
  L 122.24 78.37
  A 0.32 0.32 0.0 0 0 122.76 78.34
  L 126.65 72.10
  A 0.32 0.32 0.0 0 0 126.63 71.73
  L 124.62 69.16
  A 0.32 0.32 0.0 0 0 124.10 69.18
  L 120.03 75.25
  Z
  M 127.22 82.23
  A 0.36 0.36 0.0 0 1 127.07 81.82
  Q 127.96 78.83 129.82 76.35
  Q 130.26 75.77 129.77 75.23
  L 128.51 73.85
  Q 127.96 73.25 127.48 73.91
  L 123.53 79.37
  Q 123.37 79.60 123.55 79.82
  L 128.68 85.99
  Q 128.87 86.22 129.06 85.99
  L 133.55 80.40
  Q 133.88 79.99 133.53 79.59
  L 131.41 77.26
  Q 130.94 76.75 130.59 77.35
  L 127.61 82.37
  Q 127.56 82.45 127.49 82.40
  L 127.22 82.23
  Z
  M 65.95 88.79
  A 0.32 0.32 0.0 0 0 65.91 89.05
  L 67.22 94.33
  A 0.32 0.32 0.0 0 0 67.80 94.42
  L 76.89 80.18
  A 0.32 0.32 0.0 0 0 76.93 79.92
  L 75.81 75.61
  A 0.32 0.32 0.0 0 0 75.24 75.51
  L 65.95 88.79
  Z
  M 130.01 87.12
  A 0.31 0.31 0.0 0 0 130.00 87.51
  L 132.80 91.19
  A 0.31 0.31 0.0 0 0 133.30 91.18
  L 137.77 84.66
  A 0.31 0.31 0.0 0 0 137.75 84.28
  L 135.23 81.50
  A 0.31 0.31 0.0 0 0 134.76 81.51
  L 130.01 87.12
  Z
  M 67.87 96.56
  A 0.33 0.33 0.0 0 0 67.82 96.82
  L 68.71 100.44
  A 0.33 0.33 0.0 0 0 69.30 100.55
  L 78.85 87.02
  A 0.33 0.33 0.0 0 0 78.90 86.74
  L 77.75 82.80
  A 0.33 0.33 0.0 0 0 77.16 82.71
  L 67.87 96.56
  Z
  M 142.15 90.73
  C 140.41 92.45 138.90 93.23 137.67 95.86
  Q 137.38 96.47 137.81 96.99
  L 140.26 99.96
  A 0.50 0.50 0.0 0 0 141.10 99.84
  Q 142.75 96.21 145.52 93.36
  A 0.62 0.62 0.0 0 0 145.52 92.51
  L 139.78 86.47
  Q 138.98 85.63 138.28 86.55
  L 134.58 91.41
  A 1.43 1.42 44.0 0 0 134.62 93.19
  L 136.19 95.07
  Q 136.56 95.52 136.84 95.01
  C 137.69 93.48 139.71 89.84 141.92 90.06
  Q 142.76 90.14 142.15 90.73
  Z
  M 69.42 102.76
  A 0.32 0.32 0.0 0 0 69.37 103.04
  L 70.53 107.31
  A 0.32 0.32 0.0 0 0 71.11 107.40
  L 80.94 92.64
  A 0.32 0.32 0.0 0 0 80.93 92.28
  L 79.39 90.14
  A 0.32 0.32 0.0 0 0 78.88 90.13
  L 69.42 102.76
  Z
  M 144.21 103.58
  C 145.74 100.80 146.72 98.80 149.64 97.81
  Q 150.22 97.62 149.81 97.18
  L 147.37 94.54
  A 0.58 0.57 41.6 0 0 146.48 94.59
  L 142.01 100.83
  A 0.97 0.97 0.0 0 0 142.04 101.99
  L 143.33 103.65
  Q 143.82 104.29 144.21 103.58
  Z
  M 71.29 109.90
  A 0.34 0.34 0.0 0 0 71.24 110.18
  L 72.21 113.55
  A 0.34 0.34 0.0 0 0 72.82 113.65
  L 82.48 100.05
  A 0.34 0.34 0.0 0 0 82.53 99.76
  L 81.43 95.82
  A 0.34 0.34 0.0 0 0 80.82 95.72
  L 71.29 109.90
  Z
  M 145.06 103.98
  A 0.63 0.63 0.0 0 0 144.93 104.70
  L 146.13 107.26
  A 0.63 0.63 0.0 0 0 147.21 107.37
  L 152.41 100.39
  A 0.63 0.63 0.0 0 0 152.34 99.56
  L 151.40 98.65
  A 0.63 0.63 0.0 0 0 150.52 98.65
  L 145.06 103.98
  Z
  M 147.89 108.50
  A 0.39 0.39 0.0 0 0 147.88 109.01
  L 150.26 111.86
  A 0.39 0.39 0.0 0 0 150.88 111.83
  L 156.42 103.92
  A 0.39 0.39 0.0 0 0 156.36 103.41
  L 154.58 101.76
  A 0.39 0.39 0.0 0 0 154.03 101.78
  L 147.89 108.50
  Z
  M 72.94 115.69
  A 0.33 0.33 0.0 0 0 72.88 115.97
  L 73.75 119.34
  A 0.33 0.33 0.0 0 0 74.35 119.44
  L 83.93 105.06
  A 0.33 0.33 0.0 0 0 83.98 104.80
  L 83.45 102.60
  A 0.33 0.33 0.0 0 0 82.87 102.48
  L 72.94 115.69
  Z
  M 151.39 112.90
  A 0.31 0.31 0.0 0 0 151.39 113.30
  L 153.75 115.97
  A 0.31 0.31 0.0 0 0 154.24 115.94
  L 159.94 107.23
  A 0.31 0.31 0.0 0 0 159.88 106.81
  L 157.97 105.33
  A 0.31 0.31 0.0 0 0 157.54 105.37
  L 151.39 112.90
  Z
  M 74.87 120.64
  A 1.75 1.74 58.0 0 0 74.55 122.05
  L 75.20 125.22
  A 0.41 0.41 0.0 0 0 75.93 125.37
  Q 79.32 120.69 82.88 116.15
  Q 84.23 114.42 86.20 113.59
  Q 86.64 113.40 86.49 112.94
  L 85.08 108.56
  A 0.62 0.61 54.3 0 0 84.00 108.38
  L 74.87 120.64
  Z
  M 157.57 119.53
  Q 158.97 114.72 162.65 111.38
  Q 163.24 110.84 162.71 110.23
  L 162.04 109.48
  Q 161.51 108.87 161.01 109.52
  L 155.45 116.76
  Q 154.94 117.42 155.47 118.05
  L 156.80 119.68
  A 0.45 0.44 33.5 0 0 157.57 119.53
  Z
  M 166.89 116.37
  A 0.49 0.49 0.0 0 0 166.88 115.82
  L 164.64 112.58
  A 0.49 0.49 0.0 0 0 163.84 112.57
  L 158.12 120.63
  A 0.49 0.49 0.0 0 0 158.14 121.23
  L 160.86 124.47
  A 0.49 0.49 0.0 0 0 161.65 124.43
  L 166.89 116.37
  Z
  M 77.78 131.75
  C 80.44 126.95 83.46 122.20 87.72 118.76
  A 0.74 0.73 62.7 0 0 87.97 117.96
  L 87.06 114.94
  Q 86.90 114.41 86.54 114.82
  L 76.22 126.71
  Q 75.81 127.18 75.98 127.77
  L 77.09 131.67
  A 0.38 0.38 0.0 0 0 77.78 131.75
  Z
  M 168.05 118.80
  L 159.31 137.04
  Q 159.26 137.16 159.31 137.19
  L 159.32 137.19
  Q 159.48 137.28 159.58 137.10
  Q 163.81 129.80 169.99 124.06
  Q 170.45 123.63 170.22 123.04
  L 168.61 118.82
  Q 168.36 118.15 168.05 118.80
  Z
  M 89.98 124.91
  A 0.33 0.33 0.0 0 0 90.03 124.62
  L 88.74 120.35
  A 0.33 0.33 0.0 0 0 88.16 120.25
  L 77.83 133.68
  A 0.33 0.33 0.0 0 0 77.77 133.97
  L 78.98 138.47
  A 0.33 0.33 0.0 0 0 79.56 138.59
  L 89.98 124.91
  Z
  M 156.41 156.89
  A 0.46 0.45 -70.6 0 1 156.08 156.19
  Q 163.98 143.51 168.62 134.15
  Q 169.66 132.03 171.34 131.55
  Q 171.76 131.43 171.69 131.00
  L 170.98 126.22
  A 0.27 0.26 -32.8 0 0 170.49 126.12
  Q 159.29 143.26 149.57 161.29
  A 0.33 0.33 0.0 0 0 150.03 161.73
  L 163.53 154.09
  A 2.20 2.17 86.6 0 0 164.51 152.97
  L 170.00 139.40
  Q 170.22 138.86 170.74 138.58
  C 172.34 137.72 171.82 135.03 171.54 133.55
  Q 171.45 133.05 171.28 133.54
  Q 170.19 136.77 168.42 139.66
  Q 163.07 148.41 157.13 156.79
  Q 157.02 156.95 156.83 156.93
  L 156.41 156.89
  Z
  M 88.31 131.38
  A 0.31 0.31 0.0 0 1 88.55 131.24
  L 90.22 131.12
  A 0.31 0.31 0.0 0 1 90.49 131.61
  L 80.94 145.10
  A 0.31 0.31 0.0 0 0 80.89 145.36
  L 82.00 149.23
  A 0.31 0.31 0.0 0 0 82.56 149.31
  L 92.82 133.33
  A 0.31 0.31 0.0 0 0 92.85 133.07
  L 90.94 127.34
  A 0.31 0.31 0.0 0 0 90.40 127.24
  L 79.59 140.22
  A 0.31 0.31 0.0 0 0 79.53 140.51
  L 80.27 143.02
  A 0.31 0.31 0.0 0 0 80.83 143.10
  L 88.31 131.38
  Z
  M 137.92 166.66
  C 146.38 154.92 152.57 141.52 159.24 128.72
  Q 159.47 128.28 158.98 128.34
  Q 156.62 128.65 155.80 129.82
  Q 146.76 142.65 134.66 164.66
  Q 131.58 170.27 127.98 174.24
  Q 126.32 176.08 128.38 174.69
  C 130.70 173.13 133.79 171.75 135.65 169.56
  Q 136.84 168.15 137.92 166.66
  Z
  M 114.30 183.13
  A 0.30 0.30 0.0 0 0 114.73 183.54
  L 127.66 174.08
  A 0.30 0.30 0.0 0 0 127.74 173.98
  L 150.43 132.08
  A 0.30 0.30 0.0 0 0 150.00 131.69
  L 147.41 133.35
  A 0.30 0.30 0.0 0 0 147.33 133.43
  L 114.30 183.13
  Z
  M 141.21 135.87
  C 126.45 151.02 114.27 168.30 105.78 187.57
  A 0.34 0.34 0.0 0 0 106.25 188.01
  L 111.34 185.34
  A 1.58 1.58 0.0 0 0 112.01 184.67
  C 118.51 171.85 126.84 160.22 134.62 148.19
  C 137.03 144.45 139.07 140.04 141.51 136.11
  A 0.19 0.19 0.0 0 0 141.21 135.87
  Z
  M 94.61 142.63
  C 91.20 144.08 86.77 152.82 84.68 156.03
  Q 84.10 156.93 84.38 157.95
  L 85.10 160.58
  Q 85.30 161.30 85.71 160.67
  L 95.96 145.13
  A 2.44 2.41 52.2 0 0 96.22 142.99
  L 94.07 136.82
  Q 93.58 135.43 92.76 136.65
  L 83.09 150.86
  Q 82.67 151.49 82.84 152.23
  L 83.47 154.88
  A 0.32 0.32 0.0 0 0 84.06 154.96
  C 86.47 150.76 89.72 144.12 93.26 141.39
  A 0.97 0.97 0.0 0 1 94.53 141.47
  L 94.79 141.72
  Q 95.38 142.31 94.61 142.63
  Z
  M 130.26 139.67
  L 126.28 141.21
  Q 125.82 141.39 125.54 141.79
  Q 109.64 164.53 95.12 188.16
  A 0.81 0.80 41.5 0 0 95.18 189.10
  Q 96.28 190.43 98.03 190.52
  Q 98.54 190.55 98.70 190.06
  C 102.32 178.95 107.72 170.60 115.01 159.88
  Q 122.17 149.35 130.59 140.16
  Q 131.47 139.21 130.26 139.67
  Z
  M 167.15 152.10
  L 170.81 150.03
  A 0.89 0.88 75.6 0 0 171.25 149.28
  Q 171.28 145.90 171.52 141.99
  Q 171.53 141.83 171.38 141.80
  Q 171.37 141.80 171.29 141.98
  L 166.82 151.80
  Q 166.51 152.46 167.15 152.10
  Z
  M 156.43 142.10
  C 151.70 149.50 147.32 156.61 141.86 163.53
  C 140.82 164.84 138.87 166.77 137.56 168.52
  Q 136.79 169.55 137.89 168.90
  L 147.02 163.48
  A 1.80 1.77 -5.4 0 0 147.78 162.58
  Q 151.64 152.14 156.68 142.21
  Q 156.72 142.12 156.61 142.06
  L 156.61 142.06
  Q 156.50 141.99 156.43 142.10
  Z
  M 120.82 143.51
  C 119.03 143.80 116.33 145.13 115.29 146.69
  C 107.66 158.08 99.00 168.68 92.66 181.24
  Q 92.13 182.28 92.61 183.35
  L 93.99 186.45
  Q 94.47 187.54 94.97 186.46
  C 101.97 171.50 110.35 156.64 121.04 143.90
  Q 121.45 143.41 120.82 143.51
  Z
  M 85.83 161.76
  A 0.35 0.35 0.0 0 0 85.76 162.02
  L 86.17 164.69
  A 0.35 0.35 0.0 0 0 86.80 164.83
  L 98.06 148.46
  A 0.35 0.35 0.0 0 0 98.09 148.12
  L 97.45 146.76
  A 0.35 0.35 0.0 0 0 96.85 146.70
  L 85.83 161.76
  Z
  M 92.00 179.81
  C 97.88 167.62 104.89 158.24 112.28 147.82
  Q 112.56 147.43 112.08 147.51
  Q 109.55 147.94 108.32 149.57
  C 102.07 157.90 96.31 166.53 90.25 174.77
  Q 89.74 175.46 90.03 176.28
  L 91.25 179.77
  A 0.41 0.41 0.0 0 0 92.00 179.81
  Z
  M 100.27 154.15
  A 0.31 0.31 0.0 0 1 100.03 153.95
  L 99.24 151.70
  A 0.31 0.31 0.0 0 0 98.69 151.62
  L 87.27 167.72
  A 0.31 0.31 0.0 0 0 87.23 168.00
  L 89.01 173.33
  A 0.31 0.31 0.0 0 0 89.56 173.40
  L 101.80 154.83
  A 0.31 0.31 0.0 0 0 101.58 154.36
  L 100.27 154.15
  Z
  M 102.01 185.48
  Q 100.96 187.72 100.21 189.58
  Q 99.81 190.60 100.83 190.22
  L 102.93 189.44
  Q 103.94 189.06 104.29 188.03
  C 108.10 176.63 114.72 165.98 121.37 156.08
  A 0.08 0.08 0.0 0 0 121.24 155.98
  Q 109.68 169.22 102.01 185.48
  Z"
/>
</svg>
