<?xml version="1.0" encoding="UTF-8" standalone="no"?>
<!DOCTYPE svg PUBLIC "-//W3C//DTD SVG 1.1//EN" "http://www.w3.org/Graphics/SVG/1.1/DTD/svg11.dtd">
<svg xmlns="http://www.w3.org/2000/svg" version="1.1" viewBox="0.00 0.00 512.00 512.00">
<g fill="#0e0e0e">
<path d="
  M 268.21 246.49
  C 271.22 249.85 272.70 252.19 273.04 257.54
  C 273.13 258.88 272.54 259.91 272.07 261.10
  A 1.40 1.40 0.0 0 0 272.81 262.89
  C 274.90 263.81 275.35 265.94 276.43 267.65
  Q 276.56 267.85 276.36 267.97
  L 276.35 267.98
  Q 276.22 268.05 276.15 267.93
  Q 274.77 265.64 273.01 264.33
  Q 271.83 263.46 271.21 264.79
  L 271.06 265.12
  A 1.00 0.99 -61.1 0 0 271.42 266.38
  Q 273.78 267.90 274.91 270.33
  Q 276.58 273.92 279.90 272.52
  Q 280.34 272.34 280.81 272.42
  C 284.47 273.09 288.46 278.29 291.08 281.22
  C 292.89 283.24 295.03 285.66 294.67 288.57
  Q 294.37 290.99 294.63 293.20
  Q 294.69 293.66 295.13 293.78
  Q 296.42 294.15 297.33 294.89
  Q 306.72 302.45 306.98 314.76
  A 1.27 1.27 0.0 0 0 307.55 315.80
  C 311.41 318.37 315.04 322.69 315.66 327.49
  Q 317.25 339.80 312.03 350.96
  C 311.53 352.01 310.90 352.68 310.04 353.43
  Q 309.41 353.97 310.19 354.23
  Q 321.65 358.03 322.20 369.53
  C 322.31 371.85 323.18 373.58 322.87 375.93
  Q 322.01 382.38 320.64 387.36
  C 313.19 414.53 289.36 436.41 262.99 446.60
  C 258.36 448.40 251.59 450.37 245.73 451.67
  Q 224.94 456.28 202.27 457.65
  C 199.10 457.84 196.82 461.08 194.36 462.74
  Q 186.53 468.03 180.95 472.65
  Q 175.82 476.89 168.58 484.19
  Q 166.80 485.97 163.99 486.95
  C 158.08 488.99 152.22 489.02 145.70 488.28
  Q 111.84 484.43 83.16 466.42
  Q 74.37 460.90 67.05 452.84
  C 64.05 449.55 62.16 446.22 62.88 441.58
  Q 63.12 440.03 64.54 438.95
  Q 90.55 419.35 113.33 401.41
  Q 119.73 396.36 125.83 391.83
  Q 134.40 385.46 142.26 378.06
  C 146.13 374.41 151.45 376.11 156.08 375.50
  A 1.03 1.02 -4.1 0 0 156.97 374.48
  C 156.86 363.22 158.57 351.73 160.54 340.89
  Q 161.63 334.89 164.30 324.25
  Q 166.66 314.83 167.76 306.84
  C 168.72 299.94 168.88 292.75 169.63 285.77
  C 170.02 282.16 172.55 278.41 173.99 275.26
  A 0.55 0.55 0.0 0 0 173.51 274.48
  C 168.88 274.33 164.18 274.84 159.65 273.87
  Q 151.66 272.16 144.39 269.33
  C 128.07 262.96 113.37 248.05 109.12 230.69
  Q 107.20 222.88 106.88 211.85
  Q 106.30 191.74 116.09 174.35
  Q 120.55 166.43 128.25 159.75
  Q 137.07 152.09 146.06 147.77
  C 201.55 121.10 249.30 81.20 288.61 33.30
  Q 290.10 31.48 291.29 29.43
  C 293.92 24.88 297.53 20.66 303.05 19.50
  C 313.22 17.35 321.70 23.54 327.67 31.23
  Q 338.30 44.92 348.40 64.69
  Q 375.83 118.37 387.21 174.83
  Q 389.78 187.58 391.41 201.14
  Q 393.64 219.70 391.93 240.95
  Q 390.88 253.96 385.91 265.66
  C 382.60 273.45 374.27 279.76 365.92 273.87
  C 362.75 271.62 360.14 268.96 356.74 267.05
  Q 353.05 264.98 349.21 263.24
  Q 325.57 252.55 298.24 248.25
  Q 284.77 246.14 273.55 246.19
  C 271.79 246.20 270.21 245.76 268.48 245.84
  Q 267.67 245.88 268.21 246.49
  Z
  M 365.46 162.84
  C 365.83 171.90 365.03 188.94 351.15 186.35
  A 2.35 2.34 -57.4 0 0 349.34 186.75
  Q 338.38 194.70 329.36 205.93
  A 1.08 1.07 -40.4 0 0 329.26 207.11
  Q 340.69 228.14 352.97 245.47
  C 358.17 252.79 363.99 260.27 371.71 264.83
  A 1.54 1.53 35.8 0 0 373.66 264.52
  C 377.49 260.10 379.02 253.77 379.73 248.09
  Q 382.17 228.54 380.76 208.84
  Q 380.09 199.31 378.27 188.59
  Q 371.16 146.61 355.31 106.62
  Q 344.20 78.59 330.80 55.98
  Q 323.68 43.96 316.77 35.88
  Q 314.23 32.90 310.36 30.84
  C 304.51 27.72 300.89 34.29 299.81 39.01
  Q 297.44 49.40 297.01 60.49
  Q 296.23 80.31 297.25 98.84
  C 297.53 104.00 298.50 109.15 298.82 114.27
  A 0.95 0.95 0.0 0 0 299.70 115.16
  Q 313.91 116.27 327.71 113.88
  A 3.30 3.29 -75.0 0 0 329.66 112.75
  C 337.65 103.20 347.14 110.36 352.13 118.25
  C 360.37 131.29 364.84 147.96 365.46 162.84
  Z
  M 164.42 153.84
  Q 163.31 153.79 162.56 153.07
  Q 161.98 152.52 161.96 153.32
  Q 161.85 157.52 160.88 162.72
  Q 160.01 167.46 159.91 172.00
  C 159.56 187.79 163.10 202.83 170.12 217.49
  C 174.74 227.12 180.17 235.64 188.32 242.86
  C 190.78 245.04 194.66 244.23 197.78 244.37
  A 3.05 3.04 85.7 0 1 200.64 246.83
  C 202.34 255.47 203.67 265.10 206.89 273.35
  Q 209.99 281.32 211.54 286.22
  Q 215.35 298.26 214.55 311.73
  C 214.45 313.37 213.92 314.52 213.35 316.00
  Q 212.29 318.79 214.92 317.40
  Q 216.28 316.69 217.43 315.76
  Q 229.19 306.25 239.56 297.03
  C 242.84 294.11 246.52 292.05 249.58 288.58
  A 0.32 0.32 0.0 0 0 249.35 288.05
  C 246.90 287.95 241.49 289.01 240.65 285.68
  Q 238.80 278.32 243.47 275.23
  C 247.01 272.89 250.98 268.30 248.59 263.72
  Q 246.62 259.93 243.95 256.51
  C 241.29 253.11 236.80 251.36 232.92 249.41
  C 230.63 248.26 230.97 244.56 231.13 242.38
  Q 231.31 239.98 233.13 238.50
  C 236.29 235.93 240.06 236.74 243.78 236.24
  Q 245.96 235.94 248.17 236.09
  Q 250.09 236.22 252.72 235.82
  Q 262.36 234.35 273.30 234.81
  Q 287.35 235.41 293.83 236.12
  Q 314.06 238.33 336.01 246.06
  Q 338.24 246.85 340.07 247.83
  Q 341.52 248.61 340.57 247.27
  Q 306.78 199.63 292.90 142.55
  Q 286.36 115.65 285.42 85.83
  Q 285.27 81.23 285.42 76.19
  C 285.63 69.17 285.23 61.92 286.45 55.30
  Q 286.96 52.47 285.10 54.66
  Q 278.96 61.91 272.90 68.18
  C 240.80 101.31 205.07 130.07 165.28 150.83
  Q 164.64 151.16 164.93 151.83
  Q 165.19 152.45 165.18 153.13
  Q 165.16 153.88 164.42 153.84
  Z
  M 335.52 169.71
  Q 327.31 151.90 325.98 131.71
  Q 325.81 129.07 326.03 126.39
  A 0.79 0.79 0.0 0 0 325.10 125.54
  Q 314.28 127.46 302.18 126.54
  Q 300.87 126.44 301.13 127.73
  Q 307.92 161.93 323.19 194.73
  A 0.61 0.61 0.0 0 0 324.24 194.83
  C 328.54 188.82 335.05 183.20 340.75 179.14
  A 0.68 0.68 0.0 0 0 340.88 178.16
  Q 337.62 174.25 335.52 169.71
  Z
  M 170.82 250.55
  Q 172.99 250.08 175.08 250.13
  A 0.36 0.36 0.0 0 0 175.33 249.50
  C 172.17 246.74 169.91 243.09 167.41 239.75
  C 155.53 223.89 148.97 201.95 148.00 183.00
  Q 147.63 175.72 148.42 163.64
  C 148.49 162.60 149.02 161.50 149.24 160.47
  Q 149.43 159.58 148.69 160.11
  C 144.40 163.16 139.94 165.53 136.19 169.38
  Q 132.49 173.19 131.22 174.77
  Q 121.73 186.59 120.67 202.62
  Q 120.35 207.31 121.60 212.72
  Q 125.92 231.38 142.38 242.88
  Q 152.51 249.96 166.64 250.85
  Q 168.80 250.98 170.82 250.55
  Z
  M 158.59 403.00
  A 1.72 1.71 -4.9 0 1 157.05 401.71
  Q 155.98 397.46 155.01 393.57
  Q 154.36 390.95 151.82 389.36
  A 1.47 1.46 -60.3 0 0 149.75 389.93
  C 147.32 394.64 147.84 399.31 148.49 404.52
  C 149.90 415.79 153.28 429.32 160.30 438.31
  C 165.11 444.48 171.88 450.97 179.46 453.65
  Q 181.25 454.28 182.90 453.61
  Q 185.83 452.42 187.31 450.36
  A 0.93 0.93 0.0 0 0 186.89 448.94
  Q 184.68 448.11 183.03 445.77
  C 179.39 440.62 182.84 433.85 189.35 435.00
  C 194.28 435.87 199.30 436.31 204.36 436.08
  Q 209.97 435.83 214.75 435.17
  C 225.83 433.65 237.47 429.67 248.06 425.46
  Q 278.33 413.43 300.21 386.85
  C 303.40 382.97 307.48 376.49 308.34 371.25
  Q 308.99 367.28 304.70 366.52
  Q 300.69 365.81 297.72 368.70
  C 295.76 370.62 293.57 373.66 290.92 374.22
  Q 287.47 374.94 285.31 373.08
  Q 279.32 367.92 285.05 361.95
  C 289.56 357.25 294.84 353.12 298.20 347.56
  Q 302.14 341.05 303.62 334.26
  Q 304.42 330.60 301.58 328.67
  A 0.88 0.88 0.0 0 0 300.67 328.62
  Q 296.34 330.96 293.19 334.17
  Q 286.16 341.35 278.84 346.86
  Q 275.68 349.24 271.50 348.59
  C 268.98 348.19 268.09 345.83 267.54 343.70
  Q 266.81 340.88 268.93 338.66
  Q 277.97 329.18 288.08 320.31
  C 290.51 318.18 295.03 312.88 292.81 309.66
  Q 291.40 307.62 289.52 306.28
  A 1.71 1.70 -49.8 0 0 287.33 306.47
  C 283.33 310.52 280.65 314.73 276.14 318.50
  C 271.25 322.58 266.30 328.69 259.33 324.03
  Q 258.80 323.68 258.64 323.07
  C 257.94 320.34 257.77 316.57 259.97 314.35
  Q 268.40 305.88 276.86 297.54
  Q 279.72 294.72 281.05 290.92
  C 281.94 288.37 280.74 285.38 277.93 284.87
  Q 276.21 284.56 274.87 285.76
  C 272.74 287.68 270.25 288.78 268.15 290.88
  C 266.17 292.86 263.87 294.28 261.72 296.18
  Q 249.87 306.61 238.66 316.17
  C 229.76 323.77 221.43 330.50 210.89 337.20
  C 206.97 339.68 202.11 341.05 198.32 337.79
  C 196.72 336.41 196.31 334.03 196.89 332.07
  Q 199.73 322.44 201.30 312.58
  Q 201.87 308.98 201.60 304.81
  Q 201.31 300.22 200.60 296.52
  Q 198.62 286.22 191.30 277.55
  A 0.98 0.98 0.0 0 0 189.82 277.54
  C 185.64 282.28 181.97 287.26 181.60 293.70
  C 181.23 299.94 181.13 306.38 180.09 312.55
  C 179.18 317.95 178.41 322.89 176.94 328.44
  Q 172.40 345.57 170.60 359.91
  Q 168.89 373.60 169.27 395.49
  C 169.39 402.50 164.19 403.40 158.59 403.00
  Z"
/>
<path d="
  M 441.3614 48.1823
  A 5.66 5.66 0.0 0 1 440.8309 56.1692
  L 388.4177 102.0535
  A 5.66 5.66 0.0 0 1 380.4308 101.5230
  L 380.3386 101.4177
  A 5.66 5.66 0.0 0 1 380.8691 93.4308
  L 433.2823 47.5465
  A 5.66 5.66 0.0 0 1 441.2692 48.0770
  L 441.3614 48.1823
  Z"
/>
<path d="
  M 460.5692 120.1895
  A 5.57 5.57 0.0 0 1 457.0545 127.2390
  L 406.8692 144.0308
  A 5.57 5.57 0.0 0 1 399.8196 140.5160
  L 399.7308 140.2505
  A 5.57 5.57 0.0 0 1 403.2455 133.2010
  L 453.4308 116.4092
  A 5.57 5.57 0.0 0 1 460.4804 119.9240
  L 460.5692 120.1895
  Z"
/>
<path d="
  M 413.26 190.76
  C 411.59 187.99 413.48 184.49 416.18 183.38
  Q 417.57 182.80 421.07 182.45
  Q 446.38 179.91 467.72 183.57
  Q 469.23 183.83 470.59 185.14
  C 474.64 189.09 470.84 195.33 465.53 194.47
  Q 442.64 190.76 421.30 193.61
  C 417.69 194.09 415.47 194.41 413.26 190.76
  Z"
/>
</g>
</svg>
