<?xml version="1.0" encoding="UTF-8"?>
<svg id="Calque_1" data-name="Calque 1" xmlns="http://www.w3.org/2000/svg" viewBox="0 0 1920 1080">
  <defs>
    <style>
      .cls-1 {
        fill: #5b5a9d;
      }

      .cls-2 {
        fill: #c7bcd5;
      }

      .cls-3 {
        fill: #aba0da;
      }

      .cls-4 {
        fill: #e2dbe5;
      }

      .cls-5 {
        fill: #8f80c4;
      }

      .cls-6 {
        fill: #5e597e;
      }

      .cls-7 {
        fill: #c4b4cb;
      }

      .cls-8 {
        fill: #c9c4df;
      }

      .cls-9 {
        fill: #e5c7f1;
      }

      .cls-10 {
        fill: #dbd0dc;
      }

      .cls-11 {
        fill: #7f77bc;
      }

      .cls-12 {
        fill: #7873ae;
      }

      .cls-13 {
        fill: #6566a4;
      }

      .cls-14 {
        fill: #d2bfe7;
      }

      .cls-15 {
        fill: #e2e5e1;
      }

      .cls-16 {
        fill: #fefefe;
      }
    </style>
  </defs>
  <path class="cls-15" d="M.12,1028.91c18.08-9.68,37.5-15.98,56.96-22.06,32.11-10.03,64.47-19.21,96.9-28.15,60.04-16.56,120.36-32,180.76-47.15,16.06-4.03,32.14-8.01,48.19-12.08,4.28-1.08,8.62-.21,12.91-.6,.06,3.69,.12,7.39,.18,11.08-1.49,1.33-.92,3.11-.93,4.71-.04,14.16,.16,28.33-.12,42.49-.1,4.82,1.74,5.82,6.16,5.84,99.94,.51,199.89-1.36,299.83,.94,16.62,.38,33.18-2.24,49.82-.7,1.7,.16,3.57-.68,5.24-1.36,8.71-3.55,17.33-7.33,26.08-10.78,21.8-8.6,43.66-17.04,65.48-25.59,4.32-1.69,9.05-3.19,7.44-9.55,32.99-.01,65.98-.02,98.98-.04,39.66-.03,79.31-.07,118.97-.11,.33,3.03-1.06,6.21,3.58,7.99,27.29,10.51,54.4,21.51,81.65,32.13,8.72,3.4,16.99,8.24,26.92,8.03,20.6-.43,41.23-.7,61.82-.82,93.25-.53,186.5-.27,279.75-.16,4.69,0,6.48-1.18,6.35-6.14-.31-11.98-.08-23.97-.07-35.96,10.27,.91,20.14,3.85,30.13,6.11,44.87,10.17,89.75,20.37,134.53,30.93,54.84,12.93,109.54,26.45,163.59,42.36,19.22,5.66,38.76,10.84,56.25,21.26,.65,.39,1.61,.25,2.43,.35v4c-15.21,2.3-30.58,3.13-45.9,3.82-20.85,.95-41.75,1.8-62.61,1.96-35.05,.26-70.09,1.93-105.15,1.24-5.82-.11-11.64-.04-17.46,0-1.56,.01-3.52-.55-3.85,1.97h-554.94c-.8-3.32-3.51-1.9-5.36-1.92-47.61-.7-95.21,.44-142.83-.84-43.42-1.16-86.89,.15-130.33-1.17-28.44-.87-56.89,.52-85.36-.87-28.07-1.37-56.22,.38-84.35-1.02-26.91-1.34-53.89,.51-80.85-1.01-22.57-1.27-45.22,.37-67.85-1-21.57-1.3-43.22,.37-64.86-.98-20.73-1.29-41.56,.39-62.35-1.03-17.74-1.21-35.55,.3-53.36-.96-17.56-1.24-35.23,.33-52.86-1.06-13.9-1.1-27.88,.13-41.87-.91-15.39-1.15-30.9,.16-46.35-1.12-11.41-.94-22.9-.37-34.37-.82-22.56-.88-45.15-1.43-67.72-2.07-13.95-.4-27.9-1.1-41.85-1.48-7.6-.21-15.26-.25-22.87-.87-14.84-1.19-29.66-2.57-44.48-3.86v-2.97Z"/>
  <path class="cls-11" d="M400.86,207.91c.05-27.14,.1-54.28,.14-81.42,.04-33.8,.06-67.6,.08-101.4H1516.95c-.02,60.3-.04,120.6-.05,180.9,0,.66,.11,1.32,.17,1.99-10.67,.02-21.35,.05-32.02,.07-13.34,0-26.68,0-40.02,.02-.38-.03-.76-.05-1.14-.08-.85-1.08-2.06-.93-3.21-.93h-43.47c-1.15,0-2.36-.14-3.2,.94-.33,.02-.67,.03-1,.05-14.98,0-29.96,0-44.94,.02-.39-.03-.78-.05-1.17-.08-1.01-1.24-2.42-.92-3.71-.92-16.16,0-32.33,0-48.49,0-1.3,0-2.71-.29-3.7,.96-.32,.03-.64,.04-.95,.02h-58.24c-.63,0-1.25-.03-1.88-.04-1-1.24-2.41-.93-3.71-.93-15.82,0-31.65,0-47.47,0-1.3,0-2.71-.31-3.71,.93-.57,0-1.13,.03-1.7,.04-19.46,0-38.92,0-58.38,0-.33,0-.67-.02-1-.04-.99-1.25-2.4-.95-3.7-.95-16.16,0-32.32,0-48.49,0-1.3,0-2.71-.31-3.71,.93l-1.13,.07c-19.59,0-39.17,0-58.76,0-.41-.03-.81-.06-1.22-.09-.99-1.23-2.39-.92-3.68-.92-16.19,0-32.38,0-48.57,0-1.29,0-2.68-.27-3.66,.97-.3,.04-.6,.04-.91,0h-58.29c-.63,0-1.25-.03-1.88-.04-1-1.24-2.41-.93-3.71-.93-15.82,0-31.64,0-47.47,0-1.3,0-2.71-.31-3.71,.92-.44,.03-.88,.07-1.32,.1-19.55,0-39.1-.02-58.65-.03l-1.15-.08c-1.01-1.23-2.42-.92-3.71-.92-16.16,0-32.32,0-48.48,0-1.3,0-2.71-.29-3.7,.95-.33,.04-.65,.05-.98,.03-19.59,.02-39.18,.03-58.76,.05-.45-.04-.9-.07-1.34-.11-1-1.24-2.41-.92-3.71-.92-15.82,0-31.64,0-47.47,0-1.3,0-2.71-.31-3.71,.93-.62,0-1.24,.03-1.86,.04-15.94,.02-31.88,.04-47.81,.07-.47-.03-.95-.07-1.42-.1-.84-1.09-2.05-.95-3.2-.95h-42.48c-1.15,0-2.36-.15-3.21,.93-.4,.03-.79,.05-1.19,.08-20.78,.03-41.55,.06-62.33,.09-9.25-.09-18.5-.17-27.75-.26h.02ZM959.32,51.1H435.97c-4.58,0-6.87,2.36-6.88,7.07,0,39.15,.08,78.31-.11,117.46-.02,4.49,1.29,5.52,5.63,5.52,349.57-.1,699.13-.1,1048.7,.02,4.77,0,5.74-1.51,5.72-5.93-.16-39.15-.09-78.31-.09-117.46,0-4.45-2.26-6.67-6.78-6.67H959.32Z"/>
  <path class="cls-5" d="M1520.09,385.99c.7,.2,1.4,.4,2.11,.6l.38,.29c.14,2.31,.41,4.63,.41,6.94,.02,154.11,.02,308.21,.03,462.32,0,2.3-.46,4.68,.88,6.82-.33,6.03-4.22,6.58-9.02,5.99-8.89-1.1-17.83-.98-26.76-.98-15.76,0-31.52-.09-47.29-.15-1.55-1.48-3.49-.81-5.24-.81-70.06-.04-140.12-.04-210.18,0-1.75,0-3.68-.66-5.25,.79-17.4,.12-34.81,.72-52.18-.89,0-89.35,0-178.69-.06-268.04,0-1.91,.75-4.01-.82-5.73,.33-42.42,.66-84.85,.99-127.27,1.52-1.53,.84-3.47,.84-5.22,.06-22.78,.14-45.56-.03-68.35-.03-4.05,.98-5.46,5.24-5.39,14.96,.25,29.93,.1,44.9,.11,0,80.5-.01,161-.01,241.5,0,.83,.09,1.66,.13,2.49v1.96c-.05,58.63-.08,117.25-.24,175.88-.01,3.93,1.83,4.16,4.88,4.16,82.45-.05,164.91-.06,247.36,.03,3.55,0,4.94-.72,4.92-4.64-.16-41.81-.13-83.61-.16-125.42-.01-.67-.02-1.33-.03-2-.01-4.03-.02-8.06-.04-12.09,.01-69.26,.02-138.51,.03-207.77-.01-13.72-.03-27.44-.04-41.17v-23c-.01-3.6-.03-7.2-.04-10.8,14.77-.05,29.54-.1,44.31-.15h-.02Z"/>
  <path class="cls-10" d="M1532.98,940.89c-.01,11.99-.24,23.98,.07,35.96,.13,4.96-1.67,6.15-6.35,6.14-93.25-.11-186.5-.37-279.75,.16-20.59,.12-41.22,.39-61.82,.82-9.94,.21-18.2-4.63-26.92-8.03-27.25-10.62-54.36-21.62-81.65-32.13-4.64-1.79-3.25-4.97-3.58-7.99,.02-9.93,.04-19.87,.06-29.8,4-.41,8-.83,12-1.24,1.13,.23,2.3,.34,3.39,.7,20.14,6.62,40.34,13.06,60.37,20.02,9.06,3.15,18.08,4.59,27.72,4.57,116.56-.21,233.11-.14,349.67-.17,2.16,0,4.31-.19,6.47-.29,.11,3.76,.22,7.53,.33,11.29h-.01Z"/>
  <path class="cls-13" d="M1532.64,929.6c-2.16,.1-4.31,.29-6.47,.29-116.56,.02-233.11-.04-349.67,.17-9.64,.02-18.65-1.42-27.72-4.57-20.02-6.95-40.23-13.39-60.37-20.02-1.09-.36-2.26-.47-3.39-.7,3.83-7.24,6.36-14.58,6.19-23.16-.24-11.95-.83-23.83-2.17-35.68,17.67,4.96,35.28,10.16,53.03,14.79,8.29,2.16,16.36,5.28,24.97,6.19l.46,.02,.46-.02c17.37,1.61,34.78,1.01,52.18,.89,73.56,0,147.11,.02,220.67,.02,15.76,.05,31.52,.15,47.29,.15,8.94,0,17.88-.12,26.76,.98,4.81,.59,8.69,.04,9.02-5.99,1.62,1.4,3.12,2.99,4.89,4.15,3.3,2.17,4.34,5.11,3.91,8.89-.34,2.93,.42,5.93-.46,8.85-.43,.03-.86,.07-1.28,.1h-355.03c-.67,0-1.34,.07-2-.01-3.08-.39-4.01,1-3.99,4,.04,8.64-.19,17.28-.3,25.92-.01,.89,.7,.97,1.36,1.06,85.78,0,171.55,.01,257.33,.03,34.64,0,69.29,.05,103.93,.07,.91,4.5,.2,9.05,.41,13.58h-.01Zm-3.86-58.83v-.5h-364.61v.5h364.61Z"/>
  <path class="cls-12" d="M1530.94,884.95c.43-.03,.86-.07,1.28-.1,.72,10.39,.69,20.78,.02,31.17-34.64-.03-69.29-.07-103.93-.07-85.78-.02-171.55-.02-257.33-.03,0-7.83,.01-15.66,.02-23.48,0-4.33,2.15-6.49,6.46-6.49,115.76,0,231.53,0,347.29-.04,2.06,0,4.36,.84,6.18-.95h0Z"/>
  <path class="cls-11" d="M1520.09,385.99c-14.77,.05-29.54,.1-44.31,.15-82.55,0-165.1,.02-247.65,.03-2.66,0-5.32,.08-7.98,.13-17.37-.07-34.74-.14-52.11-.21,.67-4.32-1.42-5.23-5.4-5.14-16.45,.35-32.89-.04-49.34,.95-18.24,1.09-36.53-.27-54.84,.93-20.55,1.34-41.2-.31-61.83,1.04-19.39,1.27-38.86-.01-58.33,.91-23.39,1.11-46.87,.65-70.31,1.08-35.63,.65-71.28,.17-106.92,.17-17.4,.04-34.8,.07-52.19,.11h-255.62c-16.1-.02-32.2-.04-48.29-.06-3.22-.56-1.55-3.09-1.75-4.72-.25-2.09,.03-4.24,.08-6.36,4.93,1.72,9.84,3.48,14.79,5.15,4.82,1.63,5.56,1.09,5.99-4.07,1.83-.01,3.66-.04,5.5-.04h743.09c109.77,0,219.54,.03,329.32,.04-.85,1.61-1.29,3.11,.98,3.95h0c.72,1.19,1.45,.94,2.18,.02,5.31-.05,9.81-3.16,14.91-4,.02,3.31,.03,6.62,.05,9.93h-.02Z"/>
  <path class="cls-1" d="M1485.06,208.05c10.67-.02,21.35-.05,32.02-.07,9.73-2.07,14.26,2.16,17.82,11.43,19.32,50.27,53.72,89.3,94.21,123.56,.09,.4,.18,.79,.27,1.19-6.46,.08-12.93,.16-19.39,.24-.66-.1-1.31-.2-1.97-.31h-12.17c-1.02,.11-2.03,.22-3.05,.33-3.26,0-6.52-.02-9.78-.02-.38,.02-.76,.04-1.15,.06-9.97-.14-19.94-.28-29.91-.42-3.65-4.29-7.34-8.56-10.96-12.88-29.98-35.88-46.45-77.91-55.94-123.1h0Z"/>
  <path class="cls-12" d="M1595.85,344.09h12.17c-.09,.25-.18,.51-.25,.77-23.53,8.22-47.08,16.4-70.59,24.67-5.77,2.03-11.75,3.53-17.15,6.53-5.1,.84-9.59,3.95-14.91,4-.73,0-1.45-.01-2.18-.02h0c-.28-2.34,1.36-2.88,3.1-3.49,2.52-.89,5.33-1.3,7.01-3.77,2.33-.94,4.66-1.89,6.99-2.83l.48,.03,.46-.16c16.49-5.49,32.98-10.96,49.45-16.49,7.68-2.58,15.3-5.31,22.95-7.98,.69-.68,2.8,1.44,2.48-1.25h0Z"/>
  <path class="cls-8" d="M1607.78,344.86c.07-.26,.16-.51,.25-.77,.66,.1,1.31,.2,1.97,.31-.64,.64-1.41,.66-2.22,.46Z"/>
  <polygon class="cls-12" points="1522.57 386.88 1522.19 386.59 1522.5 386.56 1522.57 386.88"/>
  <path class="cls-8" d="M1629.39,344.16c-.09-.4-.18-.79-.27-1.19,.73,.25,.95,.62,.27,1.19Z"/>
  <path class="cls-5" d="M708.87,386.14c17.4-.04,34.8-.07,52.19-.11,.02,.35,.03,.7,.05,1.04-.05,16.01-.1,32.03-.15,48.05-1.54,1.53-.86,3.47-.86,5.22-.03,72.1-.03,144.19,.01,216.29,0,1.75-.69,3.69,.86,5.22,.62,28.6-.62,57.21,.92,85.82,.83,15.44,.16,30.97,.16,46.46,0,22.32,0,44.63,.04,66.95,0,2.12-.97,5.07,2.98,4.88-4.96,2.2-10.38,1.49-15.47,1.74-13.87,.66-27.8,.16-41.71,.12-1.56-1.46-3.49-.79-5.25-.79-62.74-.04-125.49-.04-188.23,0-1.75,0-3.69-.68-5.23,.84-32.69,.61-65.4-.89-98.06,1.14-4.89,.31-6.78-1.49-6.08-6.23,.09-2.33,.26-4.65,.26-6.98,.01-154.24,.01-308.49,0-462.73,0-2.32-.23-4.64-.35-6.96,16.1,.02,32.19,.04,48.29,.06-.04,30.28-.08,60.56-.11,90.84,.17,5.34-.9,10.74,.66,16.03l.08,.4c-.03,14.59-.06,29.19-.09,43.78-.22,.77-.64,1.55-.64,2.32,0,14.49,.05,28.97,.1,43.46-.03,21.06-.07,42.13-.1,63.19-.02,53.64,.02,107.28-.17,160.92-.02,4.91,1.43,6,6.15,5.99,81.3-.15,162.6-.15,243.9,0,4.73,0,6.16-1.1,6.14-6-.2-53.64-.15-107.28-.17-160.92,.03-75.28,.07-150.56,.1-225.83-.06-5.38-.13-10.75-.19-16.13,.02-2.4,.05-4.8,.07-7.21-.03-3.61-.07-7.23-.1-10.84v-.03Z"/>
  <path class="cls-13" d="M405.05,862.76c-.7,4.74,1.18,6.54,6.08,6.23,32.66-2.04,65.38-.54,98.06-1.14,66.23-.01,132.47-.03,198.7-.04,13.91,.04,27.84,.54,41.71-.12,5.09-.24,10.51,.46,15.47-1.74,8.92-1.05,17.31-4.22,25.9-6.53,16.07-4.31,32.05-8.96,48.07-13.47,.64,5.68-2.38,10.66-3.09,16.09-2.07,7.3-.56,14.74-.84,22.11-.11,2.85-1.1,5.94,.83,8.66,2.25,4.07,5.89,7.31,7.1,11.99-.96,.24-1.94,.42-2.87,.73-21.09,6.99-42.23,13.86-63.24,21.07-7.19,2.47-14.35,3.55-21.95,3.55-117.32-.11-234.63-.08-351.95-.08-2.33,0-4.66-.07-6.99-.11-.06-3.69-.12-7.39-.18-11.08,.13-.98,.25-1.95,.38-2.93,118.82,0,237.64,0,356.45,.01,1.81,0,3.63,.43,5.44,.4,1.23-.02,1.87,.13,1.52-2.19-1.37-9.05-.39-18.25-.59-27.39-.03-1.37,1.87-1.4,1.89-1.87H396.26c-.08-3.9-.18-7.8-.21-11.69-.01-1.41-.31-3.08,1.83-3.38,1.96,1.95,4.44,1.06,6.66,1.06,117.31,.05,234.63,.04,351.94,.04,1.33,0,3.09,.54,3.91-.11,1.54-1.21,3.22,3.43,3.72-.03,.23-1.59-2.44-.65-3.77-.82-1.47-.2-2.99-.05-4.49-.05H469.9c-24,0-47.99-.06-71.99-.09,1.29-3.46,4.73-4.76,7.14-7.08h0Z"/>
  <path class="cls-12" d="M396.26,884.91h364.69c-.02,.46-1.92,.5-1.89,1.87,.2,9.14-.78,18.34,.59,27.39,.35,2.31-.29,2.17-1.52,2.19-1.81,.03-3.62-.4-5.44-.4-118.82-.02-237.64-.01-356.45-.01,0-10.34,.02-20.69,.03-31.03h0Z"/>
  <path class="cls-1" d="M400.86,207.91c9.25,.09,18.5,.17,27.75,.26-7.08,34.35-18.48,67.05-37.03,97.04-8.58,13.88-19.06,26.28-29.54,38.7-9.62,.17-19.25,.35-28.87,.52-1.02-.13-2.04-.25-3.05-.38-4.74,.03-9.47,.06-14.21,.09h-15.62c-.49,.02-.98,.04-1.47,.05-4.87,.05-9.74,.1-14.61,.15l.02,.08c.91-2.9,3.59-4.18,5.63-6,22.24-19.86,43.3-40.84,60.64-65.23,13.44-18.9,24.22-39.24,31.88-61.16,1.14-3.25,2.64-4.39,6.03-4.14,4.13,.3,8.31,.03,12.46,0v.02Z"/>
  <path class="cls-12" d="M315.9,344.14c4.74-.03,9.47-.06,14.21-.09-.29,1.89,.93,1.77,2.17,1.64,10.21,3.44,20.4,6.94,30.64,10.31,13.37,4.4,26.77,8.68,40.16,13.02,2.47,1.62,5.26,2.36,8.11,2.9,4.29,1.39,8.58,2.78,12.88,4.17-.42,5.17-1.17,5.7-5.99,4.07-4.95-1.67-9.86-3.43-14.79-5.15-20.5-7.3-40.99-14.63-61.5-21.9-8.61-3.05-17.26-5.98-25.89-8.96h0Z"/>
  <polygon class="cls-12" points="284.22 344.43 284.2 344.35 283.84 344.43 284.22 344.43"/>
  <path class="cls-12" d="M298.81,344.2c.49-.02,.98-.04,1.47-.05-.48,.41-.97,.45-1.47,.05Z"/>
  <path class="cls-13" d="M1073.03,906.01c-.02,9.93-.04,19.87-.06,29.8-39.66,.04-79.31,.08-118.97,.11-32.99,.02-65.98,.03-98.98,.04,0-9.97-.02-19.93-.02-29.9,.01-69.08,.04-138.17,.04-207.25s-.03-143.16-.05-214.74h218.07c0,140.64-.02,281.29-.02,421.93h-.01Zm-2.03-165.05c1.2-3.2,1.45-6.47,.76-9.81,.07-3.31,.2-6.61,.21-9.92,.01-9.21-4.65-13.3-13.98-12.27-.33,.04-.66,.02-.99,.06-1.13,.12-1.96,.71-1.9,1.87,.32,6.03-1.12,12.15,.8,18.1-.32,.99-.63,1.98-.95,2.97-1.07-.1-2.31,.31-2.97-.99,0-34.27,.03-68.53,.02-102.8-.01-25.12-.07-50.23-.11-75.35,.05-.27,.03-.54-.05-.81,0-11.01-.01-22.02-.02-33.03,.02-1.83,.03-3.66,.07-5.49,.1-4.31-1.99-6.46-6.26-6.46h-159.35c-7.43,0-11.14,3.68-11.14,11.05,0,49.28,.02,98.56,.03,147.84-.04,.35-.08,.7-.12,1.05-.02,14.95-.06,29.9-.04,44.85,.04,24.08,.12,48.16,.18,72.24-.03,23.14-.01,46.27-.13,69.41-.01,2.97,.41,4.46,3.99,4.45,56.27-.11,112.53-.1,168.8,0,3.41,0,4.16-1.19,4.11-4.33-.17-11.65-.08-23.3-.09-34.95-.02-25.63-.07-51.27-.04-76.9,0-2.07-1.09-5.11,2.99-4.72,.2,1.21,.41,2.42,.61,3.63-2.29,16.42-.9,18.27,12.99,17.36,.5-.03,1-.02,1.49-.06,1.13-.1,2.03-.7,1.95-1.84-.35-5.04,1.26-10.2-.87-15.14h.01Zm-7.35-36.81c3.14-.03,5.19-1.52,5.28-4.71,.08-3.19-1.39-5.48-4.98-5.55-3.5-.07-5.39,2.03-5.37,5.21,.01,2.93,1.83,4.91,5.07,5.05Z"/>
  <path class="cls-10" d="M855,906.06c0,9.97,.02,19.93,.02,29.9,1.61,6.36-3.12,7.86-7.44,9.55-21.82,8.55-43.68,16.99-65.48,25.59-8.75,3.45-17.37,7.23-26.08,10.78-1.67,.68-3.55,1.51-5.24,1.36-16.64-1.54-33.2,1.08-49.82,.7-99.94-2.3-199.89-.43-299.83-.94-4.41-.02-6.25-1.02-6.16-5.84,.28-14.16,.08-28.33,.12-42.49,0-1.6-.56-3.37,.93-4.71,2.33,.04,4.66,.11,6.99,.11,117.32,0,234.63-.03,351.95,.08,7.6,0,14.76-1.08,21.95-3.55,21.02-7.21,42.15-14.08,63.24-21.07,.94-.31,1.91-.49,2.87-.73,3.99,.42,7.97,.84,11.96,1.26h.02Z"/>
  <path class="cls-13" d="M959.32,51.1h522.85c4.51,0,6.77,2.22,6.78,6.67,0,39.15-.06,78.31,.09,117.46,.02,4.42-.95,5.93-5.72,5.93-349.57-.12-699.13-.12-1048.7-.02-4.34,0-5.65-1.03-5.63-5.52,.18-39.15,.1-78.3,.11-117.46,0-4.71,2.29-7.07,6.88-7.07H959.32Zm-.9,125.99c172.14,0,344.28-.02,516.42,.11,5.02,0,6.4-1.17,6.37-6.3-.24-36.66-.2-73.32-.03-109.97,.02-4.49-1.04-5.9-5.76-5.89-344.61,.11-689.22,.11-1033.83,0-4.4,0-5.6,1.12-5.57,5.55,.18,36.49,.09,72.98,.11,109.47,0,7.84-.81,7.01,6.88,7.01,171.81,0,343.61,0,515.42,0v.02Z"/>
  <path class="cls-14" d="M362.03,343.91c10.48-12.42,20.96-24.82,29.54-38.7,18.55-29.99,29.94-62.69,37.03-97.04,20.78-.03,41.55-.06,62.33-.09-.63,6.92-1.1,13.85-1.91,20.75-2.02,17.18-4.75,34.26-11.46,50.33-9.76,23.36-24.42,43.76-39.6,63.8-3.12,.06-6.24,.01-9.35,.21-5.85,.36-11.76-.95-17.55,.74-2.7,.47-5.7-1.17-8.12,1.18-11.95-.02-23.89-.01-35.84-.1-1.72-.01-3.71,.76-5.07-1.08h0Z"/>
  <path class="cls-14" d="M542.44,208.11c15.94-.02,31.88-.04,47.81-.07-.04,45.02-.07,90.04-.11,135.06-28-.04-56-.08-84-.12,9.55-18.26,19.04-36.62,23.97-56.76,6.28-25.66,9.26-51.91,12.32-78.12h.01Z"/>
  <path class="cls-1" d="M1173.35,208.04c.57,0,1.13-.03,1.7-.04h54.89c.63,0,1.25,.03,1.88,.04,.03,45.02,.07,90.03,.1,135.05-6.2,2.07-12.6,.35-18.88,.99h-11.08c-5.14-.02-10.3,.12-15.43-.1-4.42-.19-8.94,1.02-13.24-.9,.03-45.01,.05-90.03,.08-135.04h-.02Z"/>
  <path class="cls-14" d="M998.17,208.08c19.59,0,39.17,0,58.76,0-.02,44.95-.05,89.91-.07,134.86-19.54-.02-39.07-.03-58.61-.05-.03-44.93-.05-89.87-.08-134.8Z"/>
  <path class="cls-14" d="M648.33,208.1c19.59-.02,39.18-.03,58.76-.05-.02,44.99-.04,89.98-.06,134.97-19.53,.05-39.07,.47-58.6-.21-.03-44.9-.06-89.81-.1-134.71h0Z"/>
  <path class="cls-14" d="M765.12,208.07c19.55,0,39.1,.02,58.65,.03-.03,44.91-.06,89.81-.09,134.72-19.49,.61-38.99,.39-58.49,.11-.02-44.95-.05-89.91-.07-134.86h0Z"/>
  <path class="cls-1" d="M1290.05,208.05c.32,.02,.64,0,.95-.02,18.63,0,37.27-.02,55.9-.04,.39,.03,.78,.05,1.17,.08,.03,44.95,.05,89.89,.08,134.84-1.08,1.45-2.68,1.1-4.13,1.11-16.79,.02-33.59,.02-50.38,0-1.3,0-2.7,.28-3.68-.98,.03-45,.05-89.99,.08-134.99h.01Z"/>
  <path class="cls-1" d="M998.17,208.08c.03,44.93,.05,89.87,.08,134.8-1.08,1.45-2.66,1.14-4.12,1.14-16.79,.01-33.59,.01-50.38,0-1.3,0-2.7,.29-3.69-.96,.03-45.01,.05-90.01,.08-135.02,.3,.03,.6,.03,.9,0,18.64,0,37.27-.03,55.91-.04,.41,.03,.81,.06,1.22,.09h0Z"/>
  <path class="cls-1" d="M823.68,342.82c.03-44.91,.06-89.81,.09-134.72,.44-.03,.88-.07,1.32-.1h54.88c.63,0,1.25,.03,1.88,.04,.03,45.02,.07,90.04,.1,135.05-.85,1.06-2.06,.93-3.21,.93h-50.94c-1.48,0-3.04,.21-4.11-1.21h-.01Z"/>
  <path class="cls-1" d="M1056.86,342.94c.02-44.95,.05-89.91,.07-134.86,.38-.02,.76-.05,1.13-.07,18.63,0,37.26,0,55.9,.02,.33,0,.67,.02,1,.04,.03,44.98,.06,89.97,.08,134.95-.96,1.29-2.36,1.02-3.66,1.02-16.96,.01-33.93,.01-50.89,0-1.31,0-2.7,.2-3.64-1.09h.01Z"/>
  <path class="cls-1" d="M765.12,208.07c.02,44.95,.05,89.91,.07,134.86-1.42,1.72-3.39,1.06-5.14,1.07-13.98,.07-27.96,.08-41.94,.1-3.64-.07-7.28-.14-10.93-.21-.01-.3-.06-.58-.16-.86,.02-44.99,.04-89.98,.06-134.97,.33,.02,.66,0,.98-.03,18.63,0,37.26-.02,55.89-.03,.38,.03,.76,.05,1.15,.08h.02Z"/>
  <path class="cls-1" d="M648.33,208.1c.03,44.9,.06,89.81,.09,134.71-1.23,1.58-2.99,1.21-4.62,1.21-16.48,.02-32.97,.02-49.45,0-1.44,0-3.04,.45-4.21-.91,.04-45.02,.07-90.04,.11-135.06,.62,0,1.24-.03,1.86-.04h54.88c.45,.04,.9,.07,1.34,.11v-.02Z"/>
  <path class="cls-14" d="M1348.16,342.92c-.03-44.95-.05-89.89-.08-134.84,14.98,0,29.96,0,44.94-.02,1.66,11.64,3.2,23.3,5.01,34.92,2.44,15.73,4.21,31.6,8.75,46.94,5.4,18.25,13.67,35.27,22.46,52.07-.76,1.14-1.93,1.16-3.11,1.16-25.99-.07-51.98-.15-77.96-.22h-.01Z"/>
  <path class="cls-14" d="M1290.05,208.05c-.03,45-.05,89.99-.08,134.99-19.36,.02-38.71,.04-58.07,.06-.03-45.02-.06-90.03-.1-135.05h58.25Z"/>
  <path class="cls-14" d="M1115.05,343.01c-.03-44.98-.06-89.97-.08-134.95,19.46,0,38.92,0,58.38,0-.02,45.01-.05,90.03-.08,135.04-19.41-.03-38.82-.05-58.22-.08h0Z"/>
  <path class="cls-14" d="M881.94,343.1c-.03-45.02-.06-90.04-.1-135.05h58.29c-.03,45.01-.05,90.01-.08,135.02-19.37,.01-38.74,.02-58.11,.03Z"/>
  <path class="cls-1" d="M542.44,208.11c-3.06,26.21-6.03,52.45-12.32,78.12-4.93,20.13-14.42,38.49-23.97,56.76-1.13,1.38-2.71,1.04-4.17,1.04-19.96,.01-39.92,.02-59.88,0-1.44,0-3.05,.45-4.13-1.05,15.18-20.04,29.84-40.43,39.6-63.8,6.71-16.07,9.44-33.15,11.46-50.33,.81-6.9,1.28-13.83,1.91-20.75,.4-.03,.79-.05,1.19-.08,16.3,0,32.59,0,48.89,0l1.42,.1v-.02Z"/>
  <path class="cls-1" d="M1429.23,341.98c-8.79-16.79-17.06-33.82-22.46-52.07-4.54-15.34-6.31-31.21-8.75-46.94-1.8-11.62-3.35-23.28-5.01-34.92,.33-.02,.67-.03,1-.05h49.88c.38,.03,.76,.05,1.14,.08,.65,7.28,1.1,14.58,1.98,21.83,2.66,21.85,6.96,43.23,17.7,62.87,9.68,17.7,21.02,34.27,33.3,50.23-.78,1.17-2,1.03-3.15,1.03-20.49,0-40.98-.02-61.48,.05-1.9,0-3.15-.65-4.15-2.1h0Z"/>
  <path class="cls-14" d="M1498.01,343c-12.28-15.96-23.61-32.53-33.3-50.23-10.74-19.64-15.04-41.01-17.7-62.87-.88-7.25-1.33-14.55-1.98-21.83,13.34,0,26.68,0,40.02-.02,9.49,45.2,25.96,87.22,55.94,123.1,3.61,4.33,7.3,8.59,10.96,12.88-1.47,1.65-3.42,.93-5.16,.95-8.8,.11-17.61,.11-26.41,.14-3.95-2.56-8.32-.62-12.46-1.2-3.18-1.64-6.65-.3-9.92-.93h.01Z"/>
  <path class="cls-5" d="M763.97,207.99c-18.63,0-37.26,.02-55.89,.03,.99-1.25,2.4-.95,3.7-.95,16.16,0,32.32,0,48.48,0,1.3,0,2.71-.31,3.71,.92Z"/>
  <path class="cls-5" d="M996.95,208c-18.64,0-37.27,.03-55.91,.04,.98-1.24,2.37-.97,3.66-.97,16.19,0,32.38,0,48.57,0,1.29,0,2.68-.3,3.68,.92h0Z"/>
  <path class="cls-5" d="M1113.96,208.02c-18.63,0-37.27,0-55.9-.02,1-1.24,2.41-.93,3.71-.93,16.16,0,32.32,0,48.49,0,1.3,0,2.71-.3,3.7,.95h0Z"/>
  <path class="cls-5" d="M1346.91,207.99c-18.63,0-37.27,.02-55.9,.04,.99-1.25,2.4-.96,3.7-.96,16.16,0,32.33,0,48.49,0,1.3,0,2.71-.31,3.71,.92h0Z"/>
  <path class="cls-5" d="M879.97,208.01h-54.88c1-1.24,2.41-.92,3.71-.92,15.82,0,31.64,0,47.47,0,1.3,0,2.71-.31,3.71,.93h-.01Z"/>
  <path class="cls-5" d="M646.99,208h-54.88c1-1.24,2.41-.93,3.71-.93,15.82,0,31.64,0,47.47,0,1.3,0,2.71-.31,3.71,.92h-.01Z"/>
  <path class="cls-5" d="M1229.93,208.01h-54.89c1-1.24,2.41-.93,3.71-.93,15.82,0,31.65,0,47.47,0,1.3,0,2.71-.31,3.71,.93h0Z"/>
  <path class="cls-5" d="M1443.9,208h-49.88c.84-1.08,2.05-.94,3.2-.94h43.47c1.15,0,2.36-.15,3.21,.93h0Z"/>
  <path class="cls-5" d="M541.01,208.01c-16.3,0-32.59,0-48.89,0,.85-1.08,2.06-.93,3.21-.93h42.48c1.16,0,2.36-.13,3.2,.95h0Z"/>
  <path class="cls-8" d="M1475.88,680.97c0,.67,.02,1.33,.03,2-1.23,1-.96,2.4-.96,3.7-.03,22.32-.19,44.63-.84,66.95-.47,16.08-.65,32.22,.36,48.33,.62,9.96,.3,9.98-9.3,9.98h-202.8c-12.32,0-24.64-.07-36.96,.05-3.06,.03-4.47-.61-4.46-4.1,.15-44.28,.16-88.57,.2-132.86,80.15-.02,160.3,0,240.45-.13,5.86,0,11.31-.18,14.28,6.08h0Z"/>
  <path class="cls-2" d="M1475.88,680.97c-2.97-6.26-8.42-6.09-14.28-6.08-80.15,.14-160.3,.12-240.45,.13-.09-12.54-.08-25.09-.43-37.62-.04-1.27,1.44-3.91-1.57-4.45v-1.96c3.06-2.2,.69-5.09,.71-7.53,.23-20.49,.13-40.98,.14-61.47,0-5.34,2.69-8.01,8.07-8.01,78.97,0,157.94,.01,236.91-.07,2.12,0,6.11,1.22,6.09-1.04-.02-3.28-3.95-1.82-6.14-1.83-77.97-.08-155.94-.07-233.91-.07-1.5,0-3-.02-4.5-.01-2.54,.02-3.45-1.35-3.55-3.77-.21-4.81,3.13-4.22,6.12-4.22h238.91c3.02,.06,5.26,.92,4.98,4.61-.11,1.48-.22,3.14,1.95,3.37,0,37.39,0,74.79,.05,112.18,0,1.91-.76,4.01,.85,5.71,.01,4.03,.02,8.06,.04,12.09v.04Z"/>
  <path class="cls-7" d="M1474.93,550.99c-2.18-.23-2.07-1.89-1.95-3.37,.28-3.69-1.96-4.55-4.98-4.61-.67-.01-1.33,0-2,0h-236.91c-2.99,0-6.33-.59-6.12,4.22,.11,2.42,1.01,3.78,3.55,3.77,1.5,0,3,.01,4.5,.01,77.97,0,155.94-.01,233.91,.07,2.18,0,6.12-1.46,6.14,1.83,.01,2.26-3.97,1.03-6.09,1.04-78.97,.08-157.94,.07-236.91,.07-5.38,0-8.07,2.67-8.07,8.01,0,20.49,.1,40.98-.14,61.47-.03,2.44,2.35,5.33-.71,7.53-.05-.83-.13-1.66-.13-2.49,0-80.5,0-161,.01-241.5,.32,0,.65-.01,.97-.02,0,31.66-.07,63.32,.05,94.97,.01,3.33-1.87,7.68,1.28,9.83,2.94,2.01,5.96-1.38,8.96-2.5,11.58-4.34,23.33-8.24,34.93-12.54,13.86-5.14,27.62-10.53,41.44-15.79,28.56-10.87,57.12-21.77,85.7-32.59,27.8-10.52,55.64-20.97,83.46-31.44v8.22c-4.6,1.91-9.19,3.85-13.81,5.71-32.33,13.05-64.7,26-96.99,39.14-33.19,13.51-66.28,27.25-99.44,40.81-12.38,5.06-24.77,10.11-37.33,14.7-3.44,1.26-3.9,3.31-3.09,5.78,1.19,3.65,3.83,.81,5.3,.26,40.61-15.06,81.16-30.3,121.73-45.47,41.2-15.41,82.43-30.77,123.64-46.15,.01,13.72,.03,27.44,.04,41.16-1.64,1.68-.87,3.79-.87,5.69-.06,28.06-.06,56.13-.07,84.19h0Z"/>
  <path class="cls-4" d="M1475.82,396.94c-27.82,10.48-55.66,20.92-83.46,31.44-28.58,10.82-57.14,21.71-85.7,32.59-13.82,5.26-27.58,10.66-41.44,15.79-11.6,4.3-23.35,8.2-34.93,12.54-3,1.12-6.02,4.51-8.96,2.5-3.14-2.15-1.26-6.5-1.28-9.83-.12-31.66-.06-63.31-.05-94.97,.06-.23,.11-.47,.15-.7,2.66-.04,5.32-.13,7.98-.13,82.55-.02,165.1-.02,247.65-.03,.01,3.6,.02,7.2,.04,10.8h0Z"/>
  <path class="cls-12" d="M1167.05,866.9c-8.6-.91-16.68-4.03-24.97-6.19-17.76-4.63-35.36-9.83-53.03-14.79,.36-19.09,.31-38.18,.66-57.27,.88-48.51,0-97.05,1.24-145.57,.32-12.79,.18-25.6,.26-38.4,.23-.77,.65-1.54,.66-2.31,.03-14.48,.01-28.96,0-43.44v-27.99c.51-23.89-.23-47.8,.89-71.68,4.15-1.7,8.31-3.41,12.46-5.11-.03,1-.1,2-.1,3-.02,64.8-.04,129.6-.05,194.4,0,1.49,.18,2.98,.27,4.48,0,.63,0,1.25-.01,1.88-.09,1.99-.26,3.98-.26,5.97-.02,26.28-.02,52.56-.03,78.83,0,22.12-.03,44.24,.02,66.36,0,2.07-1.09,5.06,2.89,4.91,.73,.32,1.43,.77,2.2,.95,13.62,3.28,27.25,6.53,40.88,9.79,4.38,.62,2.88-2.76,2.88-4.63,.06-29.81,.03-59.63-.02-89.44,0-1.62,.44-3.36-.78-4.8-.06-31.27-.12-62.54-.19-93.81,.06-.83,.16-1.66,.16-2.49,.03-60.08-.44-120.16,.74-180.24,.11-5.43,.98-10.97-.9-16.31,.37-.33,.75-.66,1.12-.99,5.11-.37,8.87-4.44,13.9-5.02,.05,12.96,.1,25.91,.15,38.87-.33,42.42-.66,84.85-.99,127.27-.01,91.25-.03,182.51-.04,273.76h-.01Z"/>
  <path class="cls-4" d="M1475.83,419.94c-41.21,15.38-82.44,30.74-123.64,46.15-40.57,15.17-81.11,30.42-121.73,45.47-1.47,.55-4.11,3.38-5.3-.26-.81-2.47-.35-4.52,3.09-5.78,12.55-4.59,24.95-9.64,37.33-14.7,33.17-13.56,66.26-27.3,99.44-40.81,32.29-13.15,64.66-26.09,96.99-39.14,4.62-1.86,9.21-3.81,13.81-5.71v14.79h.01Z"/>
  <path class="cls-7" d="M1219.15,632.96c3.01,.53,1.54,3.18,1.57,4.45,.35,12.53,.34,25.08,.43,37.62-.04,44.29-.06,88.57-.2,132.86-.01,3.49,1.4,4.13,4.46,4.1,12.32-.13,24.64-.05,36.96-.05h202.8c9.6,0,9.93-.02,9.3-9.98-1.01-16.11-.83-32.24-.36-48.33,.65-22.32,.81-44.63,.84-66.95,0-1.3-.27-2.7,.96-3.7,.02,41.81,0,83.61,.16,125.42,.02,3.92-1.37,4.64-4.92,4.64-82.45-.09-164.91-.08-247.36-.03-3.05,0-4.89-.23-4.88-4.16,.16-58.63,.19-117.25,.24-175.88h0Z"/>
  <path class="cls-3" d="M1167.05,866.9c.01-91.26,.02-182.51,.04-273.76,1.57,1.72,.82,3.82,.82,5.73,.05,89.35,.05,178.69,.06,268.04l-.46,.02-.46-.02h0Z"/>
  <path class="cls-3" d="M1440.82,867.82c-73.56,0-147.11-.02-220.67-.02,1.57-1.45,3.5-.79,5.25-.79,70.06-.03,140.12-.03,210.18,0,1.75,0,3.69-.67,5.24,.81h0Z"/>
  <path class="cls-10" d="M1474.93,550.99c0-28.06,0-56.13,.07-84.19,0-1.9-.77-4.01,.87-5.69-.01,69.26-.02,138.51-.03,207.77-1.61-1.7-.85-3.8-.86-5.71-.05-37.39-.05-74.79-.05-112.18h0Z"/>
  <path class="cls-3" d="M1168.08,465.87c-.05-12.96-.1-25.91-.15-38.87-.01-13.31-.03-26.62-.05-39.93,.05-.33,.1-.65,.15-.98,17.37,.07,34.74,.14,52.11,.21-.04,.24-.09,.47-.15,.7-.32,.01-.65,.02-.97,.02-14.97,0-29.94,.14-44.9-.11-4.26-.07-5.27,1.34-5.24,5.39,.17,22.78,.09,45.56,.03,68.35,0,1.75,.68,3.69-.84,5.22h.01Z"/>
  <path class="cls-6" d="M1091.2,604.68c-.07,12.8,.07,25.61-.26,38.4-1.23,48.52-.36,97.06-1.24,145.57-.35,19.09-.3,38.18-.66,57.27,1.34,11.86,1.94,23.74,2.17,35.68,.17,8.58-2.36,15.92-6.19,23.16-4,.41-8,.83-12,1.24,0-140.64,.02-281.29,.02-421.93h17.65c.15,15.62,.3,31.25,.44,46.87,0,9.33,.02,18.67,.03,28,0,15.24,.02,30.48,.02,45.72l.02,.02Z"/>
  <path class="cls-5" d="M1530.94,884.95c-1.83,1.79-4.12,.95-6.18,.95-115.76,.05-231.53,.04-347.29,.04-4.3,0-6.45,2.16-6.46,6.49,0,7.83-.01,15.66-.02,23.48-.66-.1-1.37-.17-1.36-1.06,.11-8.64,.35-17.28,.3-25.92-.02-3,.91-4.39,3.99-4,.66,.08,1.33,.01,2,.01h355.02Z"/>
  <path class="cls-5" d="M1528.79,870.77h-364.6v-.5h364.61v.5h-.01Z"/>
  <path class="cls-3" d="M424.07,376.09c-4.29-1.39-8.58-2.78-12.88-4.17-.01-3.6-.03-7.2-.04-10.79,2.33-.03,4.66-.08,7-.08,102.97-.01,205.93-.02,308.9-.03,5.43,2.84,9.64,7.34,14.67,10.71,1.56,1.04,3.51,2.29,5.28,.15,1.72-2.07,.16-3.6-.94-5.23-1.59-2.35-4.93-2.79-6.08-5.62,144.58,0,289.16,0,433.74,.05,2.07,0,4.35-.83,6.21,.87-1.57,1.21-3.2,2.34-4.69,3.63-1.83,1.59-4.58,3.25-2.67,6.05,1.91,2.8,4.54,1.03,6.51-.36,4.72-3.33,9.28-6.88,13.9-10.34,1.66,.04,3.33,.11,4.99,.11h311.99c.06,4.04,.12,8.09,.18,12.13-2.5,1.6-5.4,2.08-8.17,2.93-109.77-.01-219.54-.04-329.32-.04H429.56c-1.83,0-3.66,.02-5.5,.04h.01Z"/>
  <path class="cls-4" d="M453.14,476.98c.04-30.28,.07-60.56,.11-90.84h255.62c.03,3.62,.06,7.23,.1,10.85-33.18,12.59-66.34,25.21-99.53,37.76-37.63,14.23-75.28,28.42-112.93,42.61-14.21,5.36-28.42,10.7-42.63,16.05l-.08-.4c.03-5.35,1.18-10.75-.66-16.03h0Z"/>
  <path class="cls-12" d="M1168.03,386.09c-.05,.33-.1,.65-.15,.98h-406.77c-.02-.35-.03-.7-.05-1.04,35.64,0,71.29,.48,106.92-.17,23.44-.43,46.92,.02,70.31-1.08,19.47-.92,38.94,.36,58.33-.91,20.63-1.35,41.27,.3,61.83-1.04,18.31-1.19,36.6,.17,54.84-.93,16.46-.99,32.9-.6,49.34-.95,3.98-.09,6.07,.82,5.4,5.14h0Z"/>
  <path class="cls-6" d="M1501.96,376.09c2.77-.85,5.67-1.33,8.17-2.93,.97-.13,1.95-.25,2.92-.38-1.68,2.47-4.5,2.88-7.01,3.77-1.74,.62-3.38,1.15-3.1,3.49-2.27-.84-1.82-2.34-.98-3.95h0Z"/>
  <path class="cls-6" d="M1502.95,380.04c.73,0,1.45,.01,2.18,.02-.73,.92-1.46,1.17-2.18-.02Z"/>
  <path class="cls-16" d="M1520.39,345.13c8.8-.04,17.61-.04,26.41-.14,1.74-.02,3.69,.71,5.16-.95,9.97,.14,19.94,.28,29.91,.42,.4,.43,.78,.4,1.15-.06,3.26,0,6.52,.02,9.78,.02,.19,.31,.38,.61,.57,.92-7.65,2.66-15.27,5.4-22.95,7.98-16.47,5.54-32.97,11-49.45,16.5-.24-.29-.48-.58-.72-.88,.04-7.94,.09-15.88,.13-23.81h0Z"/>
  <path class="cls-8" d="M1593.38,345.34c-.19-.31-.38-.61-.57-.92,1.02-.11,2.03-.22,3.05-.33,.32,2.69-1.78,.57-2.48,1.25h0Z"/>
  <path class="cls-8" d="M1583.02,344.4c-.36,.45-.74,.49-1.15,.06,.38-.02,.76-.04,1.15-.06Z"/>
  <path class="cls-11" d="M1520.39,345.13c-.04,7.94-.09,15.88-.13,23.81-.07,.34-.15,.67-.22,1.01-2.33,.95-4.66,1.89-6.99,2.83-.97,.12-1.94,.25-2.92,.38-.06-4.04-.12-8.09-.18-12.13,0-3.13,.03-6.27,0-9.4-.03-2.72,.69-5.67-2.01-7.7,4.14,.57,8.51-1.36,12.46,1.2h0Z"/>
  <path class="cls-14" d="M1520.04,369.95c.07-.34,.15-.67,.22-1.01,.24,.29,.48,.58,.72,.88l-.46,.16-.48-.03Z"/>
  <path class="cls-7" d="M453.88,493.41c14.21-5.35,28.42-10.69,42.63-16.05,37.65-14.2,75.3-28.38,112.93-42.61,33.19-12.55,66.36-25.17,99.53-37.76-.03,2.4-.05,4.8-.07,7.2-1.23,1.39-2.73,2.23-4.48,2.93-21.42,8.56-42.82,17.21-64.21,25.86-42.16,17.07-84.31,34.15-126.45,51.25-17.42,7.07-34.78,14.28-52.27,21.17-3.15,1.24-4.23,2.95-3.12,5.72,1.31,3.27,3.8,1.01,5.49,.39,27.66-10.2,55.28-20.52,82.91-30.83,17.32-6.46,34.62-12.96,51.93-19.44,26.43-9.89,52.81-19.89,79.31-29.59,9.95-3.64,19.62-8.12,29.96-10.69,.05,3.98,.15,7.97,.14,11.95-.06,41.04-.13,82.08-.2,123.11-84.59,0-169.18-.02-253.77-.02-.11-6.27-.23-12.55-.34-18.82,.03-14.59,.06-29.19,.09-43.78h0Z"/>
  <path class="cls-12" d="M1090.71,484.09h-235.72c-5.16,0-10.33,.08-15.49-.06-2.62-.07-3.42,.98-3.49,3.52-.14,5.34,.81,10.6,.91,15.88,.71,39.6-.44,79.2,.9,118.81,1.33,39.41-.2,78.86,.95,118.31,1.03,35.11,.25,70.28,.26,105.42-16.02,4.51-32,9.16-48.07,13.47-8.6,2.3-16.99,5.47-25.9,6.53-3.95,.19-2.98-2.75-2.98-4.88-.05-22.32-.04-44.63-.04-66.95,0-15.49,.67-31.01-.16-46.46-1.54-28.61-.29-57.22-.91-85.82,.01-14.49,.03-28.98,.03-43.47,.03-60.79,.07-121.59,.1-182.38,5.31,.06,9.98,2.46,14.88,4.01,.63,13.6,.55,27.24,.74,40.84,.57,40.92,.23,81.85,.26,122.77,.01,15.14,.08,30.28,.12,45.42-.04,9.31-.08,18.62-.11,27.92-1.4,1.77-.76,3.85-.77,5.78-.07,44.09-.1,88.18-.13,132.27,0,7.57,3.67,10.14,11.02,7.73,.82,.15,1.53,.01,1.99-.77,1.02-.19,2.25,.32,2.97-.88l.07-.05c3.1-.07,6.12-.45,8.87-2.05l.09-.06c1.38-.18,2.94,.47,4.04-.92,5.85-.46,11.42-2.13,16.96-3.96,3.41,.11,2.93-2.32,2.93-4.46,0-16.12,.02-32.24-.02-48.36-.05-18.11-.16-36.22-.24-54.33v-1.89c.08-11.03,.16-22.05,.23-33.08,.02-2.33,.06-4.65,.06-6.98,.02-69.67,.04-139.33,.06-209,6.58,3.44,13.71,3.19,20.81,3.08,.02,2.5,.06,4.99,.06,7.49,0,4.31,2.16,6.47,6.45,6.48h222.13c1,0,2-.08,2.99,.01,2.61,.24,3.56-.94,3.48-3.49-.11-3.49,.03-6.99,.06-10.48,3.33,0,6.67-.01,10-.02-.13,8.35-.27,16.7-.4,25.05h0Z"/>
  <path class="cls-13" d="M1091.11,459.04c-3.33,0-6.67,.01-10,.02-.65-2.89,.88-5.54,.89-8.37,.06-16.13-.45-32.27,1.04-48.36,.38-4.08-.93-5.4-5.19-5.39-75.64,.12-151.29,.12-226.93,0-4.1,0-5,1.34-4.97,5.15,.14,18.99,.02,37.98,0,56.98-7.11,.11-14.23,.36-20.81-3.08-.03-12.98-.15-25.96-.01-38.95,.03-3.26-1.15-4.76-4.22-5.61-13.87-3.82-27.71-7.75-41.52-11.79-2.62-.77-3.36,.02-3.32,2.44,.06,4.33,.08,8.65,.12,12.98,.06,2.69,.12,5.38,.17,8.08-.17,5.64-.56,11.27,.19,16.9-.18-.04-.36-.05-.55,0-4.9-1.55-9.58-3.95-14.88-4.01-.05-.29-.1-.59-.14-.88,.05-16.02,.1-32.03,.15-48.05h406.78c.01,13.31,.03,26.62,.05,39.93-5.03,.57-8.8,4.65-13.9,5.02-.11-2.97-.22-5.93-.33-8.9,.09-2.7,.18-5.39,.27-8.09,.02-3.48,.05-6.97,.05-10.45,0-3.89-1.93-5.27-5.78-4.16-12.99,3.79-25.91,7.87-39.02,11.2-3.89,.99-3.73,2.65-3.12,5.4,.61,2.31-1.38,4.67,.15,6.96-.06,9.67-.11,19.33-.17,29-.29,.39-.58,.79-.86,1.18-4.15,1.7-8.31,3.41-12.46,5.11l.08-.1v-69.08c-.03,22.5-1.82,44.97-1.65,67.46-.03,.5-.05,.99-.08,1.49l-.03-.03Z"/>
  <path class="cls-4" d="M707.96,420.97c-10.34,2.57-20.01,7.05-29.96,10.69-26.5,9.7-52.88,19.7-79.31,29.59-17.31,6.48-34.62,12.98-51.93,19.44-27.62,10.31-55.24,20.63-82.91,30.83-1.68,.62-4.18,2.88-5.49-.39-1.11-2.77-.03-4.48,3.12-5.72,17.49-6.88,34.85-14.1,52.27-21.17,42.15-17.1,84.3-34.18,126.45-51.25,21.39-8.66,42.78-17.3,64.21-25.86,1.75-.7,3.26-1.55,4.48-2.93,.06,5.38,.13,10.75,.19,16.13-.37,.22-.75,.44-1.12,.66v-.02Z"/>
  <path class="cls-7" d="M708.98,646.15c.02,53.64-.03,107.28,.17,160.92,.02,4.9-1.41,6-6.14,6-81.3-.15-162.6-.15-243.9,0-4.72,0-6.17-1.08-6.15-5.99,.2-53.64,.15-107.28,.17-160.93,.28-.06,.57-.12,.85-.18,.08,13.69,.16,27.38,.24,41.06-.05,39.65,0,79.3-.25,118.95-.03,4.85,1.33,6.06,6.11,6.05,57.82-.16,115.63-.11,173.45-.11,23.16,0,46.32-.05,69.48,.06,3.35,.02,5.11-.38,5.09-4.5-.19-40.15-.18-80.3-.22-120.45,.08-13.69,.16-27.38,.25-41.06,.28,.06,.57,.12,.85,.18Z"/>
  <path class="cls-3" d="M760.95,435.12c.04,.29,.09,.59,.14,.88-.03,60.79-.07,121.59-.1,182.38,0,14.49-.02,28.98-.03,43.47-1.54-1.53-.86-3.47-.86-5.22-.04-72.1-.04-144.19-.01-216.29,0-1.75-.68-3.69,.86-5.22h0Z"/>
  <path class="cls-12" d="M708.98,646.15c-.28-.06-.57-.12-.85-.18-.08-29.98-.15-59.96-.23-89.94,.07-41.04,.15-82.08,.2-123.11,0-3.98-.09-7.97-.14-11.95,.37-.22,.75-.44,1.12-.66-.03,75.28-.07,150.56-.1,225.84h0Z"/>
  <path class="cls-3" d="M707.89,867.8c-66.23,.01-132.47,.03-198.7,.04,1.54-1.52,3.48-.84,5.23-.84,62.74-.03,125.49-.03,188.23,0,1.75,0,3.68-.66,5.25,.79h0Z"/>
  <path class="cls-12" d="M453.99,645.97c-.28,.06-.57,.12-.85,.18,.04-21.06,.07-42.12,.1-63.19l.48,.08c.11,1.82,.31,3.64,.31,5.46,0,19.15-.02,38.31-.04,57.46h0Z"/>
  <path class="cls-6" d="M453.72,583.05s-.49-.08-.48-.08c-.04-14.49-.09-28.97-.09-43.46,0-.77,.42-1.55,.64-2.32,.11,6.27,.23,12.55,.34,18.82-.13,9.01-.27,18.03-.4,27.04h-.01Z"/>
  <path class="cls-7" d="M453.14,476.98c1.84,5.28,.68,10.68,.66,16.03-1.56-5.29-.49-10.68-.66-16.03Z"/>
  <path class="cls-6" d="M839.04,845.96c-.02-35.14,.77-70.31-.26-105.42-1.16-39.45,.38-78.9-.95-118.31-1.34-39.61-.19-79.21-.9-118.81-.1-5.29-1.05-10.55-.91-15.88,.07-2.54,.87-3.59,3.49-3.52,5.16,.14,10.33,.05,15.49,.06,.02,71.58,.05,143.16,.05,214.74s-.03,138.17-.04,207.25c-3.99-.42-7.97-.84-11.96-1.26-1.21-4.68-4.86-7.92-7.1-11.99,0-10.26,0-20.51,.01-30.77,.71-5.42,3.73-10.4,3.09-16.09h-.01Z"/>
  <path class="cls-5" d="M397.9,869.84c24,.03,47.99,.09,71.99,.09h285.95c1.5,0,3.02-.15,4.49,.05,1.33,.18,4-.76,3.77,.82-.5,3.47-2.17-1.18-3.72,.03-.82,.65-2.58,.11-3.91,.11-117.31,0-234.63,0-351.94-.04-2.23,0-4.7,.89-6.66-1.06h.03Z"/>
  <path class="cls-5" d="M835.95,862.04c0,10.26,0,20.51-.01,30.77-1.93-2.72-.94-5.81-.83-8.66,.29-7.37-1.23-14.82,.84-22.11h0Z"/>
  <path class="cls-16" d="M362.03,343.91c1.37,1.84,3.36,1.07,5.07,1.08,11.95,.09,23.89,.08,35.84,.1,.04,7.98,.09,15.95,.13,23.93-13.39-4.33-26.79-8.62-40.16-13.02-10.24-3.37-20.43-6.87-30.64-10.31,.29-.42,.59-.84,.88-1.26,9.62-.17,19.25-.35,28.87-.52h0Z"/>
  <path class="cls-14" d="M333.16,344.43c-.29,.42-.59,.84-.88,1.26-1.24,.13-2.46,.25-2.17-1.64,1.02,.13,2.04,.25,3.05,.38h0Z"/>
  <path class="cls-11" d="M403.08,369.02c-.04-7.98-.09-15.95-.13-23.93,2.42-2.35,5.42-.72,8.12-1.18,.03,5.74,.05,11.48,.08,17.21,.01,3.6,.03,7.2,.04,10.79-2.85-.54-5.64-1.28-8.11-2.9h0Z"/>
  <path class="cls-7" d="M1054.83,737c-4.08-.39-2.99,2.65-2.99,4.72-.02,25.63,.02,51.27,.04,76.9,.01,11.65-.08,23.3,.09,34.95,.05,3.15-.7,4.34-4.11,4.33-56.27-.1-112.53-.1-168.8,0-3.58,0-4-1.48-3.99-4.45,.11-23.14,.1-46.27,.13-69.41,.24-.07,.48-.13,.73-.17,.04,22.32,.22,44.65,.02,66.97-.04,4.72,1.09,6.18,6,6.16,52.15-.18,104.3-.11,156.45-.11,8.37,0,12.56-4.12,12.56-12.36,0-33.82,0-67.64-.07-101.46,0-1.66,.83-4.86-1.29-4.67-5.71,.5-9.85-4.46-15.64-3.56-4.07,.63-8.32,.32-12.47,.07-4.09-.26-5.67,1.19-5.55,5.41,.25,8.49,.11,16.99,.04,25.49-.02,1.73,.74,3.72-1.05,5.12v-23.75c-.29,0-.58,0-.87,.01v23.76c-.86,3.28-3.56,3.01-6.02,3.02-7.65,.04-15.29,.02-22.94,.02-24.27,0-48.54,.02-72.81-.01-6.31,0-8.28-1.89-8.29-7.75-.02-8.64-.18-17.29,.07-25.93,.12-4.22-1.49-5.53-5.55-5.39-7.47,.25-14.96,.11-22.44,.12-.04-20.79-.06-41.57-.15-62.36,0-1.9,.78-4.01-.88-5.7,.04-.35,.08-.7,.12-1.05,1.94,.03,3.51-1.34,3.88-2.7,1.16-4.24,5.6-5.46,8.18-7.52,3.56-2.84,7.84-5.81,10.81-8.91,6.68-6.97,14.74-12.13,21.82-18.51,4.62-4.16,9.96-8.04,14.85-12.03,7.08-5.77,13.93-12.05,21.12-17.64,17.52-13.63,34.04-28.45,51.3-42.37,15.09-12.17,29.8-24.82,44.68-37.26,0,11.01,.01,22.02,.02,33.03-2.09-6.62,.25-13.61-1.28-20.37-6.08,3.69-10.55,8.69-15.54,13.03-18.52,16.1-36.67,32.64-55.17,48.78-3.38,2.95-6.05,6.92-9.7,9.05-5.24,3.06-8.63,7.93-13.13,11.63-4.66,3.83-9.48,7.9-13.75,12.45-2.52,2.69-5.34,5.64-8.52,7.93-4.86,3.49-10.04,6.61-13.73,11.49-.33,.32-.66,.65-.99,.97l-.02,.02c-.33,.33-.66,.65-.99,.98l-.02,.02-.98,.98h-.02c-2.39,.28-3.68,1.63-3.95,4l-.05,.05c-.82,0-1.54,.16-1.96,.96l-.02,.02c-1.3,.01-1.97,.66-2,1.97h-.01c-3.01,.46-4.36,2.89-5.96,5.01l-.02,.02c-.33,.32-.66,.65-.98,.97l-.02,.02c-1.3,.02-1.97,.67-2,1.97h-.01c-2.02,.08-3.12,1.35-3.89,3.03l-.08,.08c-3.93,1.34-6.52,4.04-7.98,7.88l-.05,.05c-1.17,0-2.37-.08-3.02,1.22-1.96,3.92-3.93,7.83-5.89,11.75,6.31-4.45,13-8.09,17.85-14l.07-.08c2.59-.12,3.77-2,4.92-3.92l.07-.08c2.82-.63,4.83-2.26,6.01-4.9v-.02c2.05-.05,3.11-1.4,3.98-3l.02-.02c.33-.32,.66-.65,.99-.97h.02c2.04-.06,3.1-1.4,3.97-3.01l.02-.02c.33-.32,.66-.65,.99-.97h.51l.49-.02c1.92-1.26,2.74-3.48,5.26-4.53,2.03-.84,4.55-2.49,5.98-4.43,4.59-6.24,11.63-9.46,17.24-14.45,6.81-6.06,14.82-10.76,21.79-16.67,7.14-6.05,14.53-11.84,21.91-17.52,12.15-9.34,24.06-18.99,36.24-28.29,7.48-5.71,14.23-12.36,22.38-17.19,.1,2.16,.29,4.31,.3,6.47,0,54.95-.02,109.9,.01,164.84,0,1.91-.73,4.02,.84,5.73,.66,1.31,1.9,.9,2.97,.99,1.4-.02,2.8-.04,4.2-.07,2.04,.65,5.68-1.61,5.85,2.32,.19,4.44-3.72,2.21-5.89,2.79-.31,.08-.65,.03-.98,.04-1.1-.01-2.2-.03-3.3-.04l.02,.05Zm-95.11,32.91c16.33,0,32.66-.06,48.99,.06,2.74,.02,3.42-.47,3.37-3.47-.25-13.99-.38-28,.17-41.97,.12-3.14-.85-3.74-2.98-4.23-1.43-.33-2.97-.28-4.46-.28-30.49-.01-60.98-.01-91.48,0-6.13,0-7.23,1.06-7.25,7.26-.04,12.33,.15,24.66-.1,36.99-.09,4.41,1.41,5.78,5.75,5.73,15.99-.2,31.99-.08,47.99-.08h0Zm52.96-51.12c.07-.16,.13-.32,.2-.48h-105.51v.48h105.31Zm-49.77-23.86c4,.39,5.41-2.85,5.81-5.47,.45-2.89-2.71-5.23-5.01-5.46-2.72-.27-6.08,1.37-6.46,4.82-.41,3.73,2.14,5.56,5.65,6.1h.01Z"/>
  <path class="cls-4" d="M1051.83,518.97c-14.88,12.44-29.59,25.09-44.68,37.26-17.26,13.92-33.78,28.73-51.3,42.37-7.19,5.59-14.04,11.87-21.12,17.64-4.89,3.99-10.23,7.86-14.85,12.03-7.08,6.37-15.14,11.54-21.82,18.51-2.97,3.1-7.25,6.07-10.81,8.91-2.58,2.06-7.02,3.28-8.18,7.52-.37,1.36-1.93,2.73-3.88,2.7,0-49.28-.02-98.56-.02-147.84,0-7.37,3.71-11.05,11.14-11.05h159.35c4.27,0,6.36,2.15,6.26,6.46-.04,1.83-.05,3.66-.07,5.49h-.02Z"/>
  <path class="cls-4" d="M1050.82,553.91c-8.15,4.83-14.91,11.48-22.38,17.19-12.18,9.3-24.09,18.95-36.24,28.29-7.39,5.68-14.77,11.47-21.91,17.52-6.97,5.9-14.98,10.6-21.79,16.67-5.6,4.99-12.64,8.2-17.24,14.45-1.43,1.94-3.95,3.58-5.98,4.43-2.52,1.05-3.34,3.27-5.26,4.53-.33-.69-.66-.71-.98,.01h-.02c-.33,.33-.66,.66-.99,.98l-.02,.02c-2.03,.06-3.12,1.37-3.97,3h-.02c-.33,.33-.66,.66-.99,.98l-.02,.02c-2.03,.06-3.12,1.37-3.97,3,0,0-.01,.02-.01,.01-2.63,.87-5.29,1.69-6.01,4.9l-.07,.08c-2.25,.55-4.59,.98-4.93,3.92l-.07,.08c-2.04,.18-3.46,1.71-5.21,2.4-1.12,.45-3.8,2.48-3.74-1.37l.05-.05c3.03-2.25,6.91-3.65,7.98-7.89l.08-.08c1.99-.11,3.06-1.41,3.89-3.02h.01c.98-.35,1.63-1.02,2-1.98l.02-.02c.33-.32,.66-.65,.98-.98l.02-.02c2.99-.47,4.39-2.84,5.96-5h.01c.97-.36,1.63-1.02,2-1.98l.02-.02c.81,0,1.55-.16,1.96-.96l.05-.05c1.7-.95,3.04-2.25,3.95-3.99h.02c.33-.34,.66-.66,.98-.99l.02-.02c.33-.33,.66-.65,.99-.98l.02-.02c.33-.32,.66-.65,.99-.97,3.7-4.88,8.87-8,13.73-11.49,3.18-2.28,6-5.24,8.52-7.93,4.27-4.55,9.09-8.61,13.75-12.45,4.5-3.7,7.89-8.57,13.13-11.63,3.66-2.14,6.33-6.11,9.7-9.05,18.49-16.14,36.64-32.68,55.17-48.78,4.99-4.34,9.46-9.34,15.54-13.03,1.53,6.76-.81,13.75,1.28,20.37,.08,.27,.09,.54,.05,.81-.36,.37-.71,.73-1.07,1.1h.02Z"/>
  <path class="cls-5" d="M1055.89,728.98c-1.92-5.96-.48-12.07-.8-18.1-.06-1.15,.77-1.75,1.9-1.87,.33-.03,.66-.02,.99-.06,9.33-1.03,13.99,3.06,13.98,12.27,0,3.31-.13,6.61-.2,9.92-6.18-6.42-7.35-6.58-15.87-2.16h0Z"/>
  <path class="cls-5" d="M1071.01,740.95c2.13,4.94,.52,10.1,.87,15.14,.08,1.14-.82,1.73-1.95,1.84-.5,.04-1,.03-1.49,.06-13.89,.91-15.28-.95-12.99-17.36,6.89,4.71,9.22,4.75,15.57,.32h-.01Z"/>
  <path class="cls-12" d="M1050.82,553.91c.36-.37,.71-.73,1.07-1.1,.04,25.12,.1,50.23,.11,75.35,.01,34.27-.01,68.53-.02,102.8-1.57-1.72-.84-3.82-.84-5.73-.03-54.95,0-109.9-.01-164.84,0-2.16-.19-4.31-.3-6.47h0Z"/>
  <path class="cls-14" d="M1071.01,740.95c-6.35,4.43-8.68,4.38-15.57-.32-.2-1.21-.41-2.42-.61-3.63,1.1,.01,2.2,.03,3.3,.04,.44,3.46,2.84,4.06,5.73,3.88,2.83-.18,4.58-1.69,5.05-4.49,.48-2.85-.25-5.16-3.09-6.55-2.92-1.43-5-.51-6.66,2.01-1.4,.02-2.8,.04-4.2,.07,.32-.99,.63-1.98,.95-2.97,8.52-4.42,9.69-4.26,15.87,2.16,.69,3.34,.45,6.61-.76,9.81h-.01Z"/>
  <path class="cls-12" d="M875.93,783.89c-.25,.04-.49,.1-.73,.17-.06-24.08-.14-48.16-.18-72.24-.02-14.95,.02-29.9,.04-44.85,1.66,1.68,.87,3.79,.88,5.7,.1,20.79,.12,41.57,.15,62.36-.05,16.29-.11,32.58-.16,48.87h0Z"/>
  <path class="cls-14" d="M1063.66,704.16c-3.25-.14-5.06-2.12-5.07-5.05-.01-3.18,1.87-5.28,5.37-5.21,3.59,.08,5.06,2.36,4.98,5.55-.08,3.19-2.14,4.68-5.28,4.71Z"/>
  <path class="cls-3" d="M958.42,177.08H443c-7.69,0-6.88,.83-6.88-7.01-.02-36.49,.07-72.98-.11-109.47-.02-4.43,1.17-5.55,5.57-5.55,344.61,.1,689.22,.11,1033.83,0,4.72,0,5.78,1.4,5.76,5.89-.17,36.66-.21,73.32,.03,109.97,.03,5.13-1.35,6.3-6.37,6.3-172.14-.14-344.28-.11-516.42-.11v-.02Zm263.8-110.05c-2.66,.01-5.33,.04-7.99,.04H697.68c-2.16,0-4.33,.06-6.49,.09-.55-1.48,.69-4.27-2.4-3.9-2.44,.29-1.47,2.56-1.65,4.06-.11,.99-.02,2-.02,3,0,31.15-.01,62.29,0,93.44,0,8.09-.9,7.32,7.1,7.32,168.91,0,337.82,0,506.72,0,7.16,0,14.33-.16,21.49,.07,3.5,.11,4.55-1.05,4.54-4.54-.11-32.98-.05-65.96-.11-98.94,0-1.61,1.02-4.03-1.76-4.46-2.98-.46-1.46,2.87-2.89,3.81h0Z"/>
  <path class="cls-5" d="M411.15,361.12c-.03-5.74-.05-11.48-.08-17.21,5.79-1.69,11.7-.38,17.55-.74,3.11-.19,6.23-.14,9.35-.21,1.08,1.5,2.69,1.05,4.13,1.05,19.96,.03,39.92,.02,59.88,0,1.46,0,3.04,.34,4.17-1.04,28,.04,56,.08,84,.12,1.18,1.36,2.77,.9,4.21,.91,16.48,.03,32.97,.02,49.45,0,1.62,0,3.39,.37,4.62-1.21,19.53,.69,39.07,.27,58.6,.21,.1,.28,.15,.57,.16,.86,.65,2.02,2.42,2.97,3.89,4.26,5.13,4.53,11.32,7.73,15.96,12.86-102.97,0-205.93,.01-308.9,.03-2.33,0-4.66,.05-7,.08v.03Z"/>
  <path class="cls-5" d="M1179.93,361.94c-1.87-1.7-4.14-.87-6.21-.87-144.58-.05-289.16-.05-433.74-.05-7.81-4.97-15.04-10.68-21.86-16.92,13.98-.02,27.96-.03,41.94-.1,1.75,0,3.71,.65,5.14-1.07,19.5,.27,38.99,.5,58.49-.11,1.07,1.42,2.63,1.21,4.11,1.21h50.94c1.16,0,2.36,.13,3.21-.93,19.37-.01,38.74-.02,58.11-.03,.99,1.24,2.39,.95,3.69,.96,16.79,.01,33.59,.01,50.38,0,1.46,0,3.04,.31,4.12-1.14,19.54,.02,39.07,.03,58.61,.05,.93,1.29,2.33,1.09,3.64,1.09h50.89c1.3,0,2.71,.27,3.66-1.02,19.41,.03,38.82,.05,58.22,.08,4.3,1.92,8.83,.71,13.24,.9,5.14,.23,10.29,.08,15.43,.1-.14,.47-.12,1.14-.43,1.38-7.17,5.52-14.38,11-21.58,16.48h0Z"/>
  <path class="cls-5" d="M1507.93,343.93c2.7,2.03,1.98,4.98,2.01,7.7,.04,3.13,0,6.27,0,9.4h-311.99c-1.66,0-3.33-.07-4.99-.1,2.03-1.63,4.12-3.18,6.07-4.89,4.6-4.05,10.36-6.75,13.98-11.94,6.28-.64,12.68,1.08,18.88-.99,19.36-.02,38.71-.04,58.07-.06,.97,1.26,2.38,.98,3.68,.98,16.79,.01,33.59,.01,50.38,0,1.45,0,3.04,.35,4.13-1.11,25.99,.08,51.98,.15,77.96,.22,1.18,0,2.35-.03,3.11-1.16,1,1.45,2.25,2.11,4.15,2.1,20.49-.08,40.98-.05,61.48-.05,1.15,0,2.37,.14,3.15-1.03,3.28,.64,6.74-.71,9.92,.93h.01Z"/>
  <path class="cls-12" d="M1213.03,344.09c-3.63,5.19-9.38,7.89-13.98,11.94-1.95,1.72-4.04,3.27-6.07,4.89-4.62,3.46-9.18,7.01-13.9,10.34-1.98,1.39-4.6,3.16-6.51,.36-1.91-2.8,.84-4.46,2.67-6.05,1.49-1.29,3.12-2.43,4.69-3.63,7.2-5.48,14.41-10.96,21.58-16.48,.31-.24,.3-.91,.43-1.38h11.09Z"/>
  <path class="cls-12" d="M718.12,344.1c6.82,6.25,14.05,11.96,21.86,16.92,1.14,2.82,4.48,3.26,6.08,5.62,1.1,1.63,2.66,3.16,.94,5.23-1.77,2.13-3.73,.89-5.28-.15-5.03-3.37-9.24-7.88-14.67-10.71-4.64-5.13-10.83-8.33-15.96-12.86-1.47-1.3-3.24-2.25-3.89-4.26,3.64,.07,7.29,.14,10.93,.21h0Z"/>
  <path class="cls-7" d="M1105.21,454.16c.29-.39,.58-.79,.86-1.18,6.32-1.07,11.38-5.1,17.25-7.32,10.02-3.79,19.74-8.39,29.58-12.66,1.88,5.35,1.01,10.88,.9,16.31-1.18,60.08-.71,120.16-.74,180.24,0,.83-.1,1.66-.16,2.49-13.63-.02-27.25,.05-40.88-.11-4.4-.05-6.66,1.42-6.02,6.09,.22,1.63,.5,3.28,.47,4.92-.07,4.39,.08,8.8-1.15,13.09-.09-1.49-.27-2.98-.27-4.48,0-64.8,.03-129.6,.05-194.4,0-1,.06-2,.1-3h.01Z"/>
  <path class="cls-8" d="M1105.33,656.04c1.23-4.29,1.08-8.71,1.15-13.09,.03-1.64-.25-3.29-.47-4.92-.64-4.67,1.62-6.14,6.02-6.09,13.62,.15,27.25,.09,40.88,.11,.06,31.27,.12,62.54,.19,93.81-.05,1.99-.13,3.98-.14,5.97,0,28.9,.01,57.8,0,86.7,0,2.26,.56,4.73-1.96,6.21-13.63-3.26-27.26-6.51-40.88-9.79-.76-.18-1.47-.63-2.2-.95-1.17-2.16-.91-4.51-.91-6.83,0-46.89,.01-93.78-.04-140.67,0-2.92,.72-6.07-1.66-8.57,0-.63,0-1.25,.01-1.88h.01Z"/>
  <path class="cls-10" d="M1152.91,433c-9.84,4.26-19.56,8.86-29.58,12.66-5.87,2.22-10.93,6.26-17.25,7.32,.06-9.67,.11-19.33,.17-29,1.46-.97,3.11-.95,4.78-.94,14.22,.04,28.45,.05,42.67,.08,.11,2.97,.22,5.93,.33,8.9-.37,.33-.75,.66-1.12,.99h0Z"/>
  <path class="cls-7" d="M1105.32,657.92c2.39,2.5,1.66,5.65,1.66,8.57,.05,46.89,.04,93.78,.04,140.67,0,2.32-.25,4.67,.91,6.83-3.98,.15-2.88-2.84-2.89-4.91-.05-22.12-.02-44.24-.02-66.36,0-26.28,0-52.56,.03-78.83,0-1.99,.17-3.98,.26-5.97h0Z"/>
  <path class="cls-7" d="M1151.01,824.73c2.52-1.48,1.96-3.95,1.96-6.21,0-28.9-.01-57.8,0-86.7,0-1.99,.09-3.98,.14-5.97,1.22,1.44,.78,3.18,.78,4.8,.04,29.81,.08,59.63,.02,89.44,0,1.88,1.5,5.25-2.88,4.63h-.02Z"/>
  <path class="cls-15" d="M1091.11,459.04c.03-.5,.05-.99,.08-1.49,.55,.54,1.1,1.08,1.65,1.62l-.08,.1c-1.12,23.88-.38,47.79-.89,71.68-.24,.02-.47,.03-.71,0-.15-15.62-.3-31.25-.44-46.87,.13-8.35,.27-16.7,.4-25.05h-.01Z"/>
  <path class="cls-3" d="M1091.2,604.68c0-15.24-.02-30.48-.02-45.72h.34l.34-.02c0,14.48,.03,28.96,0,43.44,0,.77-.43,1.54-.66,2.31h0Z"/>
  <path class="cls-8" d="M1091.87,558.94l-.34,.02h-.34c0-9.33-.02-18.67-.03-28,.24,.02,.47,.01,.71,0v27.99h0Z"/>
  <path class="cls-2" d="M453.72,583.05c.13-9.01,.27-18.03,.4-27.04,84.59,0,169.18,.02,253.77,.02,.08,29.98,.15,59.96,.23,89.94-.08,13.69-.16,27.38-.24,41.06h-253.66c-.08-13.69-.16-27.38-.24-41.06,.02-19.15,.04-38.31,.04-57.46,0-1.82-.2-3.64-.31-5.46h0Z"/>
  <path class="cls-6" d="M845.93,459.05c.03-18.99,.15-37.99,0-56.98-.03-3.81,.87-5.16,4.97-5.15,75.64,.12,151.29,.12,226.93,0,4.26,0,5.56,1.32,5.19,5.39-1.49,16.09-.98,32.23-1.04,48.36-.01,2.83-1.54,5.48-.89,8.37-.03,3.49-.17,6.99-.06,10.48,.08,2.56-.86,3.73-3.48,3.49-.99-.09-2-.01-2.99-.01h-222.13c-4.29,0-6.44-2.16-6.45-6.48,0-2.5-.04-4.99-.06-7.49v.02Z"/>
  <path class="cls-7" d="M777.09,649.03c-.04-15.14-.1-30.28-.12-45.42-.03-40.92,.31-81.85-.26-122.77-.19-13.6-.1-27.23-.74-40.84,.18-.04,.37-.03,.54,0,6.95,.7,13.06,4.11,19.61,6.11,9.31,2.83,18.28,6.71,27.82,8.84,.05,65,.1,130.01,.15,195.01-2.1-.34-4.1-1.06-6.31-1.04-13.57,.11-27.14,.08-40.71,.1h.02Z"/>
  <path class="cls-8" d="M777.09,649.03c13.57-.02,27.14,0,40.71-.1,2.21-.02,4.21,.7,6.31,1.04,0,7.27,.02,14.55,.02,21.82,.31,9.58-1.39,19.17-.08,28.74,.2,1.48-2.47,3.51,.71,4.49v1.89c-.51,.37-1.51,.91-1.45,1.08,1.91,5.44-.41,10.78-.37,16.18,.17,27.69,.08,55.38,.09,83.07,0,2.32,.17,4.66-.93,6.82-5.53,1.83-11.11,3.5-16.96,3.96-1.4,.08-2.98-.65-4.04,.92l-.09,.06c-3.17-.23-6.2,.14-8.87,2.05,0,0-.07,.05-.07,.04-1.11-.11-2.29-.44-2.97,.88-.46,.78-1.17,.92-1.99,.77-.28-1.54-1.17-1.08-2.19-.77-5.23,1.57-7.85-.4-7.86-5.89-.02-46.37-.05-92.75-.08-139.12,.04-9.31,.08-18.62,.11-27.92h0Z"/>
  <path class="cls-5" d="M824.13,671.8c0-7.27-.02-14.55-.02-21.82-.05-65-.1-130.01-.15-195.01-.05-10.61-.09-21.22-.14-31.82,.41-5.42-2.08-8.13-7.45-8.13-13.4,0-26.81,.02-40.21,.03-.04-4.33-.06-8.65-.12-12.98-.03-2.41,.7-3.21,3.32-2.44,13.81,4.05,27.65,7.97,41.52,11.79,3.07,.85,4.25,2.35,4.22,5.61-.14,12.98-.02,25.96,.01,38.95-.02,69.67-.04,139.33-.06,209,0,2.33-.04,4.65-.06,6.98-.29-.04-.57-.1-.86-.15h0Z"/>
  <path class="cls-7" d="M822.09,814.06c1.1-2.17,.93-4.5,.93-6.82,0-27.69,.09-55.38-.09-83.07-.03-5.4,2.28-10.74,.37-16.18-.06-.17,.94-.71,1.45-1.08,.08,18.11,.19,36.22,.24,54.33,.04,16.12,.01,32.24,.02,48.36,0,2.14,.49,4.57-2.93,4.46h.01Z"/>
  <path class="cls-7" d="M776.98,676.96c.03,46.37,.05,92.75,.08,139.12,0,5.48,2.62,7.44,7.86,5.89,1.02-.31,1.91-.77,2.19,.77-7.35,2.41-11.03-.16-11.02-7.73,.03-44.09,.06-88.18,.13-132.27,0-1.93-.63-4.01,.77-5.78h-.01Z"/>
  <path class="cls-7" d="M824.13,671.8c.29,.06,.57,.11,.86,.15-.08,11.02-.15,22.05-.23,33.08-3.18-.98-.51-3.01-.71-4.49-1.31-9.57,.39-19.15,.08-28.74h0Z"/>
  <path class="cls-7" d="M792.14,821.05c2.68-1.9,5.7-2.28,8.87-2.05-2.75,1.59-5.77,1.97-8.87,2.05Z"/>
  <path class="cls-7" d="M801.1,818.94c1.06-1.57,2.64-.85,4.04-.92-1.1,1.4-2.66,.74-4.04,.92Z"/>
  <path class="cls-7" d="M789.1,821.98c.69-1.32,1.86-.99,2.97-.88-.72,1.2-1.95,.7-2.97,.88Z"/>
  <path class="cls-10" d="M823.82,423.14c.05,10.61,.09,21.22,.14,31.82-9.54-2.13-18.51-6.01-27.82-8.84-6.55-1.99-12.67-5.41-19.61-6.11-.75-5.63-.36-11.26-.19-16.9,15.83,0,31.66,.02,47.49,.02h-.01Z"/>
  <path class="cls-12" d="M1106.1,417.02c-.61-2.75-.77-4.41,3.12-5.4,13.11-3.33,26.02-7.42,39.02-11.2,3.84-1.12,5.77,.27,5.78,4.16,0,3.48-.03,6.97-.05,10.45-14.24-.02-28.48-.02-42.73-.08-2.06,0-3.97,.04-5.14,2.08h0Z"/>
  <path class="cls-7" d="M1106.1,417.02c1.17-2.04,3.08-2.09,5.14-2.08,14.24,.07,28.48,.06,42.73,.08-.09,2.7-.18,5.39-.27,8.09-14.23-.02-28.45-.04-42.68-.08-1.67,0-3.31-.03-4.78,.94-1.53-2.29,.47-4.65-.15-6.96h.01Z"/>
  <path class="cls-7" d="M823.82,423.14c-15.83,0-31.66-.02-47.49-.02-.06-2.69-.12-5.38-.17-8.08,13.4,0,26.81-.02,40.21-.03,5.37,0,7.86,2.71,7.45,8.13h0Z"/>
  <path class="cls-12" d="M1092.84,459.17c-.55-.54-1.1-1.09-1.65-1.62-.17-22.49,1.62-44.95,1.65-67.46v69.08h0Z"/>
  <path class="cls-8" d="M454.23,687.03h253.66c.04,40.15,.03,80.3,.22,120.45,.02,4.12-1.73,4.51-5.09,4.5-23.16-.11-46.32-.06-69.48-.06-57.82,0-115.63-.06-173.45,.11-4.78,.01-6.14-1.2-6.11-6.05,.24-39.65,.2-79.3,.25-118.95h0Z"/>
  <path class="cls-8" d="M875.93,783.89c.05-16.29,.11-32.58,.16-48.87,7.48-.02,14.97,.13,22.44-.12,4.06-.14,5.67,1.17,5.55,5.39-.25,8.64-.09,17.28-.07,25.93,.02,5.85,1.99,7.74,8.29,7.75,24.27,.03,48.54,.01,72.81,.01,7.65,0,15.29,.03,22.94-.02,2.46-.01,5.16,.26,6.02-3.02h.44l.44-.02c1.79-1.41,1.03-3.39,1.05-5.12,.08-8.5,.21-17-.04-25.49-.12-4.22,1.46-5.66,5.55-5.41,4.15,.26,8.41,.57,12.47-.07,5.78-.9,9.92,4.07,15.64,3.56,2.12-.19,1.29,3.01,1.29,4.67,.07,33.82,.06,67.64,.07,101.46,0,8.24-4.19,12.36-12.56,12.36-52.15,0-104.3-.07-156.45,.11-4.91,.02-6.04-1.44-6-6.16,.21-22.32,.03-44.65-.02-66.97l-.02,.03Z"/>
  <path class="cls-5" d="M959.72,769.91c-16,0-31.99-.12-47.99,.08-4.35,.05-5.84-1.32-5.75-5.73,.25-12.32,.06-24.66,.1-36.99,.02-6.2,1.12-7.26,7.25-7.26h91.48c1.49,0,3.03-.05,4.46,.28,2.13,.49,3.1,1.09,2.98,4.23-.54,13.97-.41,27.98-.17,41.97,.05,3-.62,3.49-3.37,3.47-16.33-.12-32.66-.06-48.99-.06h0Zm32.51-20.73c-2.1-3.15-4.09-6.38-6.33-9.42-2.06-2.8-3.21-7.42-7.87-5.4,1.39,7.42,1.61,14.39-.14,21.56,1.34,.5,2.92,.49,4.54-.11-2.4-5.29-.87-10.63-.9-15.94,3.12,3.98,5.68,8.06,8.44,12,1.19,1.7,2.02,5.1,3.98,4.52,2.59-.77,.84-4.06,1.18-6.22,.81-5.18-1.88-10.85,2.96-16.12-2.74,.21-4.76-.61-6.79,.68,3.09,4.62,1.03,9.54,.92,14.46h.01Zm-74.26-3.73c.03,6.58,3.89,11.18,9.5,11.33,5.69,.15,10.25-4.81,10.35-11.24s-4.33-11.5-10.04-11.49c-6.04,.02-9.84,4.43-9.81,11.4h0Zm22.76-11.07c2.43,7.2,1.43,14.3,.85,21.65,1.78,.29,4.2,.43,7.22-.36-3.41-1.2-2.95-3.69-2.66-5.9,.37-2.83,2.88-1.41,4.42-1.85,3.73-1.07,6.45-3.25,6.26-7.26-.19-3.97-2.94-6.3-6.86-6.59-3.09-.23-6.25-.5-9.23,.32h0Zm19.11-.21c1.96,7.7,1.66,14.62,.29,21.92,3.09,0,6.56-.13,10.02,.03,3.76,.18,4.69-1.27,2.93-5.18-1.79,4.14-5.27,4.14-7.89,2.76-2.32-1.23-1.72-4.97-.67-6.75,1.5-2.55,4.18-.48,6.31,.44,.45-1.69,.54-3.13-.07-4.74-2.1,1.28-4.71,2.87-6.27,.34-1.04-1.7-1.49-5.32,.43-6.44,2.74-1.59,6.06-1.09,7.65,2.99,1.5-4.38-.03-5.69-3.85-5.41-2.95,.21-5.94,.04-8.88,.04h0Z"/>
  <path class="cls-5" d="M1012.68,718.81h-105.31v-.48h105.51c-.07,.16-.13,.32-.2,.48Z"/>
  <path class="cls-10" d="M962.91,694.95c-3.51-.54-6.06-2.37-5.65-6.1,.38-3.45,3.74-5.09,6.46-4.82,2.3,.23,5.45,2.57,5.01,5.46-.41,2.62-1.82,5.86-5.81,5.47h-.01Z"/>
  <path class="cls-10" d="M889,675c-.06,3.85,2.61,1.82,3.74,1.37,1.75-.7,3.17-2.22,5.21-2.4-4.85,5.9-11.55,9.55-17.85,14,1.97-3.92,3.93-7.83,5.89-11.75,.65-1.3,1.84-1.22,3.02-1.22h-.01Z"/>
  <path class="cls-16" d="M1059.15,731.89c1.66-2.52,3.74-3.45,6.66-2.01,2.84,1.39,3.57,3.7,3.09,6.55-.47,2.8-2.21,4.31-5.05,4.49-2.89,.18-5.29-.42-5.73-3.88,.33,0,.67,.05,.98-.04,2.17-.58,6.09,1.65,5.89-2.79-.17-3.93-3.81-1.67-5.85-2.32h.01Z"/>
  <path class="cls-5" d="M1014.94,770.93l-.44,.02h-.44v-23.76c.29,0,.58,0,.87-.01v23.75h.01Z"/>
  <path class="cls-10" d="M897.03,667.07c-1.07,4.24-4.95,5.63-7.98,7.89,1.46-3.85,4.05-6.54,7.98-7.89Z"/>
  <path class="cls-10" d="M903.02,669.89c.72-3.21,3.38-4.03,6.01-4.9-1.18,2.64-3.19,4.27-6.01,4.9Z"/>
  <path class="cls-10" d="M898.02,673.9c.34-2.95,2.68-3.37,4.93-3.92-1.15,1.92-2.34,3.8-4.93,3.92Z"/>
  <path class="cls-10" d="M910,655.97c-1.57,2.16-2.97,4.53-5.96,5,1.61-2.12,2.96-4.55,5.96-5Z"/>
  <path class="cls-10" d="M918,648.97c-.91,1.73-2.25,3.04-3.95,3.99,.27-2.37,1.56-3.72,3.95-3.99Z"/>
  <path class="cls-10" d="M901,663.96c-.83,1.61-1.9,2.9-3.89,3.02,.77-1.68,1.87-2.94,3.89-3.02Z"/>
  <path class="cls-10" d="M909.04,664.98c.85-1.63,1.94-2.93,3.97-3-.87,1.6-1.93,2.95-3.97,3Z"/>
  <path class="cls-10" d="M914.04,660.98c.85-1.63,1.94-2.94,3.97-3-.87,1.6-1.93,2.95-3.97,3Z"/>
  <path class="cls-10" d="M903.01,661.98c-.36,.96-1.02,1.63-2,1.97,.03-1.31,.7-1.96,2-1.97Z"/>
  <path class="cls-10" d="M912.01,653.99c-.37,.96-1.03,1.62-2,1.97,.03-1.31,.7-1.96,2-1.97Z"/>
  <path class="cls-10" d="M914,653.01c-.42,.81-1.16,.96-1.96,.96,.42-.8,1.15-.97,1.96-.96Z"/>
  <path class="cls-10" d="M919,647.98c-.33,.33-.66,.65-.98,.98,.33-.33,.66-.65,.98-.98Z"/>
  <path class="cls-10" d="M904.01,660.99c-.33,.33-.66,.65-.98,.98,.33-.33,.66-.65,.98-.98Z"/>
  <path class="cls-10" d="M920.01,646.99c-.33,.33-.66,.65-.99,.98,.33-.33,.66-.65,.99-.98Z"/>
  <path class="cls-10" d="M921.02,645.99c-.33,.32-.66,.65-.99,.97,.33-.33,.66-.65,.99-.97Z"/>
  <path class="cls-10" d="M918.03,657.97c.33-.32,.66-.65,.99-.97-.33,.32-.66,.65-.99,.97Z"/>
  <path class="cls-10" d="M919.04,656.99c.32-.72,.65-.7,.98-.01l-.49,.02h-.49Z"/>
  <path class="cls-10" d="M913.03,661.97c.33-.32,.66-.65,.99-.97-.33,.32-.66,.65-.99,.97Z"/>
  <path class="cls-9" d="M691.19,67.16c2.16-.03,4.33-.09,6.49-.09h516.54c2.66,0,5.33-.03,7.99-.04-.02,31.16-.01,62.31-.07,93.47-.02,8.66,1.11,7.53-7.27,7.53-100.14,.03-200.28,.02-300.42,.02-72.65,0-145.29,0-217.94,.03-3.19,0-5.55,.31-5.51-4.45,.25-32.15,.16-64.31,.19-96.46h0Z"/>
  <path class="cls-12" d="M691.19,67.16c-.02,32.15,.06,64.31-.19,96.46-.04,4.75,2.32,4.45,5.51,4.45,72.65-.04,145.29-.03,217.94-.03,100.14,0,200.28,0,300.42-.02,8.39,0,7.26,1.14,7.27-7.53,.06-31.16,.05-62.31,.07-93.47,1.43-.94-.1-4.27,2.89-3.81,2.79,.43,1.76,2.85,1.76,4.46,.06,32.98,0,65.96,.11,98.94,.01,3.49-1.04,4.65-4.54,4.54-7.16-.23-14.32-.07-21.49-.07h-506.72c-8,0-7.09,.77-7.1-7.32-.02-31.15,0-62.29,0-93.44,0-1-.09-2.01,.02-3,.18-1.51-.79-3.77,1.65-4.06,3.1-.37,1.85,2.42,2.4,3.9h0Z"/>
  <path class="cls-15" d="M992.22,749.17c.11-4.93,2.18-9.85-.92-14.46,2.03-1.29,4.05-.47,6.79-.68-4.84,5.27-2.15,10.94-2.96,16.12-.34,2.16,1.41,5.45-1.18,6.22-1.97,.58-2.79-2.82-3.98-4.52-2.76-3.94-5.32-8.02-8.44-12,.02,5.32-1.5,10.65,.9,15.94-1.62,.6-3.21,.61-4.54,.11,1.75-7.17,1.53-14.14,.14-21.56,4.65-2.01,5.81,2.6,7.87,5.4,2.24,3.05,4.23,6.27,6.33,9.42h-.01Z"/>
  <path class="cls-16" d="M917.97,745.45c-.03-6.97,3.77-11.39,9.81-11.4,5.7-.01,10.13,5.06,10.04,11.49-.1,6.43-4.66,11.39-10.35,11.24-5.61-.14-9.47-4.75-9.5-11.33h0Zm16.15,.32c.02-6.2-2.5-9.85-6.53-9.86-3.93-.01-6.53,3.83-6.4,9.6,.03,1.14,.35,2.28,.6,3.41,.76,3.38,2.52,6.02,6.29,5.88,3.83-.14,5.09-3.21,5.84-6.42,.22-.96,.16-1.98,.2-2.6h0Z"/>
  <path class="cls-15" d="M940.73,734.39c2.98-.82,6.15-.55,9.23-.32,3.92,.29,6.67,2.62,6.86,6.59,.19,4.02-2.53,6.2-6.26,7.26-1.54,.44-4.06-.98-4.42,1.85-.28,2.21-.75,4.69,2.66,5.9-3.02,.79-5.44,.65-7.22,.36,.58-7.34,1.58-14.44-.85-21.65h0Zm5.21,6.49c.74,1.79-1.47,5.17,2.72,4.97,3.03-.14,4.23-2.06,4.28-4.94,.05-3.13-1.79-4.58-4.54-4.71-3.85-.18-1.73,3.02-2.46,4.68h0Z"/>
  <path class="cls-16" d="M959.83,734.19c2.95,0,5.93,.17,8.88-.04,3.82-.28,5.35,1.03,3.85,5.41-1.59-4.08-4.91-4.58-7.65-2.99-1.92,1.11-1.48,4.74-.43,6.44,1.56,2.54,4.17,.94,6.27-.34,.61,1.61,.52,3.05,.07,4.74-2.13-.91-4.81-2.98-6.31-.44-1.05,1.78-1.65,5.52,.67,6.75,2.62,1.38,6.1,1.39,7.89-2.76,1.76,3.91,.83,5.36-2.93,5.18-3.46-.16-6.93-.03-10.02-.03,1.36-7.3,1.66-14.23-.29-21.92h0Z"/>
  <path class="cls-5" d="M934.11,745.77c-.04,.62,.03,1.64-.2,2.6-.75,3.21-2.01,6.28-5.84,6.42-3.77,.14-5.53-2.5-6.29-5.88-.25-1.13-.57-2.27-.6-3.41-.13-5.76,2.47-9.61,6.4-9.6,4.03,.01,6.55,3.66,6.53,9.86h0Z"/>
  <path class="cls-5" d="M945.94,740.87c.73-1.66-1.39-4.86,2.46-4.68,2.75,.13,4.59,1.58,4.54,4.71-.05,2.89-1.25,4.81-4.28,4.94-4.2,.19-1.98-3.18-2.72-4.97h0Z"/>
</svg>