<svg width="1440" height="1024" viewBox="0 0 1440 1024" fill="none" xmlns="http://www.w3.org/2000/svg">
<rect y="894" width="1440" height="130" fill="#88829E"/>
<rect x="305" y="771" width="830" height="123" fill="#BBB4D6"/>
<rect x="305" y="771" width="830" height="11" fill="url(#paint0_linear_822_350)"/>
<rect x="152" y="152" width="97" height="697" fill="white"/>
<g filter="url(#filter0_f_822_350)">
<rect x="166" y="152" width="12" height="697" fill="url(#paint1_linear_822_350)" fill-opacity="0.6"/>
</g>
<g filter="url(#filter1_f_822_350)">
<rect x="195" y="152" width="12" height="697" fill="url(#paint2_linear_822_350)" fill-opacity="0.6"/>
</g>
<g filter="url(#filter2_f_822_350)">
<rect x="224" y="152" width="12" height="697" fill="url(#paint3_linear_822_350)" fill-opacity="0.6"/>
</g>
<path d="M112 849H290V894H112V849Z" fill="white"/>
<path d="M112 107H290V152H112V107Z" fill="white"/>
<rect x="1190" y="152" width="97" height="697" fill="white"/>
<g filter="url(#filter3_f_822_350)">
<rect x="1204" y="152" width="12" height="697" fill="url(#paint4_linear_822_350)" fill-opacity="0.6"/>
</g>
<g filter="url(#filter4_f_822_350)">
<rect x="1233" y="152" width="12" height="697" fill="url(#paint5_linear_822_350)" fill-opacity="0.6"/>
</g>
<g filter="url(#filter5_f_822_350)">
<rect x="1262" y="152" width="12" height="697" fill="url(#paint6_linear_822_350)" fill-opacity="0.6"/>
</g>
<path d="M1150 849H1328V894H1150V849Z" fill="white"/>
<path d="M1150 107H1328V152H1150V107Z" fill="white"/>
<rect x="449" y="107" width="12" height="664" fill="url(#paint7_linear_822_350)"/>
<rect x="954" y="107" width="12" height="664" fill="url(#paint8_linear_822_350)"/>
<rect x="644" y="107" width="128" height="664" fill="url(#paint9_linear_822_350)"/>
<rect x="13.8652" width="1426.13" height="107" fill="#7B729C"/>
<rect x="681.375" width="76.2586" height="107" fill="white"/>
<rect x="851.719" width="76.2586" height="107" fill="white"/>
<rect x="1022.06" width="76.2586" height="107" fill="white"/>
<rect x="1362.75" width="76.2586" height="107" fill="white"/>
<rect width="76" height="107" fill="white"/>
<rect x="170.344" width="76.2586" height="107" fill="white"/>
<rect x="511.032" width="76.2586" height="107" fill="white"/>
<rect x="340.688" width="76.2586" height="107" fill="white"/>
<rect x="1192.41" width="76.2586" height="107" fill="white"/>
<g filter="url(#filter6_f_822_350)">
<rect width="1440" height="107" fill="url(#paint10_linear_822_350)"/>
</g>
<g filter="url(#filter7_d_822_350)">
<path d="M170.344 107H246.602V110.871C246.602 131.929 229.531 149 208.473 149C187.415 149 170.344 131.929 170.344 110.871V107Z" fill="white"/>
<path d="M0 107H76.2586V110.871C76.2586 131.929 59.1875 149 38.1293 149C17.0711 149 0 131.929 0 110.871V107Z" fill="white"/>
<path d="M340.688 107H416.946V110.871C416.946 131.929 399.875 149 378.817 149C357.759 149 340.688 131.929 340.688 110.871V107Z" fill="white"/>
<path d="M511.032 107H587.29V110.871C587.29 131.929 570.219 149 549.161 149C528.103 149 511.032 131.929 511.032 110.871V107Z" fill="white"/>
<path d="M851.719 107H927.978V110.871C927.978 131.929 910.907 149 889.849 149C868.791 149 851.719 131.929 851.719 110.871V107Z" fill="white"/>
<path d="M681.375 107H757.634V110.871C757.634 131.929 740.563 149 719.505 149C698.447 149 681.375 131.929 681.375 110.871V107Z" fill="white"/>
<path d="M1022.06 107H1098.32V110.871C1098.32 131.929 1081.25 149 1060.19 149C1039.13 149 1022.06 131.929 1022.06 110.871V107Z" fill="white"/>
<path d="M1192.41 107H1268.67V110.871C1268.67 131.929 1251.59 149 1230.54 149C1209.48 149 1192.41 131.929 1192.41 110.871V107Z" fill="white"/>
<path d="M1362.75 107H1439.01V110.871C1439.01 131.929 1421.94 149 1400.88 149C1379.82 149 1362.75 131.929 1362.75 110.871V107Z" fill="white"/>
</g>
<g filter="url(#filter8_d_822_350)">
<path d="M76.2585 107H170.344C170.344 130.196 151.54 149 128.344 149H118.259C95.0626 149 76.2585 130.196 76.2585 107Z" fill="#7B729C"/>
<path d="M246.602 107H340.688C340.688 130.196 321.884 149 298.688 149H288.602C265.406 149 246.602 130.196 246.602 107Z" fill="#7B729C"/>
<path d="M416.946 107H511.032C511.032 130.196 492.228 149 469.032 149H458.946C435.75 149 416.946 130.196 416.946 107Z" fill="#7B729C"/>
<path d="M587.29 107H681.375C681.375 130.196 662.571 149 639.375 149H629.29C606.094 149 587.29 130.196 587.29 107Z" fill="#7B729C"/>
<path d="M757.634 107H851.719C851.719 130.196 832.915 149 809.719 149H799.634C776.438 149 757.634 130.196 757.634 107Z" fill="#7B729C"/>
<path d="M927.978 107H1022.06C1022.06 130.196 1003.26 149 980.063 149H969.978C946.782 149 927.978 130.196 927.978 107Z" fill="#7B729C"/>
<path d="M1098.32 107H1192.41C1192.41 130.196 1173.6 149 1150.41 149H1140.32C1117.13 149 1098.32 130.196 1098.32 107Z" fill="#7B729C"/>
<path d="M1268.67 107H1362.75C1362.75 130.196 1343.95 149 1320.75 149H1310.67C1287.47 149 1268.67 130.196 1268.67 107Z" fill="#7B729C"/>
</g>
<defs>
<filter id="filter0_f_822_350" x="165" y="151" width="14" height="699" filterUnits="userSpaceOnUse" color-interpolation-filters="sRGB">
<feFlood flood-opacity="0" result="BackgroundImageFix"/>
<feBlend mode="normal" in="SourceGraphic" in2="BackgroundImageFix" result="shape"/>
<feGaussianBlur stdDeviation="0.5" result="effect1_foregroundBlur_822_350"/>
</filter>
<filter id="filter1_f_822_350" x="194" y="151" width="14" height="699" filterUnits="userSpaceOnUse" color-interpolation-filters="sRGB">
<feFlood flood-opacity="0" result="BackgroundImageFix"/>
<feBlend mode="normal" in="SourceGraphic" in2="BackgroundImageFix" result="shape"/>
<feGaussianBlur stdDeviation="0.5" result="effect1_foregroundBlur_822_350"/>
</filter>
<filter id="filter2_f_822_350" x="223" y="151" width="14" height="699" filterUnits="userSpaceOnUse" color-interpolation-filters="sRGB">
<feFlood flood-opacity="0" result="BackgroundImageFix"/>
<feBlend mode="normal" in="SourceGraphic" in2="BackgroundImageFix" result="shape"/>
<feGaussianBlur stdDeviation="0.5" result="effect1_foregroundBlur_822_350"/>
</filter>
<filter id="filter3_f_822_350" x="1203" y="151" width="14" height="699" filterUnits="userSpaceOnUse" color-interpolation-filters="sRGB">
<feFlood flood-opacity="0" result="BackgroundImageFix"/>
<feBlend mode="normal" in="SourceGraphic" in2="BackgroundImageFix" result="shape"/>
<feGaussianBlur stdDeviation="0.5" result="effect1_foregroundBlur_822_350"/>
</filter>
<filter id="filter4_f_822_350" x="1232" y="151" width="14" height="699" filterUnits="userSpaceOnUse" color-interpolation-filters="sRGB">
<feFlood flood-opacity="0" result="BackgroundImageFix"/>
<feBlend mode="normal" in="SourceGraphic" in2="BackgroundImageFix" result="shape"/>
<feGaussianBlur stdDeviation="0.5" result="effect1_foregroundBlur_822_350"/>
</filter>
<filter id="filter5_f_822_350" x="1261" y="151" width="14" height="699" filterUnits="userSpaceOnUse" color-interpolation-filters="sRGB">
<feFlood flood-opacity="0" result="BackgroundImageFix"/>
<feBlend mode="normal" in="SourceGraphic" in2="BackgroundImageFix" result="shape"/>
<feGaussianBlur stdDeviation="0.5" result="effect1_foregroundBlur_822_350"/>
</filter>
<filter id="filter6_f_822_350" x="-16.2" y="-16.2" width="1472.4" height="139.4" filterUnits="userSpaceOnUse" color-interpolation-filters="sRGB">
<feFlood flood-opacity="0" result="BackgroundImageFix"/>
<feBlend mode="normal" in="SourceGraphic" in2="BackgroundImageFix" result="shape"/>
<feGaussianBlur stdDeviation="8.1" result="effect1_foregroundBlur_822_350"/>
</filter>
<filter id="filter7_d_822_350" x="-4" y="107" width="1447.01" height="50" filterUnits="userSpaceOnUse" color-interpolation-filters="sRGB">
<feFlood flood-opacity="0" result="BackgroundImageFix"/>
<feColorMatrix in="SourceAlpha" type="matrix" values="0 0 0 0 0 0 0 0 0 0 0 0 0 0 0 0 0 0 127 0" result="hardAlpha"/>
<feOffset dy="4"/>
<feGaussianBlur stdDeviation="2"/>
<feComposite in2="hardAlpha" operator="out"/>
<feColorMatrix type="matrix" values="0 0 0 0 0 0 0 0 0 0 0 0 0 0 0 0 0 0 0.25 0"/>
<feBlend mode="normal" in2="BackgroundImageFix" result="effect1_dropShadow_822_350"/>
<feBlend mode="normal" in="SourceGraphic" in2="effect1_dropShadow_822_350" result="shape"/>
</filter>
<filter id="filter8_d_822_350" x="72.2585" y="107" width="1294.49" height="50" filterUnits="userSpaceOnUse" color-interpolation-filters="sRGB">
<feFlood flood-opacity="0" result="BackgroundImageFix"/>
<feColorMatrix in="SourceAlpha" type="matrix" values="0 0 0 0 0 0 0 0 0 0 0 0 0 0 0 0 0 0 127 0" result="hardAlpha"/>
<feOffset dy="4"/>
<feGaussianBlur stdDeviation="2"/>
<feComposite in2="hardAlpha" operator="out"/>
<feColorMatrix type="matrix" values="0 0 0 0 0 0 0 0 0 0 0 0 0 0 0 0 0 0 0.25 0"/>
<feBlend mode="normal" in2="BackgroundImageFix" result="effect1_dropShadow_822_350"/>
<feBlend mode="normal" in="SourceGraphic" in2="effect1_dropShadow_822_350" result="shape"/>
</filter>
<linearGradient id="paint0_linear_822_350" x1="720" y1="771" x2="720" y2="782" gradientUnits="userSpaceOnUse">
<stop stop-color="white"/>
<stop offset="0.9999" stop-color="#A6A6B3" stop-opacity="0.85"/>
<stop offset="1" stop-color="#D9D9D9" stop-opacity="0"/>
</linearGradient>
<linearGradient id="paint1_linear_822_350" x1="166" y1="401.783" x2="178" y2="401.783" gradientUnits="userSpaceOnUse">
<stop stop-color="#D9D9D9"/>
<stop offset="0.489583" stop-color="#D9D9D9" stop-opacity="0.26"/>
<stop offset="1" stop-color="#D6D6D6"/>
</linearGradient>
<linearGradient id="paint2_linear_822_350" x1="195" y1="401.783" x2="207" y2="401.783" gradientUnits="userSpaceOnUse">
<stop stop-color="#D9D9D9"/>
<stop offset="0.489583" stop-color="#D9D9D9" stop-opacity="0.26"/>
<stop offset="1" stop-color="#D6D6D6"/>
</linearGradient>
<linearGradient id="paint3_linear_822_350" x1="224" y1="401.783" x2="236" y2="401.783" gradientUnits="userSpaceOnUse">
<stop stop-color="#D9D9D9"/>
<stop offset="0.489583" stop-color="#D9D9D9" stop-opacity="0.26"/>
<stop offset="1" stop-color="#D6D6D6"/>
</linearGradient>
<linearGradient id="paint4_linear_822_350" x1="1204" y1="401.783" x2="1216" y2="401.783" gradientUnits="userSpaceOnUse">
<stop stop-color="#D9D9D9"/>
<stop offset="0.489583" stop-color="#D9D9D9" stop-opacity="0.26"/>
<stop offset="1" stop-color="#D6D6D6"/>
</linearGradient>
<linearGradient id="paint5_linear_822_350" x1="1233" y1="401.783" x2="1245" y2="401.783" gradientUnits="userSpaceOnUse">
<stop stop-color="#D9D9D9"/>
<stop offset="0.489583" stop-color="#D9D9D9" stop-opacity="0.26"/>
<stop offset="1" stop-color="#D6D6D6"/>
</linearGradient>
<linearGradient id="paint6_linear_822_350" x1="1262" y1="401.783" x2="1274" y2="401.783" gradientUnits="userSpaceOnUse">
<stop stop-color="#D9D9D9"/>
<stop offset="0.489583" stop-color="#D9D9D9" stop-opacity="0.26"/>
<stop offset="1" stop-color="#D6D6D6"/>
</linearGradient>
<linearGradient id="paint7_linear_822_350" x1="449" y1="319.5" x2="461" y2="319.5" gradientUnits="userSpaceOnUse">
<stop stop-color="#A89B9B"/>
<stop offset="0.473958" stop-color="#DDE7F0"/>
<stop offset="1" stop-color="#8C8C8C"/>
</linearGradient>
<linearGradient id="paint8_linear_822_350" x1="954" y1="319.5" x2="966" y2="319.5" gradientUnits="userSpaceOnUse">
<stop stop-color="#A89B9B"/>
<stop offset="0.473958" stop-color="#DDE7F0"/>
<stop offset="1" stop-color="#8C8C8C"/>
</linearGradient>
<linearGradient id="paint9_linear_822_350" x1="644" y1="357" x2="762.5" y2="357" gradientUnits="userSpaceOnUse">
<stop stop-color="#D9D9D9"/>
<stop offset="0.21875" stop-color="white"/>
<stop offset="0.770833" stop-color="white"/>
<stop offset="1" stop-color="#EEEEEE"/>
</linearGradient>
<linearGradient id="paint10_linear_822_350" x1="720" y1="0" x2="720" y2="107" gradientUnits="userSpaceOnUse">
<stop offset="0.588542" stop-color="#7B729C" stop-opacity="0"/>
<stop offset="0.869792" stop-color="#5E5875" stop-opacity="0.25"/>
<stop offset="1" stop-color="#7B729C" stop-opacity="0"/>
</linearGradient>
</defs>
</svg>





