<?xml version="1.0" encoding="UTF-8"?>
<svg id="Calque_1" data-name="Calque 1" xmlns="http://www.w3.org/2000/svg" viewBox="0 0 1920 1080">
  <defs>
    <style>
      .cls-1 {
        fill: #d8d7ee;
      }

      .cls-2 {
        fill: #c5c5c5;
      }

      .cls-3 {
        fill: #eae8f4;
      }

      .cls-4 {
        fill: #323643;
      }

      .cls-5 {
        fill: #272a33;
      }

      .cls-6 {
        fill: #9a96b7;
      }

      .cls-7 {
        fill: #cbc7f4;
      }

      .cls-8 {
        fill: #7a7c83;
      }

      .cls-9 {
        fill: #e2e5e1;
      }

      .cls-10 {
        fill: #97999f;
      }

      .cls-11 {
        fill: #fefefe;
      }
    </style>
  </defs>
  <path class="cls-4" d="M1285.74,711.97H632.78c.05-1.29,.14-2.58,.14-3.87,.02-54.35,.03-108.69,.04-163.04,1.7-.02,3.39-.05,5.09-.05,214.2,0,428.4,0,642.59,0,1.5,0,2.99-.05,4.49-.08,.11,.1,.24,.14,.38,.12,.01,1.5,.04,2.99,.04,4.49,0,52.85,0,105.71,0,158.56,0,1.29,.11,2.58,.17,3.87Z"/>
  <path class="cls-2" d="M1288.14,382.07v1.8c-1.81,.44-.81,2.01-1.22,3.01-172.5,0-344.99-.01-517.49,0-45.52,0-91.04,.03-136.56,.05-.23-.22-.46-.43-.69-.65,0-5.19,0-10.38,0-15.57,.24-.19,.49-.38,.73-.56,22.12-.01,44.24-.03,66.36-.04,15.18,0,30.35,0,45.53,0,86.16,0,172.32,0,258.48,.01,94.54,0,189.09,.01,283.63,.02,.41,0,.82-.02,1.22-.02v5.99c-1.6,1.72-1.6,4.27,0,5.99Z"/>
  <path class="cls-11" d="M1286.92,386.87c.4-1-.6-2.57,1.22-3.01v159.86c-.96-.01-1.93-.02-2.89-.04-1.3-.04-2.59-.1-3.89-.1-214.71,0-429.43,0-644.14,0-1.1,0-2.2,0-3.29,.06-.89,.05-1.21,.56-.96,1.42-.01,54.35-.02,108.69-.04,163.04,0,1.29-.09,2.58-.14,3.87-.18-.13-.62,.3-.61-.3,.03-.8,0-1.6,0-2.39V386.26c.23,.22,.46,.43,.69,.65,0,1.01,0,2.02,0,3.03,.03,1.56,.05,3.13,.08,4.69,0,7.38-.02,14.76-.02,22.14,.01,40.1,.03,80.2,.05,120.3-.11,.46,.04,.59,.47,.37,216,0,431.99,0,647.99-.02,1.38,0,2.8,.29,4.12-.39,2.41-.45,1.37-2.39,1.37-3.63,.07-46.06,.06-92.13,.07-138.19,.63-.91-.04-1.03-.71-1.16l-.1,.09c1.39-2.31,.49-4.85,.72-7.28Z"/>
  <path class="cls-9" d="M1286.92,370.12c-94.54,0-189.09-.01-283.63-.02-86.16,0-172.32,0-258.48-.01-.62-1.74-2.14-1.16-3.32-1.17-9.26-.05-18.52-.02-27.78-.05-1.31,0-2.99,.45-3.05-1.78,192.09,0,384.19,0,576.28,0,0,1.01-.02,2.01-.03,3.02Z"/>
  <path class="cls-7" d="M1285.74,711.97c-.06-1.29-.17-2.58-.17-3.87,0-52.85,0-105.71,0-158.56,0-1.5-.03-2.99-.04-4.49l1.82-.08c-.12,2.48-.33,4.96-.33,7.44-.03,17.76-.01,35.52-.02,53.29-.01,35.42-.03,70.85-.05,106.27h-1.2Z"/>
  <path class="cls-11" d="M1286.94,711.97c.02-35.42,.04-70.85,.05-106.27,0-17.76-.01-35.52,.02-53.29,0-2.48,.22-4.96,.34-7.44,.27-.01,.53-.03,.8-.04,0,54.88,0,109.77-.06,164.65,0,.75,1.24,2.58-1.14,2.4Z"/>
  <path class="cls-1" d="M710.66,367.1c.06,2.23,1.74,1.77,3.05,1.78,9.26,.03,18.52,0,27.78,.05,1.19,0,2.7-.57,3.32,1.17-15.18,0-30.35,0-45.53,0-.01-1.73-1.21-1.76-2.47-1.76-3.77,0-7.54-.01-11.31-.02,.4-.4,.8-.8,1.2-1.2,7.99,0,15.97,0,23.96,0Z"/>
  <path class="cls-11" d="M632.92,370.13c-.24,.19-.49,.38-.73,.56-.68-3.07,.51-3.77,3.6-3.69,9.58,.25,19.17,.09,28.75,.09,.02,.25,.04,.49,.06,.74-.81-.03-1.61-.06-2.42-.08-.22,.18-.44,.36-.65,.54-.79,.01-1.59,.03-2.38,.04-.44-.2-.88-.56-1.33-.56-7.74-.05-15.49-.05-23.23-.06-.86,0-1.59,.19-1.73,1.22,.02,.4,.05,.8,.07,1.2Z"/>
  <path class="cls-1" d="M664.59,367.84l-.06-.74c5.39,0,10.78,0,16.17,0,.21,.4,.41,.79,.62,1.19-5.58-.21-11.18,.6-16.73-.45Z"/>
  <path class="cls-11" d="M1288.14,382.07c-1.6-1.72-1.6-4.27,0-5.99v5.99Z"/>
  <path class="cls-11" d="M681.33,368.29c-.21-.4-.41-.79-.62-1.19,2,0,3.99,0,5.99,0-.4,.4-.8,.8-1.2,1.2-1.39,0-2.78,0-4.17-.01Z"/>
  <path class="cls-11" d="M1286.92,370.12c0-1.01,.02-2.01,.03-3.02,2.79,.04,.47,2.13,1.2,2.99-.41,0-.82,.02-1.22,.02Z"/>
  <path class="cls-3" d="M1288.14,544.92c-.26,.01-.53,.03-.8,.04-.61,.03-1.21,.05-1.82,.08-.15,.02-.28-.02-.38-.12,.04-.41,.07-.82,.11-1.24,.96,.01,1.93,.02,2.89,.04v1.2Z"/>
  <path class="cls-10" d="M1285.25,543.69c-.04,.41-.07,.82-.11,1.24-1.5,.03-2.99,.08-4.49,.08-214.2,0-428.4,0-642.59,0-1.7,0-3.39,.03-5.09,.05-.25-.86,.07-1.37,.96-1.42,1.1-.06,2.19-.06,3.29-.06,214.71,0,429.43,0,644.14,0,1.3,0,2.59,.07,3.89,.1Z"/>
  <path class="cls-6" d="M1286.92,386.87c-.23,2.43,.66,4.97-.72,7.28-.17,.02-.33,0-.48-.08-.02-3.51-1.78-4.83-5.18-4.14-.48,.1-1,.01-1.49,.01-215.39,0-430.79,0-646.18,0,0-1.01,0-2.02,0-3.03,45.52-.02,91.04-.04,136.56-.05,172.5,0,344.99,0,517.49,0Z"/>
  <path class="cls-7" d="M681.33,368.29c1.39,0,2.78,0,4.17,.01,3.77,0,7.54,.03,11.31,.02,1.26,0,2.46,.03,2.47,1.76-22.12,.01-44.24,.03-66.36,.04-.02-.4-.05-.8-.07-1.2,7.62-.01,15.24,0,22.85-.04,1.16,0,2.39,.27,3.43-.55,.79-.01,1.59-.03,2.38-.04,.22-.18,.44-.36,.65-.54,.81,.03,1.61,.06,2.42,.08,5.55,1.05,11.16,.24,16.73,.45Z"/>
  <path class="cls-4" d="M1285.73,394.07c.15,.08,.31,.11,.48,.08,0,0,.1-.09,.1-.09-.04,.37-.08,.74-.12,1.11-1.15,1.05-.59,2.43-.59,3.64-.03,46.08-.03,92.16-.03,138.24-1.32,.68-2.74,.39-4.12,.39-216,.01-431.99,.02-647.99,.02,0-.32-.17-.43-.47-.37-.02-40.1-.03-80.2-.05-120.3,0-7.38,.01-14.76,.02-22.14,216.44,0,432.87,0,649.31,0,1.17,0,2.42,.27,3.46-.56Z"/>
  <path class="cls-5" d="M1285.73,394.07c-1.05,.84-2.29,.56-3.46,.56-216.44,0-432.87,0-649.31,0-.03-1.56-.05-3.13-.08-4.69,215.39,0,430.79,0,646.18,0,.5,0,1.01,.08,1.49-.01,3.4-.69,5.16,.63,5.18,4.14Z"/>
  <path class="cls-7" d="M1285.57,537.04c0-46.08,0-92.16,.03-138.24,0-1.21-.56-2.58,.59-3.63,.28,.02,.55,.03,.83,.05,0,46.06,0,92.13-.07,138.19,0,1.24,1.04,3.18-1.37,3.63Z"/>
  <path class="cls-3" d="M1287.01,395.22c-.28-.02-.55-.03-.83-.05,.04-.37,.08-.74,.12-1.11,.66,.12,1.34,.24,.71,1.16Z"/>
  <path class="cls-8" d="M632.98,537.07c.3-.05,.47,.05,.47,.37-.43,.22-.58,.09-.47-.37Z"/>
  <path class="cls-1" d="M659.14,368.34c-1.04,.83-2.27,.55-3.43,.55-7.62,.03-15.24,.03-22.85,.04,.14-1.03,.87-1.22,1.73-1.22,7.74,.01,15.49,.02,23.23,.06,.44,0,.89,.37,1.33,.56Z"/>
  <path class="cls-9" d="M662.18,367.75c-.22,.18-.44,.36-.65,.54,.22-.18,.44-.36,.65-.54Z"/>
</svg>