<svg version="1.1" id="Layer_1" xmlns="http://www.w3.org/2000/svg" xmlns:xlink="http://www.w3.org/1999/xlink" x="0px" y="0px"
	 width="100%" viewBox="0 0 512 512" enable-background="new 0 0 512 512" xml:space="preserve">
<path fill="#000000" opacity="0.000000" stroke="none" 
	d="
M513.000000,285.000000 
	C513.000000,360.973297 513.000000,436.946564 513.000000,512.959961 
	C342.420074,512.959961 171.840134,512.959961 1.000000,512.959961 
	C1.000000,351.976776 1.000000,190.953400 1.264191,29.150249 
	C3.471347,30.268419 5.103216,32.758923 7.407483,33.968681 
	C23.015280,42.162918 38.847477,49.930920 54.429249,58.172989 
	C60.814934,61.550728 67.010307,63.235443 74.031624,60.380882 
	C74.803383,62.715504 75.530548,64.665222 75.974289,66.677444 
	C80.568863,87.511971 85.093887,108.361824 89.686455,129.196793 
	C93.756035,147.659088 97.906616,166.103500 101.984917,184.563889 
	C106.620926,205.548706 111.258118,226.533447 115.815903,247.535324 
	C119.278236,263.489471 122.506256,279.495148 126.055679,295.429535 
	C127.957497,303.967285 129.595627,312.782867 137.845428,318.372681 
	C130.849396,330.486603 123.614258,342.099915 117.023941,354.068298 
	C106.698357,372.820099 96.806953,391.811035 86.734444,410.702179 
	C77.795456,427.467377 68.860268,444.234619 59.565369,461.031036 
	C43.116978,466.623505 38.804932,481.648956 42.033360,492.606689 
	C44.571091,501.220154 53.759052,509.233032 62.370819,509.983948 
	C73.617798,510.964661 83.469765,505.803558 88.060066,496.991119 
	C91.464668,490.454956 91.327957,483.781799 90.064339,476.575867 
	C97.821770,462.261505 105.529602,448.326019 113.004456,434.266724 
	C127.134003,407.690735 141.191498,381.075958 155.147507,354.408508 
	C160.049210,345.042145 165.766998,336.362366 173.964722,329.554657 
	C177.920670,326.269470 182.056274,323.200623 186.561325,320.019836 
	C194.584442,319.659454 202.164642,319.433441 209.727371,318.939972 
	C222.805832,318.086578 235.873474,317.067291 249.104004,316.438995 
	C268.306061,328.138062 287.450409,339.351288 306.366852,350.936737 
	C327.903076,364.126709 349.187531,377.727020 370.670227,391.005310 
	C393.498444,405.115265 416.507263,418.934601 439.257507,433.168060 
	C444.221008,436.273407 447.458466,440.940735 447.080902,447.537292 
	C446.710693,454.005371 447.002594,460.511383 446.690094,467.138580 
	C440.244263,474.646393 437.335419,482.780304 440.020142,492.430786 
	C442.605133,501.722900 452.484924,509.434448 461.758728,510.083282 
	C474.750519,510.992249 484.345825,502.251648 487.286652,493.719543 
	C490.900208,483.235718 487.889587,474.818024 481.057190,466.545746 
	C480.673981,457.335632 480.625427,448.570190 479.937500,439.855255 
	C478.818024,425.673615 471.831116,414.485413 460.181519,406.802704 
	C442.998505,395.470764 425.325806,384.881134 407.855835,373.984589 
	C392.864655,364.634155 377.876770,355.278381 362.866760,345.958282 
	C344.624359,334.631073 326.360291,323.338745 308.553955,312.017273 
	C317.499573,311.336029 325.992584,310.606812 334.495117,310.015320 
	C349.575378,308.966278 364.656708,307.921387 379.746521,307.024353 
	C392.904907,306.242096 406.076538,305.684479 419.240326,304.989838 
	C424.659485,304.703857 430.077362,304.371399 435.489044,303.969360 
	C452.995697,302.668854 470.485565,301.084534 488.009247,300.093018 
	C498.067627,299.523895 505.759094,295.768005 510.711792,286.818634 
	C511.147491,286.031433 512.222168,285.597839 513.000000,285.000000 
z"/>
<path fill="#DAD8DB" opacity="1.000000" stroke="none" 
	d="
M513.000000,103.000000 
	C513.000000,156.687561 513.000000,210.375122 512.579712,264.551392 
	C506.733002,265.711365 501.306641,266.382599 495.445862,267.029236 
	C492.590942,267.334961 490.180054,267.809021 487.748322,267.972290 
	C472.150665,269.019470 456.546661,269.970825 440.948334,271.007996 
	C426.499847,271.968750 412.057343,273.018585 397.609558,273.990234 
	C382.338104,275.017303 367.062805,275.987396 351.790619,277.003326 
	C342.108856,277.647369 332.431061,278.350891 322.748993,278.990112 
	C307.304626,280.009766 291.862152,281.065979 276.411377,281.978851 
	C263.399048,282.747620 250.374985,283.315491 237.358170,284.010803 
	C232.095657,284.291901 226.834167,284.617615 221.579895,285.022614 
	C204.704468,286.323364 187.839630,287.769836 170.956436,288.957245 
	C162.715179,289.536896 154.440582,289.632050 146.185959,290.044098 
	C145.120422,290.097290 144.084229,290.738281 142.882126,290.750793 
	C141.497803,284.893585 140.265808,279.392578 139.458740,273.931213 
	C140.783737,273.648956 141.670013,273.094574 142.585953,273.040314 
	C154.752975,272.319336 166.926758,271.710999 179.092468,270.969788 
	C182.080887,270.787720 185.046371,270.229340 188.145035,269.828064 
	C184.868790,249.549545 181.694855,229.904312 178.496552,210.108185 
	C160.645294,210.108185 142.842697,210.108185 124.884964,209.750717 
	C123.498291,203.558014 122.266769,197.722763 121.499191,191.938782 
	C139.538132,191.990021 157.113144,191.990021 175.531006,191.990021 
	C174.619156,186.620621 173.751404,181.874512 173.015060,177.108109 
	C170.639221,161.728806 168.344864,146.336853 165.943512,130.961594 
	C165.303101,126.861084 163.398666,124.642082 158.552017,124.854729 
	C152.505844,125.120026 146.404343,124.433144 140.342239,123.959114 
	C128.931213,123.066826 117.531319,122.032486 105.832764,120.822998 
	C104.042381,114.342400 102.546036,108.096008 101.421158,102.002991 
	C102.025475,102.379547 102.238586,102.771301 102.494072,102.801224 
	C108.948875,103.557297 115.402519,104.330719 121.868088,104.985291 
	C129.011307,105.708466 136.158188,106.428040 143.318390,106.941040 
	C149.487976,107.383072 155.678528,107.532684 161.813812,107.809502 
	C159.844559,94.899132 157.975067,82.264389 155.909058,69.661865 
	C155.693710,68.348206 154.554474,66.566689 153.423492,66.153801 
	C151.197891,65.341301 148.677536,65.333435 146.277985,65.000793 
	C137.431183,63.774357 128.592987,62.480682 119.734383,61.346313 
	C110.542923,60.169331 101.331551,59.147778 91.849701,57.793755 
	C90.386452,51.743412 89.202385,45.957561 88.447510,40.096214 
	C95.512047,40.776997 102.159531,41.440929 108.779694,42.312435 
	C117.466492,43.456001 126.120972,44.846046 134.809265,45.977005 
	C143.706375,47.135147 152.640472,48.010914 161.534485,49.190498 
	C170.215561,50.341843 178.851227,51.837708 187.534790,52.967552 
	C196.436813,54.125816 205.389481,54.896286 214.289612,56.067345 
	C225.881882,57.592640 237.435242,59.411858 249.022461,60.978012 
	C257.416534,62.112579 265.849152,62.960640 274.245270,64.081451 
	C285.997284,65.650253 297.721436,67.429176 309.476349,68.974823 
	C318.036560,70.100403 326.639862,70.897598 335.200897,72.017532 
	C344.538452,73.239037 353.840271,74.731911 363.174622,75.979950 
	C371.562500,77.101440 379.988159,77.944351 388.370422,79.103439 
	C399.460175,80.636925 410.505737,82.495682 421.603729,83.961586 
	C433.061951,85.475090 444.572266,86.590904 456.037659,88.054024 
	C468.119995,89.595856 480.176025,91.344147 492.243927,92.999374 
	C499.847443,94.042259 507.563568,94.851089 511.560669,102.945389 
	C511.661957,103.150490 512.503662,102.989983 513.000000,103.000000 
M228.694931,130.998871 
	C213.598541,129.632202 198.502151,128.265533 182.546448,126.821068 
	C186.160233,148.995911 189.658997,170.465012 193.120377,191.704681 
	C211.442352,191.704681 229.169403,191.704681 246.648041,191.704681 
	C246.066925,184.934692 245.631744,178.423569 244.924194,171.942200 
	C243.705399,160.777481 242.081833,149.652100 241.091904,138.469147 
	C240.536285,132.192490 239.851517,131.035324 233.621811,131.001038 
	C232.290451,130.993698 230.959030,130.999771 228.694931,130.998871 
M280.585083,134.999878 
	C273.166687,134.317963 265.748260,133.636047 257.782196,132.903793 
	C259.974457,152.919693 262.097229,172.301102 264.229706,191.771179 
	C281.522644,191.771179 298.578156,191.771179 315.534821,191.771179 
	C315.010162,186.033768 314.386475,180.519165 314.024994,174.987442 
	C313.275909,163.522354 312.751373,152.041687 311.878082,140.586975 
	C311.782043,139.327087 310.109558,137.261749 309.007904,137.150009 
	C299.869141,136.222839 290.692596,135.667587 280.585083,134.999878 
M250.000244,221.429184 
	C249.599625,217.724976 249.199005,214.020782 248.808655,210.411453 
	C231.062378,210.411453 213.571594,210.411453 196.205917,210.411453 
	C196.867462,215.301514 197.365601,219.820435 198.105896,224.299332 
	C200.353683,237.899002 202.842575,251.461090 204.885559,265.090576 
	C205.337738,268.107147 206.265198,269.237305 209.170364,269.012787 
	C214.085251,268.632874 219.007523,268.349548 223.924606,267.996704 
	C234.221390,267.257874 244.516830,266.500244 254.966736,265.739105 
	C253.293594,251.121323 251.647186,236.737213 250.000244,221.429184 
M319.000366,238.385529 
	C318.314270,228.970016 317.628174,219.554489 316.950317,210.251892 
	C299.595306,210.251892 282.854126,210.251892 266.169373,210.251892 
	C268.227631,228.597229 270.258667,246.700073 272.332245,265.181885 
	C274.602844,264.758240 276.619751,264.155304 278.664612,264.037292 
	C291.476776,263.297974 304.290833,262.547119 317.114380,262.076324 
	C320.727142,261.943665 321.285004,260.168793 320.976959,257.310486 
	C320.330933,251.316040 319.660675,245.324173 319.000366,238.385529 
M366.713226,141.999802 
	C354.229279,140.884628 341.745300,139.769440 328.804596,138.613464 
	C330.268616,156.990967 331.652435,174.362335 333.037109,191.743988 
	C348.237122,191.743988 362.961304,191.743988 378.197540,191.743988 
	C377.490692,175.086960 376.795654,158.707855 376.086670,142.000031 
	C372.916351,142.000031 370.288116,142.000031 366.713226,141.999802 
M237.266724,113.925598 
	C237.509216,113.351639 238.005539,112.754723 237.956024,112.207161 
	C237.233688,104.219887 236.502960,96.232162 235.633820,88.259850 
	C235.185638,84.148872 234.460358,80.068108 233.927414,76.431725 
	C213.184204,73.745834 193.214294,71.160072 172.363144,68.460197 
	C173.202393,70.253479 173.618408,70.797836 173.711731,71.392815 
	C175.497467,82.777344 177.345093,94.153915 178.935440,105.566193 
	C179.369705,108.682564 180.297974,110.086678 183.759201,110.094833 
	C190.349548,110.110367 196.950165,110.538895 203.525543,111.060219 
	C214.472534,111.928146 225.403000,113.004356 237.266724,113.925598 
M334.611176,213.068771 
	C335.766663,228.593735 336.922150,244.118713 338.104156,260.000061 
	C340.047119,260.000061 341.682159,260.097717 343.302307,259.983826 
	C352.305847,259.350983 361.303680,258.635162 370.308228,258.017273 
	C373.447968,257.801788 377.652832,258.944641 379.434143,257.330048 
	C381.016205,255.896072 379.981781,251.503052 379.988434,248.415924 
	C380.015869,235.717331 379.999908,223.018646 379.999908,210.002945 
	C364.389893,210.002945 350.268707,209.969650 336.149017,210.101685 
	C335.445984,210.108261 334.756378,211.551086 334.611176,213.068771 
M394.062317,144.823792 
	C394.410156,160.489700 394.758026,176.155609 395.102631,191.675781 
	C410.031830,191.675781 424.428345,191.675781 439.000031,191.675781 
	C439.000031,177.875259 438.929199,164.397537 439.052673,150.921616 
	C439.081482,147.776184 437.834381,146.790070 434.893402,146.964569 
	C432.238495,147.122116 429.551239,147.155411 426.903412,146.937408 
	C416.146851,146.051697 405.399933,145.048218 394.062317,144.823792 
M280.732941,82.993523 
	C271.311737,81.588852 261.890533,80.184181 251.852921,78.687607 
	C253.290482,91.596886 254.644699,103.757767 255.966675,115.629044 
	C274.408051,117.087631 292.108795,118.487640 310.106873,119.911163 
	C309.232422,108.228554 308.403412,97.153252 307.577606,86.120590 
	C298.788696,85.062752 290.217133,84.031082 280.732941,82.993523 
M397.001434,221.833099 
	C397.222656,233.163818 397.443909,244.494537 397.674988,256.328522 
	C412.056396,255.382477 425.446350,254.501678 438.665588,253.632095 
	C438.665588,238.947449 438.665588,224.550598 438.665588,210.337494 
	C424.260284,210.337494 410.191589,210.337494 395.734833,210.337494 
	C396.037933,214.127518 396.312042,217.555191 397.001434,221.833099 
M482.491638,191.999878 
	C486.917328,191.999878 491.343018,191.999878 495.738892,191.999878 
	C495.738892,178.366791 495.738892,165.313919 495.738892,152.184158 
	C482.403137,151.062103 469.321167,149.961380 456.308411,148.866501 
	C456.308411,163.708878 456.308411,177.750916 456.308411,191.999878 
	C464.908661,191.999878 473.201843,191.999878 482.491638,191.999878 
M471.503479,210.000122 
	C466.410339,210.000122 461.317200,210.000122 456.295624,210.000122 
	C456.295624,224.320526 456.295624,238.045410 456.295624,252.394547 
	C469.680023,251.504364 482.729279,250.636475 495.703857,249.773560 
	C495.703857,236.348755 495.703857,223.290771 495.703857,210.000122 
	C487.773590,210.000122 480.137756,210.000122 471.503479,210.000122 
M351.331696,123.000168 
	C359.420898,123.758629 367.510132,124.517082 375.363220,125.253403 
	C375.202667,123.225647 375.019806,121.945442 375.013672,120.664391 
	C374.983459,114.340691 374.882111,108.013802 375.041412,101.693977 
	C375.148071,97.464577 373.709503,94.679443 369.256378,94.107742 
	C358.439880,92.719109 347.622162,91.338600 336.797516,90.015404 
	C332.973846,89.548004 329.128693,89.256523 325.032684,88.859451 
	C325.846893,99.831291 326.609772,110.111748 327.438629,121.281296 
	C334.885498,121.839104 342.635590,122.419617 351.331696,123.000168 
M393.756012,126.926170 
	C408.733582,127.963600 423.711182,129.001022 438.999390,130.059967 
	C438.999390,121.829063 439.106018,114.207245 438.890320,106.594566 
	C438.855957,105.381424 437.530273,103.341209 436.535919,103.162613 
	C431.102173,102.186714 425.583832,101.685562 420.097565,100.997475 
	C410.815216,99.833313 401.535126,98.651405 391.638824,97.399094 
	C392.126862,107.188759 392.602417,116.728638 393.756012,126.926170 
M495.995544,133.159897 
	C495.995544,125.865059 495.995544,118.570221 495.995544,111.156937 
	C482.489136,109.357430 469.390106,107.612206 456.334137,105.872719 
	C456.334137,115.064201 456.334137,123.469604 456.334137,131.493561 
	C465.024628,132.350449 473.336639,133.318207 481.674591,133.934662 
	C486.411469,134.284897 491.190796,134.060211 495.995544,133.159897 
z"/>
<path fill="#000000" opacity="0.000000" stroke="none" 
	d="
M513.000000,102.531342 
	C512.503662,102.989983 511.661957,103.150490 511.560669,102.945389 
	C507.563568,94.851089 499.847443,94.042259 492.243927,92.999374 
	C480.176025,91.344147 468.119995,89.595856 456.037659,88.054024 
	C444.572266,86.590904 433.061951,85.475090 421.603729,83.961586 
	C410.505737,82.495682 399.460175,80.636925 388.370422,79.103439 
	C379.988159,77.944351 371.562500,77.101440 363.174622,75.979950 
	C353.840271,74.731911 344.538452,73.239037 335.200897,72.017532 
	C326.639862,70.897598 318.036560,70.100403 309.476349,68.974823 
	C297.721436,67.429176 285.997284,65.650253 274.245270,64.081451 
	C265.849152,62.960640 257.416534,62.112579 249.022461,60.978012 
	C237.435242,59.411858 225.881882,57.592640 214.289612,56.067345 
	C205.389481,54.896286 196.436813,54.125816 187.534790,52.967552 
	C178.851227,51.837708 170.215561,50.341843 161.534485,49.190498 
	C152.640472,48.010914 143.706375,47.135147 134.809265,45.977005 
	C126.120972,44.846046 117.466492,43.456001 108.779694,42.312435 
	C102.159531,41.440929 95.512047,40.776997 88.051056,40.014221 
	C85.412796,39.724819 83.600182,39.441906 81.514435,38.942627 
	C78.938797,35.845684 77.225334,31.852999 74.235794,30.269550 
	C57.897617,21.615828 41.369175,13.293226 24.652702,5.393066 
	C15.567286,1.099323 4.556505,5.770885 1.900121,14.291189 
	C1.395117,14.371860 1.197559,14.185930 1.000000,14.000000 
	C1.000000,9.669690 1.000000,5.339380 1.000000,1.006803 
	C171.544556,1.004535 342.089111,1.004535 513.000000,1.004535 
	C513.000000,34.686676 513.000000,68.374680 513.000000,102.531342 
z"/>
<path fill="#C8C5C9" opacity="1.000000" stroke="none" 
	d="
M81.787575,39.158993 
	C83.600182,39.441906 85.412796,39.724819 87.621857,40.089718 
	C89.202385,45.957561 90.386452,51.743412 91.799522,58.207214 
	C92.888123,62.972107 93.749107,67.058762 94.607063,71.146042 
	C96.755333,81.380417 98.902237,91.615067 101.049690,101.849609 
	C102.546036,108.096008 104.042381,114.342400 105.782211,121.239670 
	C107.839371,130.573929 109.610001,139.266602 111.476402,147.938660 
	C114.630768,162.595139 117.845749,177.238602 121.035248,191.887527 
	C122.266769,197.722763 123.498291,203.558014 125.019920,210.118103 
	C128.211044,224.003189 131.131378,237.159195 134.005814,250.325226 
	C135.719070,258.172546 137.360229,266.035583 139.033798,273.891571 
	C140.265808,279.392578 141.497803,284.893585 142.876495,291.146210 
	C143.348846,293.135010 143.796051,294.354492 143.978912,295.612427 
	C144.741425,300.858246 147.657333,305.847076 154.581924,305.095459 
	C164.215393,304.049744 173.922577,303.691528 183.594879,302.992889 
	C192.273163,302.366028 200.941101,301.584747 209.623932,301.034760 
	C226.546204,299.962921 243.474472,298.983887 260.402771,298.010529 
	C267.317993,297.612915 274.250793,297.478516 281.156342,296.965363 
	C297.848450,295.724945 314.526764,294.300079 331.215515,293.013245 
	C340.718475,292.280457 350.228668,291.635040 359.739960,291.017456 
	C375.665436,289.983459 391.596313,289.032990 407.521088,287.988831 
	C416.700470,287.386963 425.867462,286.591980 435.048584,286.022125 
	C452.137573,284.961517 469.228851,283.924896 486.327606,283.042358 
	C492.233215,282.737549 497.086395,279.489624 496.043549,273.035095 
	C495.728271,271.083496 495.920502,269.049896 495.880249,267.053833 
	C501.306641,266.382599 506.733002,265.711365 512.579712,265.020081 
	C513.000000,271.354401 513.000000,277.708801 513.000000,284.531616 
	C512.222168,285.597839 511.147491,286.031433 510.711792,286.818634 
	C505.759094,295.768005 498.067627,299.523895 488.009247,300.093018 
	C470.485565,301.084534 452.995697,302.668854 435.489044,303.969360 
	C430.077362,304.371399 424.659485,304.703857 419.240326,304.989838 
	C406.076538,305.684479 392.904907,306.242096 379.746521,307.024353 
	C364.656708,307.921387 349.575378,308.966278 334.495117,310.015320 
	C325.992584,310.606812 317.499573,311.336029 308.081665,312.008972 
	C288.483032,313.029663 269.804443,314.033752 251.129333,315.099030 
	C250.384491,315.141510 249.672791,315.764893 248.945648,316.117584 
	C235.873474,317.067291 222.805832,318.086578 209.727371,318.939972 
	C202.164642,319.433441 194.584442,319.659454 186.091919,320.010162 
	C181.862396,320.070038 178.545349,319.999908 175.245163,320.203583 
	C162.703308,320.977539 150.015213,324.475006 137.895447,318.031281 
	C129.595627,312.782867 127.957497,303.967285 126.055679,295.429535 
	C122.506256,279.495148 119.278236,263.489471 115.815903,247.535324 
	C111.258118,226.533447 106.620926,205.548706 101.984917,184.563889 
	C97.906616,166.103500 93.756035,147.659088 89.686455,129.196793 
	C85.093887,108.361824 80.568863,87.511971 75.974289,66.677444 
	C75.530548,64.665222 74.803383,62.715504 74.194199,60.083595 
	C76.190796,56.972275 78.200974,54.514130 80.460243,51.774361 
	C81.068748,47.381493 81.428162,43.270241 81.787575,39.158993 
z"/>
<path fill="#E5646E" opacity="1.000000" stroke="none" 
	d="
M80.211151,52.055984 
	C78.200974,54.514130 76.190796,56.972275 74.018044,59.727703 
	C67.010307,63.235443 60.814934,61.550728 54.429249,58.172989 
	C38.847477,49.930920 23.015280,42.162918 7.407483,33.968681 
	C5.103216,32.758923 3.471347,30.268419 1.264191,28.685238 
	C1.000000,24.310745 1.000000,19.621489 1.000000,14.466117 
	C1.197559,14.185930 1.395117,14.371860 2.263928,14.289186 
	C4.772351,14.751010 6.673456,15.353042 8.437038,16.231243 
	C32.372890,28.150438 56.289665,40.107941 80.211151,52.055984 
z"/>
<path fill="#DAD8DB" opacity="1.000000" stroke="none" 
	d="
M249.104004,316.438995 
	C249.672791,315.764893 250.384491,315.141510 251.129333,315.099030 
	C269.804443,314.033752 288.483032,313.029663 307.633301,312.023041 
	C326.360291,323.338745 344.624359,334.631073 362.866760,345.958282 
	C377.876770,355.278381 392.864655,364.634155 407.855835,373.984589 
	C425.325806,384.881134 442.998505,395.470764 460.181519,406.802704 
	C471.831116,414.485413 478.818024,425.673615 479.937500,439.855255 
	C480.625427,448.570190 480.673981,457.335632 480.701416,466.512695 
	C477.192261,465.276703 474.136566,463.187164 470.762054,462.017578 
	C461.959747,458.966827 454.283020,462.261230 447.003906,467.000732 
	C447.002594,460.511383 446.710693,454.005371 447.080902,447.537292 
	C447.458466,440.940735 444.221008,436.273407 439.257507,433.168060 
	C416.507263,418.934601 393.498444,405.115265 370.670227,391.005310 
	C349.187531,377.727020 327.903076,364.126709 306.366852,350.936737 
	C287.450409,339.351288 268.306061,328.138062 249.104004,316.438995 
z"/>
<path fill="#DAD8DB" opacity="1.000000" stroke="none" 
	d="
M137.845428,318.372681 
	C150.015213,324.475006 162.703308,320.977539 175.245163,320.203583 
	C178.545349,319.999908 181.862396,320.070038 185.641113,320.024139 
	C182.056274,323.200623 177.920670,326.269470 173.964722,329.554657 
	C165.766998,336.362366 160.049210,345.042145 155.147507,354.408508 
	C141.191498,381.075958 127.134003,407.690735 113.004456,434.266724 
	C105.529602,448.326019 97.821770,462.261505 89.731163,476.512482 
	C85.336372,469.257874 80.055283,463.224365 71.296570,461.624939 
	C67.591080,460.948334 63.719486,461.181366 59.923393,461.000946 
	C68.860268,444.234619 77.795456,427.467377 86.734444,410.702179 
	C96.806953,391.811035 106.698357,372.820099 117.023941,354.068298 
	C123.614258,342.099915 130.849396,330.486603 137.845428,318.372681 
z"/>
<path fill="#5E5461" opacity="1.000000" stroke="none" 
	d="
M59.565365,461.031036 
	C63.719486,461.181366 67.591080,460.948334 71.296570,461.624939 
	C80.055283,463.224365 85.336372,469.257874 89.576385,476.835510 
	C91.327957,483.781799 91.464668,490.454956 88.060066,496.991119 
	C83.469765,505.803558 73.617798,510.964661 62.370819,509.983948 
	C53.759052,509.233032 44.571091,501.220154 42.033360,492.606689 
	C38.804932,481.648956 43.116978,466.623505 59.565365,461.031036 
M61.299618,478.670227 
	C60.267006,481.621643 58.216404,484.691254 58.540840,487.485077 
	C58.777912,489.526611 61.847538,491.962372 64.179710,492.864014 
	C67.487206,494.142700 71.389565,492.997955 72.560333,489.483917 
	C73.477600,486.730804 73.433693,482.782654 72.067329,480.346802 
	C69.975327,476.617310 65.886009,476.309113 61.299618,478.670227 
z"/>
<path fill="#5E5461" opacity="1.000000" stroke="none" 
	d="
M446.690094,467.138580 
	C454.283020,462.261230 461.959747,458.966827 470.762054,462.017578 
	C474.136566,463.187164 477.192261,465.276703 480.748962,466.980042 
	C487.889587,474.818024 490.900208,483.235718 487.286652,493.719543 
	C484.345825,502.251648 474.750519,510.992249 461.758728,510.083282 
	C452.484924,509.434448 442.605133,501.722900 440.020142,492.430786 
	C437.335419,482.780304 440.244263,474.646393 446.690094,467.138580 
M455.955444,484.672089 
	C456.604309,490.783905 459.904633,493.811401 465.183136,493.137054 
	C469.658356,492.565338 472.817841,488.223022 471.885956,483.727722 
	C471.078735,479.834015 468.415253,477.531219 464.620270,477.257080 
	C460.070465,476.928467 457.095062,479.333496 455.955444,484.672089 
z"/>
<path fill="#000000" opacity="0.000000" stroke="none" 
	d="
M495.445862,267.029236 
	C495.920502,269.049896 495.728271,271.083496 496.043549,273.035095 
	C497.086395,279.489624 492.233215,282.737549 486.327606,283.042358 
	C469.228851,283.924896 452.137573,284.961517 435.048584,286.022125 
	C425.867462,286.591980 416.700470,287.386963 407.521088,287.988831 
	C391.596313,289.032990 375.665436,289.983459 359.739960,291.017456 
	C350.228668,291.635040 340.718475,292.280457 331.215515,293.013245 
	C314.526764,294.300079 297.848450,295.724945 281.156342,296.965363 
	C274.250793,297.478516 267.317993,297.612915 260.402771,298.010529 
	C243.474472,298.983887 226.546204,299.962921 209.623932,301.034760 
	C200.941101,301.584747 192.273163,302.366028 183.594879,302.992889 
	C173.922577,303.691528 164.215393,304.049744 154.581924,305.095459 
	C147.657333,305.847076 144.741425,300.858246 143.978912,295.612427 
	C143.796051,294.354492 143.348846,293.135010 143.028839,291.502441 
	C144.084229,290.738281 145.120422,290.097290 146.185959,290.044098 
	C154.440582,289.632050 162.715179,289.536896 170.956436,288.957245 
	C187.839630,287.769836 204.704468,286.323364 221.579895,285.022614 
	C226.834167,284.617615 232.095657,284.291901 237.358170,284.010803 
	C250.374985,283.315491 263.399048,282.747620 276.411377,281.978851 
	C291.862152,281.065979 307.304626,280.009766 322.748993,278.990112 
	C332.431061,278.350891 342.108856,277.647369 351.790619,277.003326 
	C367.062805,275.987396 382.338104,275.017303 397.609558,273.990234 
	C412.057343,273.018585 426.499847,271.968750 440.948334,271.007996 
	C456.546661,269.970825 472.150665,269.019470 487.748322,267.972290 
	C490.180054,267.809021 492.590942,267.334961 495.445862,267.029236 
z"/>
<path fill="#000000" opacity="0.000000" stroke="none" 
	d="
M121.499191,191.938782 
	C117.845749,177.238602 114.630768,162.595139 111.476402,147.938660 
	C109.610001,139.266602 107.839371,130.573929 106.076248,121.473869 
	C117.531319,122.032486 128.931213,123.066826 140.342239,123.959114 
	C146.404343,124.433144 152.505844,125.120026 158.552017,124.854729 
	C163.398666,124.642082 165.303101,126.861084 165.943512,130.961594 
	C168.344864,146.336853 170.639221,161.728806 173.015060,177.108109 
	C173.751404,181.874512 174.619156,186.620621 175.531006,191.990021 
	C157.113144,191.990021 139.538132,191.990021 121.499191,191.938782 
z"/>
<path fill="#000000" opacity="0.000000" stroke="none" 
	d="
M229.161285,130.999268 
	C230.959030,130.999771 232.290451,130.993698 233.621811,131.001038 
	C239.851517,131.035324 240.536285,132.192490 241.091904,138.469147 
	C242.081833,149.652100 243.705399,160.777481 244.924194,171.942200 
	C245.631744,178.423569 246.066925,184.934692 246.648041,191.704681 
	C229.169403,191.704681 211.442352,191.704681 193.120377,191.704681 
	C189.658997,170.465012 186.160233,148.995911 182.546448,126.821068 
	C198.502151,128.265533 213.598541,129.632202 229.161285,130.999268 
z"/>
<path fill="#000000" opacity="0.000000" stroke="none" 
	d="
M139.458740,273.931213 
	C137.360229,266.035583 135.719070,258.172546 134.005814,250.325226 
	C131.131378,237.159195 128.211044,224.003189 125.175064,210.475571 
	C142.842697,210.108185 160.645294,210.108185 178.496552,210.108185 
	C181.694855,229.904312 184.868790,249.549545 188.145035,269.828064 
	C185.046371,270.229340 182.080887,270.787720 179.092468,270.969788 
	C166.926758,271.710999 154.752975,272.319336 142.585953,273.040314 
	C141.670013,273.094574 140.783737,273.648956 139.458740,273.931213 
z"/>
<path fill="#000000" opacity="0.000000" stroke="none" 
	d="
M281.056274,134.999878 
	C290.692596,135.667587 299.869141,136.222839 309.007904,137.150009 
	C310.109558,137.261749 311.782043,139.327087 311.878082,140.586975 
	C312.751373,152.041687 313.275909,163.522354 314.024994,174.987442 
	C314.386475,180.519165 315.010162,186.033768 315.534821,191.771179 
	C298.578156,191.771179 281.522644,191.771179 264.229706,191.771179 
	C262.097229,172.301102 259.974457,152.919693 257.782196,132.903793 
	C265.748260,133.636047 273.166687,134.317963 281.056274,134.999878 
z"/>
<path fill="#000000" opacity="0.000000" stroke="none" 
	d="
M250.000519,221.891144 
	C251.647186,236.737213 253.293594,251.121323 254.966736,265.739105 
	C244.516830,266.500244 234.221390,267.257874 223.924606,267.996704 
	C219.007523,268.349548 214.085251,268.632874 209.170364,269.012787 
	C206.265198,269.237305 205.337738,268.107147 204.885559,265.090576 
	C202.842575,251.461090 200.353683,237.899002 198.105896,224.299332 
	C197.365601,219.820435 196.867462,215.301514 196.205917,210.411453 
	C213.571594,210.411453 231.062378,210.411453 248.808655,210.411453 
	C249.199005,214.020782 249.599625,217.724976 250.000519,221.891144 
z"/>
<path fill="#000000" opacity="0.000000" stroke="none" 
	d="
M101.421158,102.002991 
	C98.902237,91.615067 96.755333,81.380417 94.607063,71.146042 
	C93.749107,67.058762 92.888123,62.972107 92.078705,58.471703 
	C101.331551,59.147778 110.542923,60.169331 119.734383,61.346313 
	C128.592987,62.480682 137.431183,63.774357 146.277985,65.000793 
	C148.677536,65.333435 151.197891,65.341301 153.423492,66.153801 
	C154.554474,66.566689 155.693710,68.348206 155.909058,69.661865 
	C157.975067,82.264389 159.844559,94.899132 161.813812,107.809502 
	C155.678528,107.532684 149.487976,107.383072 143.318390,106.941040 
	C136.158188,106.428040 129.011307,105.708466 121.868088,104.985291 
	C115.402519,104.330719 108.948875,103.557297 102.494072,102.801224 
	C102.238586,102.771301 102.025475,102.379547 101.421158,102.002991 
z"/>
<path fill="#000000" opacity="0.000000" stroke="none" 
	d="
M319.000366,238.858398 
	C319.660675,245.324173 320.330933,251.316040 320.976959,257.310486 
	C321.285004,260.168793 320.727142,261.943665 317.114380,262.076324 
	C304.290833,262.547119 291.476776,263.297974 278.664612,264.037292 
	C276.619751,264.155304 274.602844,264.758240 272.332245,265.181885 
	C270.258667,246.700073 268.227631,228.597229 266.169373,210.251892 
	C282.854126,210.251892 299.595306,210.251892 316.950317,210.251892 
	C317.628174,219.554489 318.314270,228.970016 319.000366,238.858398 
z"/>
<path fill="#000000" opacity="0.000000" stroke="none" 
	d="
M367.186523,141.999908 
	C370.288116,142.000031 372.916351,142.000031 376.086670,142.000031 
	C376.795654,158.707855 377.490692,175.086960 378.197540,191.743988 
	C362.961304,191.743988 348.237122,191.743988 333.037109,191.743988 
	C331.652435,174.362335 330.268616,156.990967 328.804596,138.613464 
	C341.745300,139.769440 354.229279,140.884628 367.186523,141.999908 
z"/>
<path fill="#000000" opacity="0.000000" stroke="none" 
	d="
M236.803574,113.959229 
	C225.403000,113.004356 214.472534,111.928146 203.525543,111.060219 
	C196.950165,110.538895 190.349548,110.110367 183.759201,110.094833 
	C180.297974,110.086678 179.369705,108.682564 178.935440,105.566193 
	C177.345093,94.153915 175.497467,82.777344 173.711731,71.392815 
	C173.618408,70.797836 173.202393,70.253479 172.363144,68.460197 
	C193.214294,71.160072 213.184204,73.745834 233.927414,76.431725 
	C234.460358,80.068108 235.185638,84.148872 235.633820,88.259850 
	C236.502960,96.232162 237.233688,104.219887 237.956024,112.207161 
	C238.005539,112.754723 237.509216,113.351639 236.803574,113.959229 
z"/>
<path fill="#000000" opacity="0.000000" stroke="none" 
	d="
M334.335846,212.696960 
	C334.756378,211.551086 335.445984,210.108261 336.149017,210.101685 
	C350.268707,209.969650 364.389893,210.002945 379.999908,210.002945 
	C379.999908,223.018646 380.015869,235.717331 379.988434,248.415924 
	C379.981781,251.503052 381.016205,255.896072 379.434143,257.330048 
	C377.652832,258.944641 373.447968,257.801788 370.308228,258.017273 
	C361.303680,258.635162 352.305847,259.350983 343.302307,259.983826 
	C341.682159,260.097717 340.047119,260.000061 338.104156,260.000061 
	C336.922150,244.118713 335.766663,228.593735 334.335846,212.696960 
z"/>
<path fill="#000000" opacity="0.000000" stroke="none" 
	d="
M394.355896,144.455978 
	C405.399933,145.048218 416.146851,146.051697 426.903412,146.937408 
	C429.551239,147.155411 432.238495,147.122116 434.893402,146.964569 
	C437.834381,146.790070 439.081482,147.776184 439.052673,150.921616 
	C438.929199,164.397537 439.000031,177.875259 439.000031,191.675781 
	C424.428345,191.675781 410.031830,191.675781 395.102631,191.675781 
	C394.758026,176.155609 394.410156,160.489700 394.355896,144.455978 
z"/>
<path fill="#000000" opacity="0.000000" stroke="none" 
	d="
M281.189270,82.996460 
	C290.217133,84.031082 298.788696,85.062752 307.577606,86.120590 
	C308.403412,97.153252 309.232422,108.228554 310.106873,119.911163 
	C292.108795,118.487640 274.408051,117.087631 255.966675,115.629044 
	C254.644699,103.757767 253.290482,91.596886 251.852921,78.687607 
	C261.890533,80.184181 271.311737,81.588852 281.189270,82.996460 
z"/>
<path fill="#000000" opacity="0.000000" stroke="none" 
	d="
M396.793793,221.407990 
	C396.312042,217.555191 396.037933,214.127518 395.734833,210.337494 
	C410.191589,210.337494 424.260284,210.337494 438.665588,210.337494 
	C438.665588,224.550598 438.665588,238.947449 438.665588,253.632095 
	C425.446350,254.501678 412.056396,255.382477 397.674988,256.328522 
	C397.443909,244.494537 397.222656,233.163818 396.793793,221.407990 
z"/>
<path fill="#000000" opacity="0.000000" stroke="none" 
	d="
M481.993317,191.999878 
	C473.201843,191.999878 464.908661,191.999878 456.308411,191.999878 
	C456.308411,177.750916 456.308411,163.708878 456.308411,148.866501 
	C469.321167,149.961380 482.403137,151.062103 495.738892,152.184158 
	C495.738892,165.313919 495.738892,178.366791 495.738892,191.999878 
	C491.343018,191.999878 486.917328,191.999878 481.993317,191.999878 
z"/>
<path fill="#000000" opacity="0.000000" stroke="none" 
	d="
M472.002686,210.000122 
	C480.137756,210.000122 487.773590,210.000122 495.703857,210.000122 
	C495.703857,223.290771 495.703857,236.348755 495.703857,249.773560 
	C482.729279,250.636475 469.680023,251.504364 456.295624,252.394547 
	C456.295624,238.045410 456.295624,224.320526 456.295624,210.000122 
	C461.317200,210.000122 466.410339,210.000122 472.002686,210.000122 
z"/>
<path fill="#000000" opacity="0.000000" stroke="none" 
	d="
M350.858673,123.000153 
	C342.635590,122.419617 334.885498,121.839104 327.438629,121.281296 
	C326.609772,110.111748 325.846893,99.831291 325.032684,88.859451 
	C329.128693,89.256523 332.973846,89.548004 336.797516,90.015404 
	C347.622162,91.338600 358.439880,92.719109 369.256378,94.107742 
	C373.709503,94.679443 375.148071,97.464577 375.041412,101.693977 
	C374.882111,108.013802 374.983459,114.340691 375.013672,120.664391 
	C375.019806,121.945442 375.202667,123.225647 375.363220,125.253403 
	C367.510132,124.517082 359.420898,123.758629 350.858673,123.000153 
z"/>
<path fill="#000000" opacity="0.000000" stroke="none" 
	d="
M393.416992,126.597351 
	C392.602417,116.728638 392.126862,107.188759 391.638824,97.399094 
	C401.535126,98.651405 410.815216,99.833313 420.097565,100.997475 
	C425.583832,101.685562 431.102173,102.186714 436.535919,103.162613 
	C437.530273,103.341209 438.855957,105.381424 438.890320,106.594566 
	C439.106018,114.207245 438.999390,121.829063 438.999390,130.059967 
	C423.711182,129.001022 408.733582,127.963600 393.416992,126.597351 
z"/>
<path fill="#000000" opacity="0.000000" stroke="none" 
	d="
M495.973267,133.627167 
	C491.190796,134.060211 486.411469,134.284897 481.674591,133.934662 
	C473.336639,133.318207 465.024628,132.350449 456.334137,131.493561 
	C456.334137,123.469604 456.334137,115.064201 456.334137,105.872719 
	C469.390106,107.612206 482.489136,109.357430 495.995544,111.156937 
	C495.995544,118.570221 495.995544,125.865059 495.973267,133.627167 
z"/>
<path fill="#FF8086" opacity="1.000000" stroke="none" 
	d="
M80.460243,51.774361 
	C56.289665,40.107941 32.372890,28.150438 8.437038,16.231243 
	C6.673456,15.353042 4.772351,14.751010 2.571374,14.022587 
	C4.556505,5.770885 15.567286,1.099323 24.652702,5.393066 
	C41.369175,13.293226 57.897617,21.615828 74.235794,30.269550 
	C77.225334,31.852999 78.938797,35.845684 81.514435,38.942627 
	C81.428162,43.270241 81.068748,47.381493 80.460243,51.774361 
z"/>
<path fill="#C5C2C6" opacity="1.000000" stroke="none" 
	d="
M61.619499,478.456390 
	C65.886009,476.309113 69.975327,476.617310 72.067329,480.346802 
	C73.433693,482.782654 73.477600,486.730804 72.560333,489.483917 
	C71.389565,492.997955 67.487206,494.142700 64.179710,492.864014 
	C61.847538,491.962372 58.777912,489.526611 58.540840,487.485077 
	C58.216404,484.691254 60.267006,481.621643 61.619499,478.456390 
z"/>
<path fill="#C5C2C6" opacity="1.000000" stroke="none" 
	d="
M455.986053,484.270599 
	C457.095062,479.333496 460.070465,476.928467 464.620270,477.257080 
	C468.415253,477.531219 471.078735,479.834015 471.885956,483.727722 
	C472.817841,488.223022 469.658356,492.565338 465.183136,493.137054 
	C459.904633,493.811401 456.604309,490.783905 455.986053,484.270599 
z"/>
</svg>