<svg version="1.1" id="Layer_1" xmlns="http://www.w3.org/2000/svg" xmlns:xlink="http://www.w3.org/1999/xlink" x="0px" y="0px"
	 width="100%" viewBox="0 0 512 512" enable-background="new 0 0 512 512" xml:space="preserve">
<path fill="#000000" opacity="0.000000" stroke="none" 
	d="
M277.000000,513.000000 
	C184.689072,513.000000 92.878143,513.000000 1.033606,513.000000 
	C1.033606,342.397369 1.033606,171.794754 1.033606,1.096060 
	C171.560944,1.096060 342.121979,1.096060 512.841492,1.096060 
	C512.841492,171.666550 512.841492,342.333252 512.841492,513.000000 
	C434.461395,513.000000 355.980682,513.000000 277.000000,513.000000 
M390.007324,142.084976 
	C389.825287,135.375046 385.972534,130.824112 380.776123,126.240601 
	C371.381409,119.726082 361.860229,119.531563 351.768860,124.925003 
	C346.234650,127.882805 344.393768,133.395660 341.012939,136.960876 
	C340.956329,121.302246 340.899719,105.643623 340.985107,89.282471 
	C340.670349,88.483910 340.355560,87.685356 340.009521,86.102333 
	C339.372101,80.489006 336.195435,76.402443 331.751862,72.250298 
	C327.000122,70.500191 322.332581,67.574608 317.480377,67.227036 
	C304.492157,66.296669 296.113068,73.398804 291.004272,83.979965 
	C291.002869,80.854797 290.807678,77.715302 291.037537,74.607239 
	C291.647980,66.352386 288.764954,59.777027 281.776337,54.241245 
	C279.646912,53.117817 277.575867,51.861969 275.378479,50.892590 
	C261.753754,44.881989 244.480560,53.238178 242.158752,67.776176 
	C240.845062,76.001755 241.282455,84.506996 240.236282,92.686508 
	C237.515121,89.087402 234.793961,85.488289 231.777481,81.241814 
	C227.036224,79.494514 222.362473,76.494720 217.541031,76.234787 
	C203.089249,75.455643 191.051727,86.506050 191.023285,102.578056 
	C190.935806,152.014679 190.954590,201.451492 190.280594,250.773178 
	C182.129211,242.315216 174.191650,233.635208 165.736328,225.492889 
	C161.503754,221.416992 156.676041,217.583084 149.671799,217.221405 
	C137.791122,216.467957 128.396652,221.610184 123.438019,232.113693 
	C118.304565,242.987518 121.512352,252.748413 128.827286,261.246796 
	C141.550400,276.028320 154.640854,290.493622 167.573395,305.094971 
	C177.792053,316.632233 187.736832,328.426849 198.292358,339.647034 
	C209.843857,351.925873 213.592041,366.722992 213.058319,382.986572 
	C197.678711,383.051544 187.622833,390.990326 185.081116,405.872955 
	C184.069565,411.795807 184.425812,417.952240 184.010284,424.926086 
	C184.335938,431.002502 184.304306,437.123962 185.063293,443.145752 
	C186.542816,454.884247 198.357391,464.998352 210.215042,465.003632 
	C262.489136,465.027039 314.763336,465.060883 367.037262,464.971527 
	C377.087952,464.954346 388.476471,457.716064 390.801544,447.399323 
	C392.506256,439.835144 392.232941,431.825104 392.978851,423.084808 
	C392.985901,418.622223 393.328186,414.129669 392.932709,409.703033 
	C392.009064,399.363983 388.168823,390.422241 377.998840,386.162231 
	C373.370209,384.223389 368.051941,383.930817 363.004242,381.968811 
	C363.002838,377.136444 362.474274,372.231964 363.123260,367.488556 
	C364.103760,360.321899 365.101837,352.980927 367.513245,346.220886 
	C373.932068,328.226624 381.333435,310.585052 387.910706,292.644348 
	C392.616821,279.807526 390.895294,266.303528 390.983429,252.082565 
	C390.988556,217.197037 391.005615,182.311508 390.958221,147.426056 
	C390.956146,145.915268 390.360870,144.405304 390.007324,142.084976 
z"/>
<path fill="#FFCCBC" opacity="1.000000" stroke="none" 
	d="
M291.042755,84.904121 
	C296.113068,73.398804 304.492157,66.296669 317.480377,67.227036 
	C322.332581,67.574608 327.000122,70.500191 331.887695,73.044510 
	C332.009369,129.647736 331.995178,185.456757 331.981415,241.265762 
	C331.981293,241.765533 331.791473,242.393723 332.021912,242.743423 
	C333.178040,244.498230 334.444702,246.180161 335.672546,247.887726 
	C337.408142,246.369278 339.454529,245.072266 340.756500,243.244858 
	C341.475739,242.235352 340.975647,240.336746 340.976746,238.838913 
	C341.001495,205.187012 341.019470,171.535110 341.038757,137.883209 
	C344.393768,133.395660 346.234650,127.882805 351.768860,124.925003 
	C361.860229,119.531563 371.381409,119.726082 380.907471,127.040070 
	C381.027527,168.165146 381.015961,208.490768 381.006592,248.816376 
	C381.006348,249.815994 380.660950,251.048935 381.115875,251.769379 
	C382.259064,253.579956 383.529846,256.087891 385.211700,256.520935 
	C386.436737,256.836334 388.398315,254.291229 390.230896,253.017365 
	C390.430267,253.013321 390.829071,253.010300 390.829071,253.010300 
	C390.895294,266.303528 392.616821,279.807526 387.910706,292.644348 
	C381.333435,310.585052 373.932068,328.226624 367.513245,346.220886 
	C365.101837,352.980927 364.103760,360.321899 363.123260,367.488556 
	C362.474274,372.231964 363.002838,377.136444 362.564819,382.538727 
	C313.555420,383.135620 264.985413,383.164093 216.415390,383.177368 
	C215.593170,383.177582 214.770905,382.994324 213.948654,382.896667 
	C213.592041,366.722992 209.843857,351.925873 198.292358,339.647034 
	C187.736832,328.426849 177.792053,316.632233 167.573395,305.094971 
	C154.640854,290.493622 141.550400,276.028320 128.827286,261.246796 
	C121.512352,252.748413 118.304565,242.987518 123.438019,232.113693 
	C128.396652,221.610184 137.791122,216.467957 149.510162,217.592773 
	C148.167679,218.116882 146.986832,218.269592 146.797134,218.294113 
	C161.680832,233.318008 176.707275,248.485977 192.387695,264.314117 
	C191.872314,259.560486 191.402176,255.224365 190.932068,250.888229 
	C190.954590,201.451492 190.935806,152.014679 191.023285,102.578056 
	C191.051727,86.506050 203.089249,75.455643 217.541031,76.234787 
	C222.362473,76.494720 227.036224,79.494514 231.911652,82.040092 
	C232.037048,129.317673 232.045853,175.796982 231.985962,222.276230 
	C231.981201,225.964035 232.704636,229.496140 236.775589,229.732956 
	C241.313232,229.996933 241.020309,226.034058 241.018250,222.827835 
	C240.990372,179.513977 240.960526,136.200134 240.931152,92.886276 
	C241.282455,84.506996 240.845062,76.001755 242.158752,67.776176 
	C244.480560,53.238178 261.753754,44.881989 275.378479,50.892590 
	C277.575867,51.861969 279.646912,53.117817 281.904968,55.040672 
	C282.022491,114.657814 282.010834,173.475525 282.004517,232.293243 
	C282.004425,233.291306 281.669281,234.651825 282.181458,235.216370 
	C283.482605,236.650635 285.107025,238.548828 286.735596,238.686966 
	C288.015869,238.795563 289.949707,236.795685 290.749207,235.285568 
	C291.445740,233.969986 290.994629,232.029633 290.995300,230.365326 
	C291.015411,181.878265 291.028503,133.391190 291.042755,84.904121 
z"/>
<path fill="#6192FF" opacity="1.000000" stroke="none" 
	d="
M213.503479,382.941620 
	C214.770905,382.994324 215.593170,383.177582 216.415390,383.177368 
	C264.985413,383.164093 313.555420,383.135620 362.585968,383.000061 
	C368.051941,383.930817 373.370209,384.223389 377.998840,386.162231 
	C388.168823,390.422241 392.009064,399.363983 392.932709,409.703033 
	C393.328186,414.129669 392.985901,418.622223 392.451660,423.544922 
	C322.669434,424.004150 253.414398,424.003265 184.159363,424.002350 
	C184.425812,417.952240 184.069565,411.795807 185.081116,405.872955 
	C187.622833,390.990326 197.678711,383.051544 213.503479,382.941620 
z"/>
<path fill="#4678FD" opacity="1.000000" stroke="none" 
	d="
M184.084839,424.464233 
	C253.414398,424.003265 322.669434,424.004150 392.382812,424.009430 
	C392.232941,431.825104 392.506256,439.835144 390.801544,447.399323 
	C388.476471,457.716064 377.087952,464.954346 367.037262,464.971527 
	C314.763336,465.060883 262.489136,465.027039 210.215042,465.003632 
	C198.357391,464.998352 186.542816,454.884247 185.063293,443.145752 
	C184.304306,437.123962 184.335938,431.002502 184.084839,424.464233 
z"/>
<path fill="#FCB39F" opacity="1.000000" stroke="none" 
	d="
M291.023499,84.442047 
	C291.028503,133.391190 291.015411,181.878265 290.995300,230.365326 
	C290.994629,232.029633 291.445740,233.969986 290.749207,235.285568 
	C289.949707,236.795685 288.015869,238.795563 286.735596,238.686966 
	C285.107025,238.548828 283.482605,236.650635 282.181458,235.216370 
	C281.669281,234.651825 282.004425,233.291306 282.004517,232.293243 
	C282.010834,173.475525 282.022491,114.657814 282.050995,55.365559 
	C288.764954,59.777027 291.647980,66.352386 291.037537,74.607239 
	C290.807678,77.715302 291.002869,80.854797 291.023499,84.442047 
z"/>
<path fill="#FCB39F" opacity="1.000000" stroke="none" 
	d="
M341.025848,137.422043 
	C341.019470,171.535110 341.001495,205.187012 340.976746,238.838913 
	C340.975647,240.336746 341.475739,242.235352 340.756500,243.244858 
	C339.454529,245.072266 337.408142,246.369278 335.672546,247.887726 
	C334.444702,246.180161 333.178040,244.498230 332.021912,242.743423 
	C331.791473,242.393723 331.981293,241.765533 331.981415,241.265762 
	C331.995178,185.456757 332.009369,129.647736 332.044250,73.364014 
	C336.195435,76.402443 339.372101,80.489006 340.018402,86.828094 
	C340.299225,88.364243 340.571198,89.174614 340.843140,89.984993 
	C340.899719,105.643623 340.956329,121.302246 341.025848,137.422043 
z"/>
<path fill="#FCB39F" opacity="1.000000" stroke="none" 
	d="
M240.583710,92.786392 
	C240.960526,136.200134 240.990372,179.513977 241.018250,222.827835 
	C241.020309,226.034058 241.313232,229.996933 236.775589,229.732956 
	C232.704636,229.496140 231.981201,225.964035 231.985962,222.276230 
	C232.045853,175.796982 232.037048,129.317673 232.059296,82.363777 
	C234.793961,85.488289 237.515121,89.087402 240.583710,92.786392 
z"/>
<path fill="#FCB4A0" opacity="1.000000" stroke="none" 
	d="
M390.031525,253.021393 
	C388.398315,254.291229 386.436737,256.836334 385.211700,256.520935 
	C383.529846,256.087891 382.259064,253.579956 381.115875,251.769379 
	C380.660950,251.048935 381.006348,249.815994 381.006592,248.816376 
	C381.015961,208.490768 381.027527,168.165146 381.054596,127.364975 
	C385.972534,130.824112 389.825287,135.375046 390.014404,142.964981 
	C390.024841,180.237122 390.028198,216.629242 390.031525,253.021393 
z"/>
<path fill="#FCB5A0" opacity="1.000000" stroke="none" 
	d="
M190.606323,250.830704 
	C191.402176,255.224365 191.872314,259.560486 192.387695,264.314117 
	C176.707275,248.485977 161.680832,233.318008 146.797134,218.294113 
	C146.986832,218.269592 148.167679,218.116882 149.713272,217.958649 
	C156.676041,217.583084 161.503754,221.416992 165.736328,225.492889 
	C174.191650,233.635208 182.129211,242.315216 190.606323,250.830704 
z"/>
<path fill="#FDC2B0" opacity="1.000000" stroke="none" 
	d="
M390.230896,253.017349 
	C390.028198,216.629242 390.024841,180.237122 390.031738,143.369965 
	C390.360870,144.405304 390.956146,145.915268 390.958221,147.426056 
	C391.005615,182.311508 390.988556,217.197037 390.906250,252.546432 
	C390.829071,253.010300 390.430267,253.013321 390.230896,253.017349 
z"/>
<path fill="#FDBCA9" opacity="1.000000" stroke="none" 
	d="
M340.914124,89.633728 
	C340.571198,89.174614 340.299225,88.364243 340.034027,87.220337 
	C340.355560,87.685356 340.670349,88.483910 340.914124,89.633728 
z"/>
</svg>