<svg version="1.1" id="Layer_1" xmlns="http://www.w3.org/2000/svg" xmlns:xlink="http://www.w3.org/1999/xlink" x="0px" y="0px"
	 width="100%" viewBox="0 0 512 512" enable-background="new 0 0 512 512" xml:space="preserve">
<path fill="#000000" opacity="0.000000" stroke="none" 
	d="
M322.000000,513.000000 
	C214.692734,513.000000 107.885460,513.000000 1.039095,513.000000 
	C1.039095,342.401031 1.039095,171.802063 1.039095,1.101549 
	C171.557281,1.101549 342.114624,1.101549 512.835999,1.101549 
	C512.835999,171.666534 512.835999,342.333252 512.835999,513.000000 
	C449.468719,513.000000 385.984344,513.000000 322.000000,513.000000 
M186.348358,397.787354 
	C187.006744,397.859375 187.665131,397.994354 188.323532,397.994507 
	C240.739075,398.004791 293.154602,398.010895 345.570129,397.964783 
	C346.756897,397.963745 347.943146,397.362396 349.923981,397.014130 
	C360.282074,396.487885 371.894501,384.100739 371.794250,371.612579 
	C371.862732,362.332916 372.380829,353.025726 371.815216,343.784882 
	C371.519989,338.961670 370.113281,333.824219 367.816711,329.582275 
	C362.392822,319.563812 353.386261,315.228333 342.001160,314.934387 
	C342.524780,305.584686 341.585144,295.851135 343.913605,286.974915 
	C347.440491,273.530121 352.646301,260.422607 358.216095,247.641296 
	C366.402985,228.854431 371.961884,209.763092 369.695068,188.194717 
	C369.463898,179.120346 369.140137,170.047073 369.031647,160.971222 
	C368.948883,154.042526 366.016022,148.561508 360.786591,143.300720 
	C353.001923,137.690811 344.413269,136.392776 335.335541,139.062943 
	C328.127014,141.183289 323.870209,146.865387 320.020935,152.098343 
	C318.576843,145.593292 316.988373,139.163208 310.804443,134.307159 
	C295.028931,123.050369 276.436066,129.869125 270.010010,144.986298 
	C270.855804,135.810150 268.339752,127.933998 260.763947,121.247475 
	C255.658310,119.498352 250.593002,116.416176 245.439178,116.260345 
	C232.161285,115.858856 219.062088,125.175407 219.230225,142.680023 
	C218.378113,137.456879 215.030319,133.961212 210.775253,130.240616 
	C205.822281,128.493805 200.919495,125.443375 195.906723,125.250465 
	C182.180603,124.722214 170.136993,134.761093 170.015839,150.158951 
	C169.933228,160.655823 170.042435,171.154129 169.971680,181.651154 
	C169.953232,184.387985 170.092346,187.335312 169.088867,189.739212 
	C168.750961,190.548721 165.100098,189.972488 162.963730,190.039993 
	C162.808289,190.044907 162.656876,190.139572 162.501358,190.184814 
	C144.767929,195.342773 136.594315,212.892670 147.511871,228.864578 
	C156.385422,241.846252 166.240326,254.152893 175.363052,266.970276 
	C179.925568,273.380585 184.236908,280.044434 187.920670,286.986877 
	C192.693970,295.982635 192.248245,305.986481 191.105423,315.978699 
	C176.239090,316.076477 167.238342,322.743378 164.102646,337.357849 
	C162.746765,343.677063 163.416397,350.430908 163.014877,357.914856 
	C163.005783,362.733643 162.946945,367.552917 162.997467,372.371094 
	C163.119781,384.032867 174.791626,397.072357 186.348358,397.787354 
z"/>
<path fill="#FFCCBC" opacity="1.000000" stroke="none" 
	d="
M369.831238,189.032700 
	C371.961884,209.763092 366.402985,228.854431 358.216095,247.641296 
	C352.646301,260.422607 347.440491,273.530121 343.913605,286.974915 
	C341.585144,295.851135 342.524780,305.584686 341.544220,315.470215 
	C294.377747,316.026611 247.668198,316.051514 200.958664,316.057831 
	C197.971313,316.058228 194.983948,315.914917 191.996582,315.838501 
	C192.248245,305.986481 192.693970,295.982635 187.920670,286.986877 
	C184.236908,280.044434 179.925568,273.380585 175.363052,266.970276 
	C166.240326,254.152893 156.385422,241.846252 147.511871,228.864578 
	C136.594315,212.892670 144.767929,195.342773 162.501358,190.184814 
	C162.656876,190.139572 162.808289,190.044907 162.963730,190.039993 
	C165.100098,189.972488 168.750961,190.548721 169.088867,189.739212 
	C170.092346,187.335312 169.953232,184.387985 169.971680,181.651154 
	C170.042435,171.154129 169.933228,160.655823 170.015839,150.158951 
	C170.136993,134.761093 182.180603,124.722214 195.906723,125.250465 
	C200.919495,125.443375 205.822281,128.493805 210.905518,131.039917 
	C211.026016,142.812103 211.013687,153.784973 211.008011,164.757843 
	C211.006378,167.916489 212.046417,170.704132 215.570160,170.701477 
	C219.037033,170.698853 220.122803,168.174408 220.046188,164.829391 
	C219.878738,157.517593 219.954407,150.200241 219.930786,142.885147 
	C219.062088,125.175407 232.161285,115.858856 245.439178,116.260345 
	C250.593002,116.416176 255.658310,119.498352 260.898560,122.043701 
	C261.016968,137.637695 261.016541,152.435516 260.972443,167.233200 
	C260.962433,170.592773 261.096283,174.006805 265.591949,173.893951 
	C269.717773,173.790375 269.916656,170.390884 269.958405,167.337372 
	C270.056061,160.189056 270.021210,153.038910 270.039978,145.889511 
	C276.436066,129.869125 295.028931,123.050369 310.675903,134.940613 
	C310.382751,148.677246 310.023865,161.784378 310.291107,174.878738 
	C310.325806,176.580200 313.588379,178.215775 315.355774,179.881882 
	C316.573059,178.169220 318.670013,176.545090 318.852875,174.728333 
	C319.581757,167.486038 319.714508,160.183762 320.067963,152.903687 
	C323.870209,146.865387 328.127014,141.183289 335.335541,139.062943 
	C344.413269,136.392776 353.001923,137.690811 360.653900,143.935181 
	C360.346680,146.204727 360.027008,147.839249 360.020905,149.474960 
	C359.977234,161.125153 359.867584,172.778244 360.105377,184.423752 
	C360.154022,186.805252 361.128662,190.771011 362.479950,191.151306 
	C364.566406,191.738464 367.345764,189.863434 369.831238,189.032700 
z"/>
<path fill="#6192FF" opacity="1.000000" stroke="none" 
	d="
M191.550995,315.908569 
	C194.983948,315.914917 197.971313,316.058228 200.958664,316.057831 
	C247.668198,316.051514 294.377747,316.026611 341.550751,315.929565 
	C353.386261,315.228333 362.392822,319.563812 367.816711,329.582275 
	C370.113281,333.824219 371.519989,338.961670 371.815216,343.784882 
	C372.380829,353.025726 371.862732,362.332916 371.409607,371.376038 
	C371.015930,368.807373 371.001343,366.475311 370.998871,364.143219 
	C370.991333,356.990814 370.993164,356.985382 364.063843,356.985352 
	C297.097870,356.984894 230.131912,356.986389 163.165939,356.987305 
	C163.416397,350.430908 162.746765,343.677063 164.102646,337.357849 
	C167.238342,322.743378 176.239090,316.076477 191.550995,315.908569 
z"/>
<path fill="#4678FD" opacity="1.000000" stroke="none" 
	d="
M163.090408,357.451080 
	C230.131912,356.986389 297.097870,356.984894 364.063843,356.985352 
	C370.993164,356.985382 370.991333,356.990814 370.998871,364.143219 
	C371.001343,366.475311 371.015930,368.807373 371.039795,371.610657 
	C371.894501,384.100739 360.282074,396.487885 349.049744,397.013428 
	C294.076355,397.022156 239.977142,397.031586 185.877945,397.041016 
	C174.791626,397.072357 163.119781,384.032867 162.997467,372.371094 
	C162.946945,367.552917 163.005783,362.733643 163.090408,357.451080 
z"/>
<path fill="#FCB4A0" opacity="1.000000" stroke="none" 
	d="
M270.024994,145.437897 
	C270.021210,153.038910 270.056061,160.189056 269.958405,167.337372 
	C269.916656,170.390884 269.717773,173.790375 265.591949,173.893951 
	C261.096283,174.006805 260.962433,170.592773 260.972443,167.233200 
	C261.016541,152.435516 261.016968,137.637695 261.056519,122.366089 
	C268.339752,127.933998 270.855804,135.810150 270.024994,145.437897 
z"/>
<path fill="#FCB3A0" opacity="1.000000" stroke="none" 
	d="
M369.763153,188.613708 
	C367.345764,189.863434 364.566406,191.738464 362.479950,191.151306 
	C361.128662,190.771011 360.154022,186.805252 360.105377,184.423752 
	C359.867584,172.778244 359.977234,161.125153 360.020905,149.474960 
	C360.027008,147.839249 360.346680,146.204727 360.807068,144.259979 
	C366.016022,148.561508 368.948883,154.042526 369.031647,160.971222 
	C369.140137,170.047073 369.463898,179.120346 369.763153,188.613708 
z"/>
<path fill="#FCB5A1" opacity="1.000000" stroke="none" 
	d="
M320.044434,152.501007 
	C319.714508,160.183762 319.581757,167.486038 318.852875,174.728333 
	C318.670013,176.545090 316.573059,178.169220 315.355774,179.881882 
	C313.588379,178.215775 310.325806,176.580200 310.291107,174.878738 
	C310.023865,161.784378 310.382751,148.677246 310.833282,135.265045 
	C316.988373,139.163208 318.576843,145.593292 320.044434,152.501007 
z"/>
<path fill="#FCB4A0" opacity="1.000000" stroke="none" 
	d="
M219.580505,142.782593 
	C219.954407,150.200241 219.878738,157.517593 220.046188,164.829391 
	C220.122803,168.174408 219.037033,170.698853 215.570160,170.701477 
	C212.046417,170.704132 211.006378,167.916489 211.008011,164.757843 
	C211.013687,153.784973 211.026016,142.812103 211.052551,131.364624 
	C215.030319,133.961212 218.378113,137.456879 219.580505,142.782593 
z"/>
<path fill="#5384FD" opacity="1.000000" stroke="none" 
	d="
M186.113159,397.414185 
	C239.977142,397.031586 294.076355,397.022156 348.652588,397.026917 
	C347.943146,397.362396 346.756897,397.963745 345.570129,397.964783 
	C293.154602,398.010895 240.739075,398.004791 188.323532,397.994507 
	C187.665131,397.994354 187.006744,397.859375 186.113159,397.414185 
z"/>
</svg>